<svg width="16" height="16" viewBox="0 0 16 16" fill="none" xmlns="http://www.w3.org/2000/svg">
<path d="M8.5625 5C8.5625 4.68934 8.31066 4.4375 8 4.4375C7.68934 4.4375 7.4375 4.68934 7.4375 5V7.4375H5C4.68934 7.4375 4.4375 7.68934 4.4375 8C4.4375 8.31066 4.68934 8.5625 5 8.5625H7.4375V11C7.4375 11.3107 7.68934 11.5625 8 11.5625C8.31066 11.5625 8.5625 11.3107 8.5625 11V8.5625H11C11.3107 8.5625 11.5625 8.31066 11.5625 8C11.5625 7.68934 11.3107 7.4375 11 7.4375H8.5625V5Z" fill="#FDFDFD"/>
<path fill-rule="evenodd" clip-rule="evenodd" d="M8.04288 0.3125H7.95712C6.31409 0.31249 5.02358 0.312482 4.01602 0.447945C2.98352 0.586761 2.16433 0.877037 1.52069 1.52069C0.877037 2.16433 0.586761 2.98352 0.447945 4.01602C0.312482 5.02358 0.31249 6.31409 0.3125 7.95712V8.04288C0.31249 9.68591 0.312482 10.9764 0.447945 11.984C0.586761 13.0165 0.877037 13.8357 1.52069 14.4793C2.16433 15.123 2.98352 15.4132 4.01602 15.5521C5.02358 15.6875 6.31408 15.6875 7.9571 15.6875H8.04288C9.6859 15.6875 10.9764 15.6875 11.984 15.5521C13.0165 15.4132 13.8357 15.123 14.4793 14.4793C15.123 13.8357 15.4132 13.0165 15.5521 11.984C15.6875 10.9764 15.6875 9.68592 15.6875 8.0429V7.95713C15.6875 6.3141 15.6875 5.02358 15.5521 4.01602C15.4132 2.98352 15.123 2.16433 14.4793 1.52069C13.8357 0.877037 13.0165 0.586761 11.984 0.447945C10.9764 0.312482 9.68591 0.31249 8.04288 0.3125ZM2.31618 2.31618C2.71596 1.9164 3.25818 1.68496 4.16592 1.56291C5.08985 1.4387 6.30472 1.4375 8 1.4375C9.69528 1.4375 10.9102 1.4387 11.8341 1.56291C12.7418 1.68496 13.284 1.9164 13.6838 2.31618C14.0836 2.71596 14.315 3.25818 14.4371 4.16592C14.5613 5.08985 14.5625 6.30472 14.5625 8C14.5625 9.69528 14.5613 10.9102 14.4371 11.8341C14.315 12.7418 14.0836 13.284 13.6838 13.6838C13.284 14.0836 12.7418 14.315 11.8341 14.4371C10.9102 14.5613 9.69528 14.5625 8 14.5625C6.30472 14.5625 5.08985 14.5613 4.16592 14.4371C3.25818 14.315 2.71596 14.0836 2.31618 13.6838C1.9164 13.284 1.68496 12.7418 1.56291 11.8341C1.4387 10.9102 1.4375 9.69528 1.4375 8C1.4375 6.30472 1.4387 5.08985 1.56291 4.16592C1.68496 3.25818 1.9164 2.71596 2.31618 2.31618Z" fill="#FDFDFD"/>
</svg>
