<svg width="14" height="15" viewBox="0 0 14 15" fill="none" xmlns="http://www.w3.org/2000/svg">
<path d="M3.85217 5.49058C3.92327 5.58472 4.13555 5.86574 4.26197 6.02773C4.51518 6.35219 4.86116 6.78333 5.23438 7.21318C5.60949 7.64521 6.00354 8.06596 6.3536 8.37527C6.52914 8.53037 6.68333 8.64822 6.81058 8.72493C6.93025 8.79707 7.00094 8.81207 7.00094 8.81207C7.00094 8.81207 7.06955 8.79707 7.18922 8.72493C7.31646 8.64822 7.47066 8.53037 7.64619 8.37527C7.99625 8.06596 8.3903 7.64521 8.76541 7.21317C9.13863 6.78331 9.48461 6.35217 9.73782 6.02771C9.86424 5.86571 10.0762 5.58509 10.1473 5.49096C10.2906 5.2964 10.5648 5.25444 10.7593 5.39773C10.9539 5.54101 10.9955 5.81489 10.8522 6.00944L10.851 6.01098C10.7764 6.10977 10.5566 6.40078 10.4276 6.56604C10.1687 6.89783 9.81261 7.34169 9.42612 7.78683C9.04152 8.2298 8.61821 8.68404 8.22556 9.03098C8.02973 9.20401 7.83123 9.3596 7.64097 9.47429C7.46271 9.58175 7.23703 9.6875 6.99989 9.6875C6.76276 9.6875 6.53708 9.58175 6.35883 9.47429C6.16856 9.35959 5.97006 9.20401 5.77423 9.03098C5.38158 8.68404 4.95828 8.22981 4.57367 7.78684C4.18718 7.3417 3.8311 6.89785 3.57217 6.56606C3.4431 6.40068 3.22327 6.10962 3.14882 6.01106L3.14783 6.00975C3.00454 5.81519 3.0459 5.54104 3.24045 5.39776C3.435 5.25447 3.70888 5.29604 3.85217 5.49058Z" fill="#161616"/>
</svg>
