<svg width="20" height="20" viewBox="0 0 20 20" fill="none" xmlns="http://www.w3.org/2000/svg">
<path d="M14.4969 12.8706C14.3953 12.7361 14.0921 12.3347 13.9115 12.1032C13.5497 11.6397 13.0555 11.0238 12.5223 10.4097C11.9864 9.79256 11.4235 9.19148 10.9234 8.74961C10.6727 8.52805 10.4524 8.35969 10.2706 8.25011C10.0996 8.14704 9.99866 8.12561 9.99866 8.12561C9.99866 8.12561 9.90064 8.14705 9.72969 8.2501C9.54791 8.35968 9.32763 8.52804 9.07687 8.74961C8.57678 9.19148 8.01385 9.79256 7.47799 10.4098C6.94482 11.0238 6.45056 11.6398 6.08883 12.1033C5.90822 12.3347 5.60539 12.7356 5.50382 12.8701C5.29912 13.148 4.90745 13.2079 4.62952 13.0032C4.35158 12.7986 4.29221 12.4073 4.4969 12.1294L4.49848 12.1273C4.605 11.9862 4.91911 11.5704 5.10339 11.3342C5.47329 10.8602 5.98198 10.2262 6.53411 9.59024C7.08354 8.95743 7.68827 8.30851 8.2492 7.81288C8.52895 7.5657 8.81253 7.34344 9.08433 7.17958C9.33898 7.02607 9.66139 6.875 10.0002 6.875C10.3389 6.875 10.6613 7.02607 10.916 7.17959C11.1878 7.34344 11.4713 7.5657 11.7511 7.81288C12.312 8.30851 12.9167 8.95742 13.4662 9.59023C14.0183 10.2261 14.527 10.8602 14.8969 11.3342C15.0813 11.5705 15.3954 11.9863 15.5017 12.1271L15.5031 12.1289C15.7078 12.4069 15.6487 12.7985 15.3708 13.0032C15.0929 13.2079 14.7016 13.1485 14.4969 12.8706Z" fill="#FDFDFD"/>
</svg>
