<svg width="10" height="22" viewBox="0 0 10 22" fill="none" xmlns="http://www.w3.org/2000/svg">
<path fill-rule="evenodd" clip-rule="evenodd" d="M5 1.75049C3.20507 1.75049 1.75 3.20556 1.75 5.00049V7.00049C1.75 7.4147 1.41421 7.75049 1 7.75049C0.585786 7.75049 0.25 7.4147 0.25 7.00049V5.00049C0.25 2.37714 2.37665 0.250488 5 0.250488C7.62335 0.250488 9.75 2.37714 9.75 5.00049V17.0005C9.75 19.6238 7.62335 21.7505 5 21.7505C2.37665 21.7505 0.25 19.6238 0.25 17.0005V12.5005C0.25 10.7056 1.70507 9.25049 3.5 9.25049C5.29493 9.25049 6.75 10.7056 6.75 12.5005V15.0005C6.75 15.4147 6.41421 15.7505 6 15.7505C5.58579 15.7505 5.25 15.4147 5.25 15.0005V12.5005C5.25 11.534 4.4665 10.7505 3.5 10.7505C2.5335 10.7505 1.75 11.534 1.75 12.5005V17.0005C1.75 18.7954 3.20507 20.2505 5 20.2505C6.79493 20.2505 8.25 18.7954 8.25 17.0005V5.00049C8.25 3.20556 6.79493 1.75049 5 1.75049Z" fill="#161616"/>
</svg>
