<svg width="20" height="20" viewBox="0 0 20 20" fill="none" xmlns="http://www.w3.org/2000/svg">
<path fill-rule="evenodd" clip-rule="evenodd" d="M10.6335 14.1668C10.6335 14.5085 10.9168 14.7918 11.2585 14.7918H11.2668C11.6085 14.7918 11.8918 14.5085 11.8918 14.1668V13.0835C12.5335 12.9918 13.0418 12.4918 13.1335 11.8501H14.2335C14.5752 11.8501 14.8585 11.5668 14.8585 11.2251C14.8585 10.8835 14.5752 10.6001 14.2335 10.6001H13.1502V9.37514H14.2335C14.5752 9.37514 14.8585 9.09181 14.8585 8.75014C14.8585 8.40848 14.5752 8.12514 14.2335 8.12514H13.1335C13.0418 7.46681 12.5252 6.95013 11.8752 6.8668V5.83348C11.8752 5.49181 11.5918 5.20848 11.2502 5.20848C10.9085 5.20848 10.6252 5.49181 10.6252 5.83348V6.85846H9.35851V5.83348C9.35851 5.49181 9.07517 5.20848 8.73351 5.20848C8.39184 5.20848 8.10851 5.49181 8.10851 5.83348V6.88348C7.49184 6.99182 7.00849 7.50014 6.92516 8.12514H5.82515C5.48349 8.12514 5.20015 8.40848 5.20015 8.75014C5.20015 9.09181 5.48349 9.37514 5.82515 9.37514H6.9085V10.6001H5.82515C5.48349 10.6001 5.20015 10.8835 5.20015 11.2251C5.20015 11.5668 5.48349 11.8501 5.82515 11.8501H6.92516C7.01683 12.4751 7.50017 12.9668 8.10851 13.0751V14.1668C8.10851 14.5085 8.39184 14.7918 8.73351 14.7918C9.07517 14.7918 9.35851 14.5085 9.35851 14.1668V13.1001H10.6335V14.1668ZM8.16682 11.6418V8.31679C8.16682 8.20013 8.25849 8.10846 8.37515 8.10846H11.6835C11.8002 8.10846 11.8918 8.20013 11.8918 8.31679V11.6418C11.8918 11.7585 11.8002 11.8501 11.6835 11.8501H8.37515C8.25849 11.8501 8.16682 11.7585 8.16682 11.6418Z" fill="#161616"/>
<path fill-rule="evenodd" clip-rule="evenodd" d="M3.31599 18.5418H3.47433C4.45766 18.5418 5.26598 18.2834 6.00764 17.7418C6.12431 17.6501 6.21597 17.5834 6.29097 17.5334C6.39931 17.5751 6.56599 17.6418 6.72432 17.7085C7.15766 17.8918 7.66599 18.0085 8.15766 18.0418C9.36599 18.1252 10.6493 18.1252 11.8577 18.0418C15.641 17.7918 18.6827 14.7085 18.9327 10.8751C18.9743 10.1585 18.9743 9.40846 18.9327 8.69179C18.6827 4.85846 15.641 1.77515 11.8577 1.52515C10.6493 1.44181 9.36599 1.44181 8.15766 1.52515C4.37433 1.77515 1.33264 4.85846 1.08264 8.69179C1.04097 9.40846 1.04097 10.1585 1.08264 10.8751C1.15764 12.0918 1.64099 13.3668 2.48266 14.6251C2.75766 15.1168 2.48266 15.8501 2.19933 16.3834C1.84933 17.0418 1.59931 17.5168 1.89098 18.0168C2.17914 18.5108 2.69508 18.5249 3.2941 18.5412L3.31599 18.5418ZM3.34931 17.2835H3.13266L3.14098 17.2751C3.19098 17.1751 3.24932 17.0585 3.30765 16.9502C3.92432 15.7835 4.01599 14.7918 3.54933 13.9585C2.80766 12.8335 2.39931 11.7668 2.33264 10.7751C2.29097 10.1168 2.29097 9.41681 2.33264 8.75847C2.54097 5.55014 5.08266 2.9668 8.241 2.75846C9.391 2.68346 10.616 2.68346 11.7743 2.75846C14.9327 2.9668 17.4743 5.55014 17.6827 8.75847C17.7243 9.41681 17.7243 10.1168 17.6827 10.7751C17.4743 13.9835 14.9327 16.5668 11.7743 16.7751C10.616 16.8501 9.39933 16.8501 8.241 16.7751C7.88266 16.7585 7.50766 16.6668 7.19933 16.5418C6.641 16.3084 6.40764 16.2168 6.13264 16.2501C5.86426 16.2827 5.66733 16.4263 5.28621 16.7043L5.25765 16.7251C4.70765 17.1335 4.10764 17.3085 3.34931 17.2835Z" fill="#161616"/>
</svg>
