<svg width="20" height="20" viewBox="0 0 20 20" fill="none" xmlns="http://www.w3.org/2000/svg">
<path fill-rule="evenodd" clip-rule="evenodd" d="M10.6336 14.1668C10.6336 14.5084 10.9169 14.7918 11.2586 14.7918H11.2669C11.6085 14.7918 11.8919 14.5084 11.8919 14.1668V13.0834C12.5335 12.9918 13.0419 12.4917 13.1336 11.8501H14.2335C14.5752 11.8501 14.8585 11.5667 14.8585 11.2251C14.8585 10.8834 14.5752 10.6001 14.2335 10.6001H13.1502V9.37509H14.2335C14.5752 9.37509 14.8585 9.09176 14.8585 8.75009C14.8585 8.40843 14.5752 8.12509 14.2335 8.12509H13.1336C13.0419 7.46676 12.5252 6.95008 11.8752 6.86675V5.83343C11.8752 5.49176 11.5919 5.20843 11.2502 5.20843C10.9086 5.20843 10.6252 5.49176 10.6252 5.83343V6.85841H9.35857V5.83343C9.35857 5.49176 9.07523 5.20843 8.73357 5.20843C8.3919 5.20843 8.10857 5.49176 8.10857 5.83343V6.88343C7.4919 6.99177 7.00855 7.50009 6.92522 8.12509H5.82522C5.48355 8.12509 5.20022 8.40843 5.20022 8.75009C5.20022 9.09176 5.48355 9.37509 5.82522 9.37509H6.90856V10.6001H5.82522C5.48355 10.6001 5.20022 10.8834 5.20022 11.2251C5.20022 11.5667 5.48355 11.8501 5.82522 11.8501H6.92522C7.01689 12.4751 7.50023 12.9668 8.10857 13.0751V14.1668C8.10857 14.5084 8.3919 14.7918 8.73357 14.7918C9.07523 14.7918 9.35857 14.5084 9.35857 14.1668V13.1001H10.6336V14.1668ZM8.16688 11.6417V8.31674C8.16688 8.20008 8.25855 8.10841 8.37521 8.10841H11.6835C11.8002 8.10841 11.8919 8.20008 11.8919 8.31674V11.6417C11.8919 11.7584 11.8002 11.8501 11.6835 11.8501H8.37521C8.25855 11.8501 8.16688 11.7584 8.16688 11.6417Z" fill="#FDFDFD"/>
<path fill-rule="evenodd" clip-rule="evenodd" d="M3.31606 18.5417H3.47439C4.45772 18.5417 5.26604 18.2834 6.00771 17.7417C6.12437 17.6501 6.21604 17.5834 6.29104 17.5334C6.39937 17.5751 6.56605 17.6417 6.72439 17.7084C7.15772 17.8917 7.66605 18.0084 8.15772 18.0418C9.36605 18.1251 10.6494 18.1251 11.8577 18.0418C15.6411 17.7918 18.6827 14.7084 18.9327 10.8751C18.9744 10.1584 18.9744 9.40841 18.9327 8.69174C18.6827 4.85841 15.6411 1.7751 11.8577 1.5251C10.6494 1.44176 9.36605 1.44176 8.15772 1.5251C4.37439 1.7751 1.3327 4.85841 1.0827 8.69174C1.04104 9.40841 1.04104 10.1584 1.0827 10.8751C1.1577 12.0917 1.64106 13.3667 2.48272 14.6251C2.75772 15.1167 2.48273 15.8501 2.19939 16.3834C1.84939 17.0417 1.59937 17.5167 1.89104 18.0167C2.1792 18.5107 2.69514 18.5248 3.29416 18.5412L3.31606 18.5417ZM3.34937 17.2834H3.13272L3.14104 17.2751C3.19104 17.1751 3.24938 17.0584 3.30771 16.9501C3.92438 15.7834 4.01605 14.7917 3.54939 13.9584C2.80772 12.8334 2.39937 11.7667 2.3327 10.7751C2.29104 10.1167 2.29104 9.41676 2.3327 8.75842C2.54104 5.55009 5.08273 2.96675 8.24106 2.75841C9.39106 2.68341 10.6161 2.68341 11.7744 2.75841C14.9327 2.96675 17.4744 5.55009 17.6827 8.75842C17.7244 9.41676 17.7244 10.1167 17.6827 10.7751C17.4744 13.9834 14.9327 16.5668 11.7744 16.7751C10.6161 16.8501 9.39939 16.8501 8.24106 16.7751C7.88272 16.7584 7.50772 16.6667 7.19939 16.5417C6.64106 16.3084 6.4077 16.2167 6.1327 16.2501C5.86432 16.2826 5.66739 16.4263 5.28627 16.7043L5.25771 16.7251C4.70771 17.1334 4.1077 17.3084 3.34937 17.2834Z" fill="#FDFDFD"/>
</svg>
