<svg width="20" height="21" viewBox="0 0 20 21" fill="none" xmlns="http://www.w3.org/2000/svg">
<path fill-rule="evenodd" clip-rule="evenodd" d="M10.0162 6.9585C8.06019 6.9585 6.47453 8.54415 6.47453 10.5002C6.47453 12.4562 8.06019 14.0418 10.0162 14.0418C11.9722 14.0418 13.5579 12.4562 13.5579 10.5002C13.5579 8.54415 11.9722 6.9585 10.0162 6.9585ZM7.72453 10.5002C7.72453 9.23451 8.75054 8.2085 10.0162 8.2085C11.2818 8.2085 12.3079 9.23451 12.3079 10.5002C12.3079 11.7658 11.2818 12.7918 10.0162 12.7918C8.75054 12.7918 7.72453 11.7658 7.72453 10.5002Z" fill="#111111"/>
<path fill-rule="evenodd" clip-rule="evenodd" d="M10.546 1.54834H9.5581C9.29419 1.54831 9.04618 1.54828 8.83833 1.57206C8.60671 1.59855 8.36314 1.65983 8.13587 1.82396C7.9087 1.98801 7.77387 2.19991 7.6757 2.41134C7.58753 2.60124 7.50919 2.83684 7.42573 3.0878L7.41646 3.11567L7.14333 3.9314C7.06439 4.13038 6.92629 4.29997 6.74804 4.41725L6.49605 4.56264C6.28513 4.66758 6.04495 4.69748 5.81493 4.64752L4.81466 4.36578L4.78527 4.35744C4.51193 4.27984 4.25632 4.20727 4.03621 4.17232C3.79141 4.13345 3.52361 4.12849 3.24669 4.24112C2.96986 4.35371 2.78149 4.54413 2.63319 4.7427C2.49975 4.92137 2.367 5.1518 2.22495 5.3984L1.78327 6.16492C1.65019 6.39581 1.5253 6.61248 1.44153 6.80594C1.34825 7.02136 1.27944 7.26457 1.3089 7.54504C1.33837 7.82555 1.45624 8.04913 1.59229 8.24044C1.71446 8.41222 1.88165 8.59811 2.05979 8.79617L2.07847 8.81694L2.07957 8.81816L2.92218 9.76021C3.0275 9.9029 3.1376 10.2131 3.1376 10.5065C3.1376 10.8003 3.02753 11.1104 2.9222 11.2531L2.07958 12.1951L2.07848 12.1963L2.05979 12.2171C1.88166 12.4152 1.71446 12.6011 1.59229 12.7728C1.45624 12.9642 1.33837 13.1877 1.3089 13.4682C1.27943 13.7487 1.34825 13.9919 1.44153 14.2073C1.5253 14.4008 1.65019 14.6175 1.78327 14.8484L2.22494 15.6149C2.367 15.8615 2.49974 16.0919 2.63318 16.2706C2.78148 16.4691 2.96986 16.6596 3.2467 16.7722C3.52362 16.8848 3.79142 16.8798 4.03622 16.841C4.25634 16.806 4.51195 16.7334 4.7853 16.6558L4.81419 16.6476L5.81489 16.3657C6.04496 16.3157 6.2852 16.3457 6.49615 16.4507L6.74808 16.5961C6.9263 16.7133 7.06437 16.8829 7.1433 17.0819L7.41646 17.8977L7.42573 17.9256C7.50919 18.1765 7.58753 18.4121 7.6757 18.602C7.77387 18.8134 7.9087 19.0253 8.13587 19.1894C8.36314 19.3535 8.60671 19.4148 8.83833 19.4413C9.04619 19.4651 9.2942 19.465 9.55812 19.465H10.5459C10.8099 19.465 11.0579 19.4651 11.2657 19.4413C11.4974 19.4148 11.7409 19.3535 11.9682 19.1894C12.1954 19.0253 12.3302 18.8134 12.4284 18.602C12.5165 18.4121 12.5949 18.1765 12.6783 17.9256L12.6876 17.8977L12.9608 17.0819C13.0397 16.8829 13.1778 16.7133 13.356 16.5961L13.6079 16.4507C13.8189 16.3457 14.0591 16.3157 14.2892 16.3657L15.2899 16.6476L15.3188 16.6558C15.5921 16.7334 15.8477 16.806 16.0678 16.841C16.3126 16.8798 16.5805 16.8848 16.8574 16.7722C17.1342 16.6596 17.3226 16.4691 17.4709 16.2706C17.6043 16.0919 17.7371 15.8615 17.8791 15.6149L18.3208 14.8484C18.4539 14.6175 18.5788 14.4008 18.6625 14.2073C18.7558 13.9919 18.8246 13.7487 18.7952 13.4682C18.7657 13.1877 18.6478 12.9642 18.5118 12.7728C18.3896 12.6011 18.2224 12.4152 18.0443 12.2172L18.0256 12.1963L17.1819 11.2531C17.0765 11.1104 16.9665 10.8003 16.9665 10.5065C16.9665 10.2131 17.0766 9.9029 17.1819 9.7602L18.0245 8.81816L18.0256 8.81694L18.0443 8.79617C18.2224 8.59811 18.3896 8.41222 18.5118 8.24044C18.6478 8.04913 18.7657 7.82555 18.7952 7.54504C18.8246 7.26456 18.7558 7.02136 18.6625 6.80594C18.5788 6.61249 18.4539 6.39583 18.3208 6.16495L17.8791 5.39837C17.7371 5.15178 17.6043 4.92136 17.4709 4.7427C17.3226 4.54413 17.1342 4.35371 16.8574 4.24112C16.5805 4.12849 16.3127 4.13345 16.0679 4.17232C15.8478 4.20727 15.5921 4.27984 15.3188 4.35744L15.2899 4.36564L14.2891 4.64752C14.0591 4.69748 13.8189 4.66758 13.608 4.56264L13.356 4.41725C13.1778 4.29996 13.0397 4.13037 12.9607 3.93139L12.6872 3.11452L12.6783 3.08776C12.5949 2.83682 12.5165 2.60123 12.4284 2.41134C12.3302 2.19991 12.1954 1.98801 11.9682 1.82396C11.7409 1.65983 11.4974 1.59855 11.2657 1.57206C11.0579 1.54828 10.8099 1.54831 10.546 1.54834ZM8.86702 2.83792L8.8677 2.83733C8.8677 2.83733 8.87188 2.83519 8.87844 2.83302C8.89262 2.82832 8.92259 2.82057 8.98039 2.81396C9.10859 2.79929 9.28381 2.79834 9.58754 2.79834H10.5165C10.8203 2.79834 10.9955 2.79929 11.1237 2.81396C11.1815 2.82057 11.2114 2.82832 11.2256 2.83302C11.2322 2.83519 11.2364 2.83733 11.2364 2.83733L11.2371 2.83792C11.2371 2.83792 11.2399 2.84078 11.2441 2.84641C11.2531 2.85855 11.27 2.88475 11.2946 2.93773C11.3491 3.05515 11.4055 3.22161 11.5015 3.51026L11.7845 4.35535L11.7893 4.36794C11.9644 4.8245 12.2809 5.21314 12.6926 5.47682L12.7048 5.48463L13.0112 5.66146L13.0248 5.66841C13.505 5.91514 14.0569 5.98398 14.5829 5.86267L14.5975 5.8593L15.63 5.5685C15.9439 5.47941 16.1266 5.42866 16.2639 5.40686C16.326 5.397 16.3592 5.39667 16.375 5.39762C16.3823 5.39806 16.386 5.39886 16.386 5.39886L16.387 5.39928C16.387 5.39928 16.3903 5.40134 16.3958 5.40615C16.4079 5.41661 16.4316 5.44017 16.4694 5.4907C16.5528 5.60235 16.6485 5.76645 16.8116 6.04954L17.223 6.76337C17.376 7.02892 17.4636 7.1829 17.5155 7.30265C17.5389 7.3567 17.5473 7.38703 17.5503 7.40207C17.5518 7.40903 17.552 7.41321 17.552 7.41321L17.552 7.41444L17.5518 7.41563C17.5518 7.41563 17.5507 7.41963 17.5478 7.42613C17.5417 7.44015 17.5272 7.46804 17.4931 7.51599C17.4175 7.62226 17.2999 7.75455 17.095 7.98237L17.0939 7.98359L16.222 8.95844L16.2101 8.97345C15.8981 9.36845 15.7165 9.97545 15.7165 10.5065C15.7165 11.0379 15.898 11.6447 16.2101 12.0398L16.2219 12.0548L17.095 13.0309C17.2999 13.2587 17.4175 13.391 17.4931 13.4973C17.5272 13.5452 17.5417 13.5731 17.5478 13.5872C17.5507 13.5937 17.5518 13.5977 17.5518 13.5977L17.552 13.5988L17.552 13.6001C17.552 13.6001 17.5518 13.6043 17.5503 13.6112C17.5473 13.6263 17.5389 13.6566 17.5155 13.7106C17.4636 13.8304 17.376 13.9844 17.223 14.2499L16.8117 14.9637C16.6485 15.2468 16.5528 15.4109 16.4694 15.5226C16.4316 15.5731 16.408 15.5967 16.3958 15.6071C16.3903 15.6119 16.387 15.614 16.387 15.614L16.386 15.6144C16.386 15.6144 16.3823 15.6152 16.375 15.6157C16.3592 15.6166 16.326 15.6163 16.2639 15.6064C16.1266 15.5846 15.9439 15.5339 15.63 15.4448L14.5976 15.154L14.583 15.1506C14.0568 15.0292 13.5048 15.0981 13.0246 15.3449L13.011 15.3519L12.7046 15.5287L12.6924 15.5366C12.2808 15.8002 11.9644 16.1888 11.7893 16.6453L11.7845 16.6579L11.5019 17.502L11.5015 17.5031C11.4055 17.7917 11.3491 17.9582 11.2946 18.0756C11.27 18.1286 11.2531 18.1548 11.2441 18.167C11.2399 18.1726 11.2371 18.1754 11.2371 18.1754L11.2357 18.1764C11.2357 18.1764 11.2345 18.177 11.2322 18.1779C11.2306 18.1786 11.2284 18.1794 11.2256 18.1803C11.2114 18.185 11.1815 18.1928 11.1237 18.1994C10.9955 18.2141 10.8203 18.215 10.5165 18.215H9.58754C9.28381 18.215 9.10859 18.2141 8.98039 18.1994C8.92259 18.1928 8.89262 18.185 8.87844 18.1803C8.87188 18.1782 8.8677 18.176 8.8677 18.176L8.86702 18.1754C8.86702 18.1754 8.86419 18.1726 8.86001 18.167C8.85096 18.1548 8.83406 18.1286 8.80946 18.0756C8.75494 17.9582 8.69857 17.7917 8.60255 17.5031L8.31956 16.6579L8.31473 16.6453C8.13964 16.1888 7.82327 15.8002 7.41165 15.5366L7.39946 15.5287L7.09305 15.3519L7.07951 15.3449C6.59924 15.0981 6.04725 15.0292 5.5211 15.1506L5.5065 15.154L4.4741 15.4448C4.16015 15.5339 3.9775 15.5846 3.84019 15.6064C3.77809 15.6163 3.74486 15.6166 3.72905 15.6157C3.72179 15.6152 3.71811 15.6144 3.71811 15.6144L3.7171 15.614C3.7171 15.614 3.71382 15.6119 3.70825 15.6071C3.69612 15.5967 3.67242 15.5731 3.63468 15.5226C3.55128 15.4109 3.45553 15.2468 3.29241 14.9637L2.8811 14.2499C2.72809 13.9844 2.64046 13.8304 2.58861 13.7106C2.5652 13.6566 2.55681 13.6263 2.55373 13.6112C2.5523 13.6043 2.55204 13.6001 2.55204 13.6001L2.55206 13.5988L2.55229 13.5977C2.55229 13.5977 2.55341 13.5937 2.55624 13.5872C2.56237 13.5731 2.57685 13.5452 2.61096 13.4973C2.68653 13.391 2.80421 13.2587 3.00906 13.0309L3.01016 13.0297L3.88213 12.0548L3.89399 12.0398C4.20605 11.6447 4.3876 11.0379 4.3876 10.5065C4.3876 9.97545 4.20598 9.36845 3.89397 8.97345L3.88211 8.95844L3.01016 7.98359L3.00906 7.98237C2.8042 7.75455 2.68653 7.62226 2.61096 7.51599C2.57685 7.46804 2.56236 7.44015 2.55624 7.42613C2.55341 7.41963 2.55229 7.41563 2.55229 7.41563L2.55206 7.41444L2.55203 7.41321C2.55203 7.41321 2.5523 7.40903 2.55373 7.40207C2.55681 7.38703 2.5652 7.3567 2.5886 7.30265C2.64046 7.1829 2.72809 7.02892 2.8811 6.76337L3.29242 6.04954C3.45554 5.76645 3.55129 5.60235 3.63469 5.4907C3.67243 5.44017 3.69612 5.41661 3.70825 5.40615C3.71382 5.40134 3.7171 5.39928 3.7171 5.39928L3.71812 5.39886C3.71812 5.39886 3.72179 5.39806 3.72906 5.39762C3.74487 5.39667 3.7781 5.397 3.8402 5.40686C3.9775 5.42866 4.16015 5.47941 4.4741 5.5685L5.50655 5.8593L5.52114 5.86267C6.0472 5.98398 6.59909 5.91514 7.0793 5.66841L7.09284 5.66146L7.3993 5.48463L7.41149 5.47682C7.82319 5.21314 8.13964 4.8245 8.31475 4.36794L8.31958 4.35535L8.60255 3.51026C8.69857 3.22161 8.75494 3.05515 8.80946 2.93773C8.83406 2.88475 8.85096 2.85855 8.86001 2.84641C8.86419 2.84078 8.86702 2.83792 8.86702 2.83792Z" fill="#111111"/>
</svg>
