<svg width="20" height="20" viewBox="0 0 20 20" fill="none" xmlns="http://www.w3.org/2000/svg">
<path d="M13.3333 11.875C13.6785 11.875 13.9583 11.5952 13.9583 11.25C13.9583 10.9049 13.6785 10.625 13.3333 10.625H6.66663C6.32145 10.625 6.04163 10.9049 6.04163 11.25C6.04163 11.5952 6.32145 11.875 6.66663 11.875H13.3333Z" fill="#161616"/>
<path d="M9.99996 7.70837C10.3451 7.70837 10.625 7.42855 10.625 7.08337C10.625 6.7382 10.3451 6.45837 9.99996 6.45837H6.66663C6.32145 6.45837 6.04163 6.7382 6.04163 7.08337C6.04163 7.42855 6.32145 7.70837 6.66663 7.70837H9.99996Z" fill="#161616"/>
<path fill-rule="evenodd" clip-rule="evenodd" d="M11.7136 1.45837H8.28628C6.75482 1.45836 5.54178 1.45835 4.59244 1.58599C3.61542 1.71734 2.82463 1.99411 2.201 2.61774C1.57736 3.24138 1.3006 4.03217 1.16924 5.00919C1.0416 5.95853 1.04161 7.17156 1.04163 8.70302V9.21372C1.04161 10.7452 1.0416 11.9582 1.16924 12.9076C1.3006 13.8846 1.57736 14.6754 2.201 15.299C2.7448 15.8428 3.47207 16.1819 4.33791 16.3551C4.29436 16.6467 4.27369 16.959 4.3138 17.2564C4.36319 17.6225 4.5148 18.0264 4.8897 18.3056L4.89537 18.3097C5.35386 18.6432 5.87891 18.5573 6.30087 18.421C6.72005 18.2857 7.24129 18.0315 7.85473 17.7324L7.89878 17.7109C8.05411 17.6351 8.20625 17.5595 8.35605 17.485C9.1295 17.1005 9.8403 16.7472 10.6016 16.5718C10.9102 16.5016 11.2351 16.4684 11.6737 16.4584H11.7136C13.2451 16.4584 14.4581 16.4584 15.4075 16.3308C16.3845 16.1994 17.1753 15.9226 17.7989 15.299C18.4226 14.6754 18.6993 13.8846 18.8307 12.9076C18.9583 11.9582 18.9583 10.7452 18.9583 9.21376V8.70303C18.9583 7.17158 18.9583 5.95853 18.8307 5.00919C18.6993 4.03217 18.4226 3.24138 17.7989 2.61774C17.1753 1.99411 16.3845 1.71734 15.4075 1.58599C14.4581 1.45835 13.2451 1.45836 11.7136 1.45837ZM5.81194 15.5269C5.76969 15.6765 5.72825 15.8269 5.69094 15.9758C5.68943 15.9823 5.68782 15.9887 5.68612 15.9951C5.65201 16.1324 5.62155 16.2683 5.59733 16.4009C5.54472 16.689 5.52979 16.9204 5.55258 17.0893C5.56993 17.2178 5.60247 17.2695 5.62313 17.2913C5.65449 17.2937 5.73819 17.2892 5.91684 17.2315C6.24089 17.1269 6.68135 16.9138 7.35092 16.5873C7.48588 16.5215 7.62428 16.4525 7.76585 16.3818C8.53692 15.9971 9.40265 15.5651 10.3219 15.3535L10.3233 15.3532C10.7438 15.2574 11.161 15.2195 11.6527 15.2085L11.6597 15.2084H11.6666C13.2556 15.2084 14.3845 15.207 15.2409 15.0919C16.0793 14.9792 16.5624 14.7678 16.915 14.4151C17.2677 14.0624 17.4791 13.5794 17.5918 12.741C17.707 11.8846 17.7083 10.7557 17.7083 9.16671V8.75004C17.7083 7.16103 17.707 6.03214 17.5918 5.17575C17.4791 4.33734 17.2677 3.8543 16.915 3.50163C16.5624 3.14895 16.0793 2.93756 15.2409 2.82484C14.3845 2.7097 13.2556 2.70837 11.6666 2.70837H8.33329C6.74428 2.70837 5.61539 2.7097 4.759 2.82484C3.92059 2.93756 3.43755 3.14895 3.08488 3.50163C2.7322 3.8543 2.52081 4.33734 2.40809 5.17575C2.29295 6.03214 2.29163 7.16103 2.29163 8.75004V9.16671C2.29163 10.7557 2.29295 11.8846 2.40809 12.741C2.52081 13.5794 2.7322 14.0624 3.08488 14.4151C3.41655 14.7468 3.91175 15.0013 4.62309 15.1373L4.65166 15.0367C4.71993 14.7966 4.77369 14.6074 4.80437 14.4578C4.87372 14.1197 5.20405 13.9018 5.54219 13.9711C5.88033 14.0405 6.09823 14.3708 6.02888 14.7089C5.98786 14.909 5.91791 15.1545 5.85002 15.3928L5.81194 15.5269ZM5.60762 17.2882C5.60795 17.2878 5.6113 17.2883 5.61665 17.2906C5.60996 17.2897 5.60729 17.2885 5.60762 17.2882Z" fill="#161616"/>
</svg>
