<svg width="18" height="18" viewBox="0 0 18 18" fill="none" xmlns="http://www.w3.org/2000/svg">
<path d="M12.3333 10.875C12.6785 10.875 12.9583 10.5952 12.9583 10.25C12.9583 9.9048 12.6785 9.62498 12.3333 9.62498H5.66663C5.32145 9.62498 5.04163 9.9048 5.04163 10.25C5.04163 10.5952 5.32145 10.875 5.66663 10.875H12.3333Z" fill="#FDFDFD"/>
<path d="M8.99996 6.70831C9.34514 6.70831 9.62496 6.42849 9.62496 6.08331C9.62496 5.73814 9.34514 5.45831 8.99996 5.45831H5.66663C5.32145 5.45831 5.04163 5.73814 5.04163 6.08331C5.04163 6.42849 5.32145 6.70831 5.66663 6.70831H8.99996Z" fill="#FDFDFD"/>
<path fill-rule="evenodd" clip-rule="evenodd" d="M10.7136 0.458313H7.28628C5.75482 0.4583 4.54178 0.45829 3.59244 0.585926C2.61542 0.717283 1.82463 0.994047 1.201 1.61768C0.57736 2.24132 0.300596 3.03211 0.169239 4.00913C0.041603 4.95847 0.0416133 6.17149 0.0416262 7.70296V8.21366C0.0416133 9.74512 0.041603 10.9582 0.169239 11.9075C0.300596 12.8845 0.57736 13.6753 1.201 14.2989C1.7448 14.8427 2.47207 15.1818 3.33791 15.355C3.29436 15.6467 3.27369 15.959 3.3138 16.2563C3.36319 16.6224 3.5148 17.0263 3.8897 17.3055L3.89537 17.3097C4.35386 17.6432 4.87891 17.5572 5.30087 17.421C5.72005 17.2857 6.24129 17.0315 6.85473 16.7323L6.89878 16.7108C7.05411 16.6351 7.20626 16.5594 7.35605 16.485C8.1295 16.1005 8.8403 15.7471 9.60164 15.5717C9.9102 15.5015 10.2351 15.4684 10.6737 15.4583H10.7136C12.2451 15.4583 13.4581 15.4583 14.4075 15.3307C15.3845 15.1993 16.1753 14.9226 16.7989 14.2989C17.4226 13.6753 17.6993 12.8845 17.8307 11.9075C17.9583 10.9582 17.9583 9.74515 17.9583 8.21369V7.70297C17.9583 6.17152 17.9583 4.95847 17.8307 4.00913C17.6993 3.03211 17.4226 2.24132 16.7989 1.61768C16.1753 0.994047 15.3845 0.717283 14.4075 0.585926C13.4581 0.45829 12.2451 0.4583 10.7136 0.458313ZM4.81194 14.5268C4.76969 14.6764 4.72825 14.8268 4.69094 14.9757C4.68943 14.9822 4.68782 14.9886 4.68612 14.995C4.65201 15.1323 4.62155 15.2682 4.59733 15.4008C4.54472 15.6889 4.52979 15.9203 4.55258 16.0892C4.56993 16.2178 4.60247 16.2694 4.62313 16.2912C4.65449 16.2936 4.73819 16.2891 4.91684 16.2314C5.24089 16.1268 5.68135 15.9138 6.35092 15.5873C6.48588 15.5215 6.62428 15.4524 6.76585 15.3818C7.53692 14.997 8.40265 14.5651 9.3219 14.3534L9.32331 14.3531C9.74384 14.2573 10.161 14.2194 10.6527 14.2085L10.6597 14.2083H10.6666C12.2556 14.2083 13.3845 14.207 14.2409 14.0918C15.0793 13.9791 15.5624 13.7677 15.915 13.4151C16.2677 13.0624 16.4791 12.5793 16.5918 11.7409C16.707 10.8846 16.7083 9.75566 16.7083 8.16665V7.74998C16.7083 6.16096 16.707 5.03207 16.5918 4.17569C16.4791 3.33728 16.2677 2.85424 15.915 2.50157C15.5624 2.14889 15.0793 1.9375 14.2409 1.82478C13.3845 1.70964 12.2556 1.70831 10.6666 1.70831H7.33329C5.74428 1.70831 4.61539 1.70964 3.759 1.82478C2.92059 1.9375 2.43755 2.14889 2.08488 2.50157C1.7322 2.85424 1.52081 3.33728 1.40809 4.17569C1.29295 5.03207 1.29163 6.16096 1.29163 7.74998V8.16665C1.29163 9.75566 1.29295 10.8846 1.40809 11.7409C1.52081 12.5793 1.7322 13.0624 2.08488 13.4151C2.41655 13.7467 2.91175 14.0012 3.62309 14.1373L3.65166 14.0367C3.71993 13.7965 3.77369 13.6074 3.80437 13.4578C3.87372 13.1196 4.20405 12.9017 4.54219 12.9711C4.88033 13.0404 5.09823 13.3707 5.02888 13.7089C4.98786 13.9089 4.91791 14.1544 4.85002 14.3928L4.81194 14.5268ZM4.60762 16.2881C4.60796 16.2877 4.6113 16.2882 4.61665 16.2905C4.60996 16.2896 4.60728 16.2885 4.60762 16.2881Z" fill="#FDFDFD"/>
</svg>
