<svg width="20" height="20" viewBox="0 0 20 20" fill="none" xmlns="http://www.w3.org/2000/svg">
<path d="M6.25004 10.6257C5.90504 10.6257 5.62504 10.3457 5.62504 10.0007C5.62504 9.65573 5.90504 9.37573 6.25004 9.37573H11.25C11.595 9.37573 11.875 9.65573 11.875 10.0007C11.875 10.3457 11.595 10.6257 11.25 10.6257H6.25004Z" fill="#161616"/>
<path d="M8.75004 7.2924H6.25004C5.90504 7.2924 5.62504 7.0124 5.62504 6.6674C5.62504 6.3224 5.90504 6.0424 6.25004 6.0424H8.75004C9.09504 6.0424 9.37504 6.3224 9.37504 6.6674C9.37504 7.0124 9.09504 7.2924 8.75004 7.2924Z" fill="#161616"/>
<path fill-rule="evenodd" clip-rule="evenodd" d="M3.16945 15.6265H3.17082C4.04749 15.6265 4.75913 15.4041 5.39747 14.9333L5.44914 14.8957L5.46711 14.8828C5.51502 14.8484 5.5645 14.8128 5.60669 14.7832C5.69836 14.8182 5.81999 14.869 5.92082 14.9115C6.29582 15.0657 6.73665 15.1674 7.16749 15.199C8.21748 15.2674 9.28252 15.2674 10.3325 15.199H10.3342C13.5908 14.9791 16.2125 12.3424 16.4325 9.0616C16.4675 8.4641 16.4675 7.82821 16.4325 7.21655C16.2125 3.93655 13.59 1.30409 10.3333 1.09326C9.28251 1.02409 8.2183 1.02409 7.1683 1.09326C3.91163 1.30492 1.2892 3.93739 1.06836 7.22322C1.03336 7.82822 1.03336 8.46403 1.06836 9.06819C1.14086 10.114 1.5375 11.1683 2.28166 12.2908C2.47666 12.6658 2.26002 13.2374 2.04086 13.6558C1.73836 14.2099 1.50084 14.6483 1.77417 15.1274C1.77536 15.1304 1.77698 15.1329 1.77872 15.1357C1.77942 15.1368 1.78013 15.1379 1.78085 15.1391C2.061 15.6063 2.55014 15.6157 3.0679 15.6257L3.0717 15.6257C3.10512 15.6265 3.13688 15.6265 3.16945 15.6265ZM3.09498 14.3757H3.07251C3.09585 14.3332 3.11831 14.2907 3.13998 14.2507C3.14081 14.2482 3.14254 14.2449 3.14421 14.2424C3.67921 13.2249 3.75251 12.3565 3.36084 11.6615C3.35359 11.6486 3.34556 11.6358 3.3375 11.6229L3.33667 11.6216C2.70667 10.6766 2.37251 9.81322 2.31584 8.99072C2.28417 8.44072 2.28417 7.8549 2.31584 7.3024C2.49501 4.64574 4.61584 2.5132 7.25 2.34236C8.245 2.27653 9.25496 2.27736 10.2516 2.34236C12.8858 2.5132 15.0066 4.6449 15.185 7.29573C15.2166 7.85406 15.2166 8.43986 15.185 8.98486C15.0066 11.639 12.885 13.7749 10.25 13.9532C9.25417 14.0182 8.24499 14.0182 7.25416 13.9532C6.96082 13.9315 6.64832 13.8599 6.39999 13.7582C5.94416 13.5665 5.70749 13.4674 5.44166 13.5066C5.19999 13.5366 5.01664 13.6683 4.71997 13.8816L4.66252 13.9224C4.22085 14.2474 3.73748 14.3857 3.09498 14.3757Z" fill="#161616"/>
<path d="M16.9186 18.9599C16.107 18.9599 15.4145 18.7467 14.8036 18.3083C14.7378 18.26 14.6728 18.2125 14.6187 18.1741C14.5203 18.2116 14.3995 18.2616 14.3404 18.2866C13.9979 18.4291 13.5804 18.5258 13.1654 18.5574H13.1562C12.187 18.6166 11.1579 18.6166 10.1795 18.5574C8.88038 18.4674 7.70616 17.9942 6.68532 17.1483C6.41949 16.9283 6.38288 16.5341 6.60288 16.2683C6.82288 16.0025 7.21702 15.9658 7.48285 16.1858C8.29785 16.8608 9.23202 17.2391 10.2604 17.31C11.1812 17.3666 12.1561 17.3666 13.0745 17.31C13.3545 17.2883 13.6412 17.2233 13.8604 17.1316C14.3004 16.9491 14.5229 16.8633 14.7629 16.8866C14.7795 16.8883 14.797 16.8908 14.8137 16.8941C15.0462 16.9366 15.2212 17.0641 15.537 17.2966C15.9279 17.5766 16.3695 17.7099 16.9178 17.7099H16.9545L16.9419 17.6862C16.9357 17.6742 16.9294 17.6623 16.9229 17.6508L16.9145 17.635C16.2662 16.4392 16.4445 15.64 16.7087 15.1808C16.7153 15.1691 16.7228 15.1575 16.7303 15.1458C17.3228 14.2575 17.6353 13.4549 17.6853 12.6933C17.717 12.1841 17.717 11.6383 17.6853 11.1175C17.6403 10.5133 17.4987 9.9433 17.2645 9.42413C17.1228 9.10913 17.2628 8.73914 17.5778 8.59747C17.892 8.4558 18.2628 8.59578 18.4045 8.91078C18.6995 9.56495 18.877 10.2783 18.9329 11.0299V11.0383C18.9679 11.61 18.9679 12.2091 18.9329 12.7724C18.8687 13.7549 18.4929 14.7499 17.7845 15.8183C17.5987 16.1683 17.8487 16.735 18.017 17.045L18.0287 17.0666C18.3095 17.5975 18.5312 18.0166 18.267 18.4725C17.9962 18.94 17.497 18.95 17.0137 18.9591C16.9979 18.9591 16.982 18.9593 16.9662 18.9595C16.9503 18.9597 16.9345 18.9599 16.9186 18.9599Z" fill="#161616"/>
</svg>
