<svg width="18" height="18" viewBox="0 0 18 18" fill="none" xmlns="http://www.w3.org/2000/svg">
<path d="M5.25004 9.62573C4.90504 9.62573 4.62504 9.34573 4.62504 9.00073C4.62504 8.65573 4.90504 8.37573 5.25004 8.37573H10.25C10.595 8.37573 10.875 8.65573 10.875 9.00073C10.875 9.34573 10.595 9.62573 10.25 9.62573H5.25004Z" fill="#FDFDFD"/>
<path d="M7.75004 6.2924H5.25004C4.90504 6.2924 4.62504 6.0124 4.62504 5.6674C4.62504 5.3224 4.90504 5.0424 5.25004 5.0424H7.75004C8.09504 5.0424 8.37504 5.3224 8.37504 5.6674C8.37504 6.0124 8.09504 6.2924 7.75004 6.2924Z" fill="#FDFDFD"/>
<path fill-rule="evenodd" clip-rule="evenodd" d="M2.16945 14.6265H2.17082C3.04749 14.6265 3.75913 14.4041 4.39747 13.9333L4.44914 13.8957L4.46711 13.8828C4.51502 13.8484 4.5645 13.8128 4.60669 13.7832C4.69836 13.8182 4.81999 13.869 4.92082 13.9115C5.29582 14.0657 5.73665 14.1674 6.16749 14.199C7.21748 14.2674 8.28252 14.2674 9.33252 14.199H9.33415C12.5908 13.9791 15.2125 11.3424 15.4325 8.0616C15.4675 7.4641 15.4675 6.82821 15.4325 6.21655C15.2125 2.93655 12.59 0.30409 9.33334 0.0932568C8.28251 0.0240902 7.2183 0.0240902 6.1683 0.0932568C2.91163 0.304924 0.289198 2.93739 0.0683643 6.22322C0.0333643 6.82822 0.0333643 7.46403 0.0683643 8.06819C0.140864 9.11403 0.537495 10.1683 1.28166 11.2908C1.47666 11.6658 1.26002 12.2374 1.04086 12.6558C0.738358 13.2099 0.500841 13.6483 0.774175 14.1274C0.775364 14.1304 0.776981 14.1329 0.778719 14.1357C0.779416 14.1368 0.780132 14.1379 0.780848 14.1391C1.061 14.6063 1.55014 14.6157 2.0679 14.6257L2.0717 14.6257C2.10512 14.6265 2.13688 14.6265 2.16945 14.6265ZM2.09498 13.3757H2.07251C2.09585 13.3332 2.11831 13.2907 2.13998 13.2507C2.14081 13.2482 2.14254 13.2449 2.14421 13.2424C2.67921 12.2249 2.75251 11.3565 2.36084 10.6615C2.35359 10.6486 2.34556 10.6358 2.3375 10.6229L2.33667 10.6216C1.70667 9.67658 1.37251 8.81322 1.31584 7.99072C1.28417 7.44072 1.28417 6.8549 1.31584 6.3024C1.49501 3.64574 3.61584 1.5132 6.25 1.34236C7.245 1.27653 8.25496 1.27736 9.25163 1.34236C11.8858 1.5132 14.0066 3.6449 14.185 6.29573C14.2166 6.85406 14.2166 7.43986 14.185 7.98486C14.0066 10.639 11.885 12.7749 9.25 12.9532C8.25417 13.0182 7.24499 13.0182 6.25416 12.9532C5.96082 12.9315 5.64832 12.8599 5.39999 12.7582C4.94416 12.5665 4.70749 12.4674 4.44166 12.5066C4.19999 12.5366 4.01664 12.6683 3.71997 12.8816L3.66252 12.9224C3.22085 13.2474 2.73748 13.3857 2.09498 13.3757Z" fill="#FDFDFD"/>
<path d="M15.9186 17.9599C15.107 17.9599 14.4145 17.7467 13.8036 17.3083C13.7378 17.26 13.6728 17.2125 13.6187 17.1741C13.5203 17.2116 13.3995 17.2616 13.3404 17.2866C12.9979 17.4291 12.5804 17.5258 12.1654 17.5574H12.1562C11.187 17.6166 10.1579 17.6166 9.17954 17.5574C7.88038 17.4674 6.70616 16.9942 5.68532 16.1483C5.41949 15.9283 5.38288 15.5341 5.60288 15.2683C5.82288 15.0025 6.21702 14.9658 6.48285 15.1858C7.29785 15.8608 8.23202 16.2391 9.26035 16.31C10.1812 16.3666 11.1561 16.3666 12.0745 16.31C12.3545 16.2883 12.6412 16.2233 12.8604 16.1316C13.3004 15.9491 13.5229 15.8633 13.7629 15.8866C13.7795 15.8883 13.797 15.8908 13.8137 15.8941C14.0462 15.9366 14.2212 16.0641 14.537 16.2966C14.9279 16.5766 15.3695 16.7099 15.9178 16.7099H15.9545L15.9419 16.6862C15.9357 16.6742 15.9294 16.6623 15.9229 16.6508L15.9145 16.635C15.2662 15.4392 15.4445 14.64 15.7087 14.1808C15.7153 14.1691 15.7228 14.1575 15.7303 14.1458C16.3228 13.2575 16.6353 12.4549 16.6853 11.6933C16.717 11.1841 16.717 10.6383 16.6853 10.1175C16.6403 9.51332 16.4987 8.9433 16.2645 8.42413C16.1228 8.10913 16.2628 7.73914 16.5778 7.59747C16.892 7.4558 17.2628 7.59578 17.4045 7.91078C17.6995 8.56495 17.877 9.27826 17.9329 10.0299V10.0383C17.9679 10.61 17.9679 11.2091 17.9329 11.7724C17.8687 12.7549 17.4929 13.7499 16.7845 14.8183C16.5987 15.1683 16.8487 15.735 17.017 16.045L17.0287 16.0666C17.3095 16.5975 17.5312 17.0166 17.267 17.4725C16.9962 17.94 16.497 17.95 16.0137 17.9591C15.9979 17.9591 15.982 17.9593 15.9662 17.9595C15.9503 17.9597 15.9345 17.9599 15.9186 17.9599Z" fill="#FDFDFD"/>
</svg>
