<svg width="20" height="20" viewBox="0 0 20 20" fill="none" xmlns="http://www.w3.org/2000/svg">
<path fill-rule="evenodd" clip-rule="evenodd" d="M10.015 5.61892C8.7494 5.61892 7.72341 6.64491 7.72341 7.91053C7.72341 9.17616 8.7494 10.2021 10.015 10.2021C11.2807 10.2021 12.3066 9.17616 12.3066 7.91053C12.3066 6.64491 11.2807 5.61892 10.015 5.61892ZM8.97341 7.91053C8.97341 7.33526 9.43976 6.86892 10.015 6.86892C10.5903 6.86892 11.0566 7.33526 11.0566 7.91053C11.0566 8.4858 10.5903 8.95215 10.015 8.95215C9.43976 8.95215 8.97341 8.4858 8.97341 7.91053Z" fill="#FDFDFD"/>
<path fill-rule="evenodd" clip-rule="evenodd" d="M10.0157 11.4395C8.81843 11.4383 7.2068 12.032 6.19499 13.5897C6.04575 13.8194 5.95949 14.1803 6.15345 14.5243C6.2925 14.7708 6.54561 15.0911 6.82413 15.3578C6.96615 15.4937 7.12933 15.6299 7.30368 15.7395C7.47047 15.8444 7.6911 15.9529 7.94095 15.9795C8.50931 16.0399 9.97117 16.0475 10.0128 16.0477L10.0201 16.0477C10.0638 16.0474 11.4805 16.0398 12.0481 15.9795C12.2979 15.9529 12.5185 15.8444 12.6853 15.7395C12.8597 15.6299 13.0229 15.4937 13.1649 15.3578C13.4434 15.0911 13.6965 14.7708 13.8356 14.5243C14.0295 14.1803 13.9433 13.8194 13.794 13.5897C12.7853 12.0367 11.2182 11.4408 10.0157 11.4395ZM7.68856 14.4549C7.56216 14.3339 7.44992 14.2035 7.3661 14.093C8.12013 13.0691 9.22872 12.6887 10.0144 12.6895C10.7952 12.6904 11.87 13.0651 12.6231 14.0928C12.5392 14.2033 12.4269 14.3338 12.3005 14.4549C12.1988 14.5522 12.1022 14.6296 12.02 14.6813C11.9565 14.7213 11.9214 14.7333 11.9129 14.7362C11.9115 14.7367 11.9108 14.7369 11.9108 14.737C11.9109 14.7371 11.9125 14.7368 11.9158 14.7365C11.4307 14.7881 10.1111 14.7971 10.016 14.7977C9.9191 14.7971 8.56754 14.7881 8.07817 14.737C8.07819 14.7369 8.0775 14.7367 8.07611 14.7362C8.0676 14.7333 8.03256 14.7213 7.96904 14.6813C7.88678 14.6296 7.79024 14.5522 7.68856 14.4549Z" fill="#FDFDFD"/>
<path fill-rule="evenodd" clip-rule="evenodd" d="M7.29163 1.66669C7.29163 1.32151 7.0118 1.04169 6.66663 1.04169C6.32145 1.04169 6.04163 1.32151 6.04163 1.66669V2.84963L6.0257 2.85189C4.98519 3.00001 4.15198 3.31178 3.49958 4.00256C2.85193 4.68831 2.56394 5.55564 2.42627 6.63986C2.29161 7.70038 2.29162 9.05871 2.29163 10.7883V10.8784C2.29162 12.608 2.29161 13.9663 2.42627 15.0269C2.56394 16.1111 2.85193 16.9784 3.49958 17.6642C4.15199 18.3549 4.9852 18.6667 6.02571 18.8148C7.03415 18.9584 8.32285 18.9584 9.95023 18.9584H10.0496C11.677 18.9584 12.9658 18.9584 13.9742 18.8148C15.0147 18.6667 15.8479 18.3549 16.5003 17.6642C17.148 16.9784 17.436 16.1111 17.5736 15.0269C17.7083 13.9663 17.7083 12.608 17.7083 10.8785V10.7883C17.7083 9.05875 17.7083 7.70038 17.5736 6.63986C17.436 5.55564 17.148 4.68831 16.5003 4.00256C15.8479 3.31178 15.0147 3.00001 13.9742 2.85189L13.9583 2.84964V1.66669C13.9583 1.32151 13.6785 1.04169 13.3333 1.04169C12.9881 1.04169 12.7083 1.32151 12.7083 1.66669V2.74292C11.9438 2.70834 11.0623 2.70834 10.0496 2.70835H9.95027C8.93761 2.70834 8.05608 2.70834 7.29163 2.74292V1.66669ZM4.40834 4.86084C4.79326 4.45328 5.31349 4.21588 6.20187 4.08941C7.11207 3.95984 8.31172 3.95835 9.99996 3.95835C11.6882 3.95835 12.8878 3.95984 13.798 4.08941C14.6864 4.21588 15.2067 4.45328 15.5916 4.86084C15.9813 5.27345 16.2119 5.83918 16.3336 6.79731C16.4571 7.76994 16.4583 9.04888 16.4583 10.8334C16.4583 12.6178 16.4571 13.8968 16.3336 14.8694C16.2119 15.8275 15.9813 16.3933 15.5916 16.8059C15.2067 17.2134 14.6864 17.4508 13.798 17.5773C12.8878 17.7069 11.6882 17.7084 9.99996 17.7084C8.31172 17.7084 7.11206 17.7069 6.20187 17.5773C5.31349 17.4508 4.79326 17.2134 4.40834 16.8059C4.01866 16.3933 3.78798 15.8275 3.66631 14.8694C3.54281 13.8968 3.54163 12.6178 3.54163 10.8334C3.54163 9.04888 3.54281 7.76994 3.66631 6.79731C3.78798 5.83918 4.01866 5.27345 4.40834 4.86084Z" fill="#FDFDFD"/>
</svg>
