<svg width="20" height="20" viewBox="0 0 20 20" fill="none" xmlns="http://www.w3.org/2000/svg">
<path fill-rule="evenodd" clip-rule="evenodd" d="M10.015 5.61886C8.7494 5.61886 7.72341 6.64485 7.72341 7.91047C7.72341 9.1761 8.7494 10.2021 10.015 10.2021C11.2807 10.2021 12.3066 9.1761 12.3066 7.91047C12.3066 6.64485 11.2807 5.61886 10.015 5.61886ZM8.97341 7.91047C8.97341 7.3352 9.43976 6.86886 10.015 6.86886C10.5903 6.86886 11.0566 7.3352 11.0566 7.91047C11.0566 8.48574 10.5903 8.95209 10.015 8.95209C9.43976 8.95209 8.97341 8.48574 8.97341 7.91047Z" fill="#161616"/>
<path fill-rule="evenodd" clip-rule="evenodd" d="M10.0157 11.4395C8.81843 11.4382 7.2068 12.0319 6.19499 13.5896C6.04575 13.8194 5.95949 14.1803 6.15345 14.5242C6.2925 14.7708 6.54561 15.0911 6.82413 15.3577C6.96615 15.4937 7.12933 15.6298 7.30368 15.7395C7.47047 15.8443 7.6911 15.9528 7.94095 15.9794C8.50931 16.0399 9.97117 16.0474 10.0128 16.0477L10.0201 16.0476C10.0638 16.0474 11.4805 16.0398 12.0481 15.9794C12.2979 15.9528 12.5185 15.8443 12.6853 15.7395C12.8597 15.6298 13.0229 15.4937 13.1649 15.3577C13.4434 15.0911 13.6965 14.7708 13.8356 14.5242C14.0295 14.1803 13.9433 13.8194 13.794 13.5896C12.7853 12.0367 11.2182 11.4407 10.0157 11.4395ZM7.68856 14.4548C7.56216 14.3338 7.44992 14.2035 7.3661 14.093C8.12013 13.069 9.22872 12.6887 10.0144 12.6895C10.7952 12.6903 11.87 13.065 12.6231 14.0928C12.5392 14.2033 12.4269 14.3337 12.3005 14.4548C12.1988 14.5521 12.1022 14.6295 12.02 14.6813C11.9565 14.7212 11.9214 14.7332 11.9129 14.7361C11.9115 14.7366 11.9108 14.7369 11.9108 14.7369C11.9109 14.737 11.9125 14.7368 11.9158 14.7364C11.4307 14.788 10.1111 14.7971 10.016 14.7976C9.9191 14.7971 8.56754 14.7881 8.07817 14.7369C8.07819 14.7369 8.0775 14.7366 8.07611 14.7361C8.0676 14.7332 8.03256 14.7212 7.96904 14.6813C7.88678 14.6295 7.79024 14.5521 7.68856 14.4548Z" fill="#161616"/>
<path fill-rule="evenodd" clip-rule="evenodd" d="M7.29163 1.66663C7.29163 1.32145 7.0118 1.04163 6.66663 1.04163C6.32145 1.04163 6.04163 1.32145 6.04163 1.66663V2.84957L6.0257 2.85183C4.98519 2.99995 4.15198 3.31172 3.49958 4.0025C2.85193 4.68824 2.56394 5.55558 2.42627 6.6398C2.29161 7.70032 2.29162 9.05865 2.29163 10.7882V10.8784C2.29162 12.6079 2.29161 13.9663 2.42627 15.0268C2.56394 16.111 2.85193 16.9784 3.49958 17.6641C4.15199 18.3549 4.9852 18.6666 6.02571 18.8148C7.03415 18.9583 8.32285 18.9583 9.95023 18.9583H10.0496C11.677 18.9583 12.9658 18.9583 13.9742 18.8148C15.0147 18.6666 15.8479 18.3549 16.5003 17.6641C17.148 16.9784 17.436 16.111 17.5736 15.0268C17.7083 13.9663 17.7083 12.6079 17.7083 10.8784V10.7882C17.7083 9.05869 17.7083 7.70032 17.5736 6.6398C17.436 5.55558 17.148 4.68824 16.5003 4.0025C15.8479 3.31172 15.0147 2.99995 13.9742 2.85183L13.9583 2.84958V1.66663C13.9583 1.32145 13.6785 1.04163 13.3333 1.04163C12.9881 1.04163 12.7083 1.32145 12.7083 1.66663V2.74286C11.9438 2.70828 11.0623 2.70828 10.0496 2.70829H9.95027C8.93761 2.70828 8.05608 2.70828 7.29163 2.74286V1.66663ZM4.40834 4.86078C4.79326 4.45322 5.31349 4.21581 6.20187 4.08935C7.11207 3.95978 8.31172 3.95829 9.99996 3.95829C11.6882 3.95829 12.8878 3.95978 13.798 4.08935C14.6864 4.21581 15.2067 4.45322 15.5916 4.86078C15.9813 5.27339 16.2119 5.83912 16.3336 6.79725C16.4571 7.76988 16.4583 9.04882 16.4583 10.8333C16.4583 12.6178 16.4571 13.8967 16.3336 14.8693C16.2119 15.8275 15.9813 16.3932 15.5916 16.8058C15.2067 17.2134 14.6864 17.4508 13.798 17.5772C12.8878 17.7068 11.6882 17.7083 9.99996 17.7083C8.31172 17.7083 7.11206 17.7068 6.20187 17.5772C5.31349 17.4508 4.79326 17.2134 4.40834 16.8058C4.01866 16.3932 3.78798 15.8275 3.66631 14.8693C3.54281 13.8967 3.54163 12.6178 3.54163 10.8333C3.54163 9.04882 3.54281 7.76988 3.66631 6.79725C3.78798 5.83912 4.01866 5.27339 4.40834 4.86078Z" fill="#161616"/>
</svg>
