<svg width="18" height="18" viewBox="0 0 18 18" fill="none" xmlns="http://www.w3.org/2000/svg">
<path d="M9.62496 11.5C9.62496 11.1548 9.34514 10.875 8.99996 10.875C8.65478 10.875 8.37496 11.1548 8.37496 11.5V14C8.37496 14.3452 8.65478 14.625 8.99996 14.625C9.34514 14.625 9.62496 14.3452 9.62496 14V11.5Z" fill="#FDFDFD"/>
<path fill-rule="evenodd" clip-rule="evenodd" d="M8.99996 0.0416679C8.27824 0.0416679 7.63303 0.272404 6.93647 0.663289C6.26154 1.04203 5.48818 1.60121 4.51569 2.30437L3.25816 3.2136C2.47771 3.77789 1.85436 4.22858 1.3842 4.64573C0.898751 5.07645 0.535575 5.50583 0.305207 6.04595C0.0743374 6.58724 0.0184996 7.14204 0.04947 7.78173C0.0793582 8.39907 0.193825 9.1439 0.336565 10.0727L0.599279 11.7822C0.802089 13.1021 0.963582 14.153 1.20084 14.9718C1.44616 15.8184 1.79176 16.4906 2.40946 17.0043C3.0246 17.516 3.75738 17.7439 4.65251 17.8526C5.52329 17.9584 6.62175 17.9583 8.00921 17.9583H9.99072C11.3782 17.9583 12.4766 17.9584 13.3474 17.8526C14.2425 17.7439 14.9753 17.516 15.5905 17.0043C16.2082 16.4906 16.5538 15.8184 16.7991 14.9718C17.0363 14.153 17.1978 13.1021 17.4006 11.7823L17.6634 10.0726C17.8061 9.14385 17.9206 8.39905 17.9505 7.78173C17.9814 7.14204 17.9256 6.58724 17.6947 6.04595C17.4644 5.50583 17.1012 5.07645 16.6157 4.64573C16.1456 4.22858 15.5222 3.77789 14.7418 3.21361L13.4843 2.30438C12.5118 1.60122 11.7384 1.04203 11.0635 0.663288C10.3669 0.272404 9.72168 0.0416679 8.99996 0.0416679ZM5.21699 3.33981C6.22761 2.6091 6.94327 2.09283 7.54818 1.75338C8.13863 1.42204 8.56914 1.29167 8.99996 1.29167C9.43079 1.29167 9.86129 1.42204 10.4517 1.75338C11.0567 2.09283 11.7723 2.6091 12.7829 3.33981L13.9828 4.20737C14.7959 4.79523 15.3682 5.20991 15.7861 5.58075C16.1941 5.94274 16.4134 6.22792 16.5449 6.53635C16.676 6.84361 16.7276 7.19167 16.7019 7.72128C16.6756 8.26586 16.5718 8.94632 16.4227 9.91628L16.1719 11.5487C15.9608 12.9222 15.8104 13.8924 15.5985 14.6239C15.392 15.3365 15.1467 15.7476 14.7911 16.0433C14.433 16.3412 13.9677 16.5181 13.1967 16.6117C12.41 16.7073 11.3875 16.7083 9.94897 16.7083H8.05095C6.61243 16.7083 5.5899 16.7073 4.80323 16.6117C4.03219 16.5181 3.56691 16.3412 3.20879 16.0433C2.85324 15.7476 2.60795 15.3365 2.40144 14.6239C2.18948 13.8924 2.03913 12.9222 1.82807 11.5487L1.5772 9.91628C1.42815 8.94632 1.32437 8.26586 1.29801 7.72128C1.27237 7.19167 1.32394 6.84361 1.45499 6.53635C1.58654 6.22792 1.80581 5.94274 2.2138 5.58075C2.63177 5.20991 3.20406 4.79523 4.01711 4.20737L5.21699 3.33981Z" fill="#FDFDFD"/>
</svg>
