<svg width="18" height="18" viewBox="0 0 18 18" fill="none" xmlns="http://www.w3.org/2000/svg">
<path d="M9.62496 11.5C9.62496 11.1548 9.34514 10.875 8.99996 10.875C8.65478 10.875 8.37496 11.1548 8.37496 11.5V14C8.37496 14.3451 8.65478 14.625 8.99996 14.625C9.34514 14.625 9.62496 14.3451 9.62496 14V11.5Z" fill="#161616"/>
<path fill-rule="evenodd" clip-rule="evenodd" d="M8.99996 0.041626C8.27824 0.041626 7.63303 0.272362 6.93647 0.663247C6.26154 1.04199 5.48818 1.60117 4.51569 2.30433L3.25816 3.21356C2.47771 3.77785 1.85436 4.22854 1.3842 4.64569C0.898751 5.0764 0.535575 5.50579 0.305207 6.04591C0.0743374 6.5872 0.0184996 7.142 0.04947 7.78169C0.0793582 8.39903 0.193825 9.14385 0.336565 10.0726L0.599279 11.7822C0.802089 13.102 0.963582 14.153 1.20083 14.9718C1.44616 15.8184 1.79176 16.4905 2.40946 17.0043C3.02461 17.5159 3.75738 17.7438 4.65251 17.8525C5.52329 17.9583 6.62175 17.9583 8.00921 17.9583H9.99072C11.3782 17.9583 12.4766 17.9583 13.3474 17.8525C14.2425 17.7438 14.9753 17.5159 15.5905 17.0043C16.2082 16.4905 16.5538 15.8184 16.7991 14.9718C17.0363 14.153 17.1978 13.1021 17.4006 11.7822L17.6634 10.0726C17.8061 9.14381 17.9206 8.39901 17.9505 7.78169C17.9814 7.142 17.9256 6.5872 17.6947 6.04591C17.4643 5.50579 17.1012 5.0764 16.6157 4.64569C16.1456 4.22854 15.5222 3.77785 14.7418 3.21357L13.4843 2.30433C12.5118 1.60118 11.7384 1.04199 11.0635 0.663247C10.3669 0.272362 9.72168 0.041626 8.99996 0.041626ZM5.21699 3.33977C6.22761 2.60906 6.94327 2.09279 7.54818 1.75334C8.13863 1.422 8.56914 1.29163 8.99996 1.29163C9.43079 1.29163 9.86129 1.422 10.4517 1.75334C11.0567 2.09279 11.7723 2.60906 12.7829 3.33977L13.9828 4.20732C14.7959 4.79519 15.3682 5.20987 15.7861 5.58071C16.1941 5.9427 16.4134 6.22787 16.5449 6.53631C16.676 6.84356 16.7276 7.19162 16.7019 7.72124C16.6756 8.26582 16.5718 8.94628 16.4227 9.91624L16.1719 11.5487C15.9608 12.9221 15.8104 13.8924 15.5985 14.6239C15.392 15.3365 15.1467 15.7475 14.7911 16.0433C14.433 16.3411 13.9677 16.518 13.1967 16.6117C12.41 16.7072 11.3875 16.7083 9.94897 16.7083H8.05095C6.61243 16.7083 5.5899 16.7072 4.80323 16.6117C4.03219 16.518 3.56691 16.3411 3.20879 16.0433C2.85324 15.7475 2.60795 15.3365 2.40144 14.6239C2.18948 13.8924 2.03913 12.9221 1.82807 11.5487L1.5772 9.91624C1.42815 8.94628 1.32437 8.26582 1.29801 7.72124C1.27237 7.19162 1.32394 6.84356 1.45499 6.53631C1.58654 6.22787 1.80581 5.9427 2.2138 5.58071C2.63177 5.20987 3.20406 4.79519 4.01711 4.20732L5.21699 3.33977Z" fill="#161616"/>
</svg>
