<svg width="12" height="14" viewBox="0 0 12 14" fill="none" xmlns="http://www.w3.org/2000/svg">
<path opacity="0.4" d="M4.43231 1.41569C4.92626 0.996949 5.41656 0.729187 6 0.729187C6.58344 0.729187 7.07374 0.996949 7.56769 1.4157L11.0862 5.32483C11.4639 5.87487 11.6875 6.39667 11.6875 7.00002C11.6875 7.60337 11.4639 8.12517 11.0862 8.67521L7.56769 12.5843C7.07374 13.0031 6.58344 13.2709 6 13.2709C5.41656 13.2709 4.92626 13.0031 4.43231 12.5843L0.913797 8.67521C0.5361 8.12517 0.3125 7.60337 0.3125 7.00002C0.3125 6.39667 0.5361 5.87487 0.913797 5.32483L4.43231 1.41569Z" fill="#D5222F"/>
<path d="M11.0862 5.32584C11.4639 5.87588 11.6875 6.39768 11.6875 7.00103C11.6875 7.60438 11.4639 8.12618 11.0862 8.67622L7.56769 12.5854C7.07374 13.0041 6.58344 13.2719 6 13.2719C5.41656 13.2719 4.92626 13.0041 4.43231 12.5854L2.5 10.4385L9.44078 3.49774L11.0862 5.32584Z" fill="#D5222F"/>
</svg>
