<svg width="24" height="24" viewBox="0 0 24 24" fill="none" xmlns="http://www.w3.org/2000/svg">
<path d="M11.9998 4.75C11.3094 4.75 10.7498 5.30964 10.7498 6C10.7498 6.69036 11.3094 7.25 11.9998 7.25H12.0087C12.6991 7.25 13.2587 6.69036 13.2587 6C13.2587 5.30964 12.6991 4.75 12.0087 4.75H11.9998Z" fill="black"/>
<path d="M10.7419 12C10.7419 11.3096 11.3016 10.75 11.9919 10.75H12.0009C12.6913 10.75 13.2509 11.3096 13.2509 12C13.2509 12.6904 12.6913 13.25 12.0009 13.25H11.9919C11.3016 13.25 10.7419 12.6904 10.7419 12Z" fill="black"/>
<path d="M10.7341 18C10.7341 17.3096 11.2938 16.75 11.9841 16.75H11.9931C12.6835 16.75 13.2431 17.3096 13.2431 18C13.2431 18.6904 12.6835 19.25 11.9931 19.25H11.9841C11.2938 19.25 10.7341 18.6904 10.7341 18Z" fill="black"/>
</svg>
