<svg width="16" height="16" viewBox="0 0 16 16" fill="none" xmlns="http://www.w3.org/2000/svg">
<path d="M7.99976 3.16663C7.53952 3.16663 7.16642 3.53972 7.16642 3.99996C7.16642 4.4602 7.53952 4.83329 7.99976 4.83329H8.00574C8.46598 4.83329 8.83908 4.4602 8.83908 3.99996C8.83908 3.53972 8.46598 3.16663 8.00574 3.16663H7.99976Z" fill="#FDFDFD"/>
<path d="M7.16121 7.99996C7.16121 7.53972 7.53431 7.16663 7.99455 7.16663H8.00054C8.46077 7.16663 8.83387 7.53972 8.83387 7.99996C8.83387 8.4602 8.46077 8.83329 8.00054 8.83329H7.99455C7.53431 8.83329 7.16121 8.4602 7.16121 7.99996Z" fill="#FDFDFD"/>
<path d="M7.15601 12C7.15601 11.5397 7.5291 11.1666 7.98934 11.1666H7.99533C8.45556 11.1666 8.82866 11.5397 8.82866 12C8.82866 12.4602 8.45556 12.8333 7.99533 12.8333H7.98934C7.5291 12.8333 7.15601 12.4602 7.15601 12Z" fill="#FDFDFD"/>
</svg>
