<svg width="16" height="16" viewBox="0 0 16 16" fill="none" xmlns="http://www.w3.org/2000/svg">
<path opacity="0.4" d="M8.04288 0.3125H7.95712C6.3141 0.31249 5.02357 0.312483 4.01602 0.447945C2.98352 0.586761 2.16433 0.877036 1.52068 1.52068C0.877036 2.16433 0.586761 2.98353 0.447945 4.01602C0.312482 5.02358 0.31249 6.31409 0.3125 7.95712V8.04288C0.31249 9.68591 0.312482 10.9764 0.447945 11.984C0.586761 13.0165 0.877036 13.8357 1.52068 14.4793C2.16433 15.123 2.98352 15.4132 4.01602 15.5521C5.02358 15.6875 6.31408 15.6875 7.9571 15.6875H8.04287C9.68589 15.6875 10.9764 15.6875 11.984 15.5521C13.0165 15.4132 13.8357 15.123 14.4793 14.4793C15.123 13.8357 15.4132 13.0165 15.5521 11.984C15.6875 10.9764 15.6875 9.68592 15.6875 8.0429V7.95712C15.6875 6.3141 15.6875 5.02358 15.5521 4.01602C15.4132 2.98352 15.123 2.16433 14.4793 1.52068C13.8357 0.877036 13.0165 0.586761 11.984 0.447945C10.9764 0.312483 9.6859 0.31249 8.04288 0.3125Z" fill="#487FC7"/>
<path d="M11.75 4.06251L10.9413 4.0625C10.2846 4.06245 9.70063 4.0624 9.22917 4.12578C8.71674 4.19468 8.19932 4.35354 7.77643 4.77643C7.35354 5.19932 7.19467 5.71675 7.12578 6.22918C7.06239 6.70063 7.06244 7.28459 7.0625 7.94127L7.0625 8.56251H6.5C5.98223 8.56251 5.5625 8.98224 5.5625 9.50001C5.5625 10.0178 5.98223 10.4375 6.5 10.4375H7.0625L7.0625 15.6866C7.34841 15.6875 7.64645 15.6875 7.9571 15.6875H8.04288C8.35353 15.6875 8.65158 15.6875 8.9375 15.6866L8.9375 10.4375H10.25C10.7678 10.4375 11.1875 10.0178 11.1875 9.50001C11.1875 8.98224 10.7678 8.56251 10.25 8.56251H8.9375V8.00001C8.9375 7.2664 8.93949 6.8105 8.98406 6.47902C9.02428 6.17983 9.08368 6.12074 9.10135 6.10316L9.10225 6.10226L9.10315 6.10135C9.12073 6.08369 9.17983 6.02429 9.47901 5.98406C9.81049 5.9395 10.2664 5.93751 11 5.93751H11.75C12.2678 5.93751 12.6875 5.51777 12.6875 5.00001C12.6875 4.48224 12.2678 4.06251 11.75 4.06251Z" fill="#487FC7"/>
</svg>
