<svg width="18" height="18" viewBox="0 0 18 18" fill="none" xmlns="http://www.w3.org/2000/svg">
<path fill-rule="evenodd" clip-rule="evenodd" d="M2.52075 15.48C3.72825 16.6875 5.49 16.6875 9 16.6875C12.51 16.6875 14.271 16.6874 15.4793 15.4807C16.6875 14.2732 16.6875 12.5108 16.6875 9.00001C16.6875 5.48927 16.6875 3.72747 15.4793 2.51997C14.2718 1.3125 12.5101 1.3125 9.00026 1.3125C5.49032 1.3125 3.72824 1.3125 2.52075 2.51924C1.3125 3.72674 1.3125 5.48925 1.3125 9C1.3125 12.5108 1.3125 14.2725 2.52075 15.48ZM8.99997 2.4375C12.1994 2.4375 13.806 2.4375 14.6843 3.31575C15.5625 4.19324 15.5625 5.79974 15.5625 8.99997C15.5625 12.2002 15.5625 13.8067 14.6843 14.6842C13.8584 15.5093 12.3911 15.5593 9.56318 15.5623L9.59683 11.0627H11.1636C11.4741 11.0627 11.7261 10.8107 11.7261 10.5002C11.7261 10.1897 11.4741 9.93772 11.1636 9.93772H9.60509L9.62384 7.43643C9.62684 6.96693 10.0138 6.58521 10.4863 6.58521H12.6943C13.0048 6.58521 13.2568 6.33321 13.2568 6.02271C13.2568 5.7122 13.0048 5.46021 12.6943 5.46021H10.4863C9.39809 5.46021 8.50634 6.3429 8.49884 7.42815L8.48009 9.93772H7.56134C7.25084 9.93772 6.99884 10.1897 6.99884 10.5002C6.99884 10.8107 7.25084 11.0627 7.56134 11.0627H8.47183L8.43812 15.5623C5.60931 15.5593 4.14101 15.5094 3.31575 14.6842C2.4375 13.8067 2.4375 12.2003 2.4375 9.00003C2.4375 5.7998 2.4375 4.19324 3.31575 3.31575C4.19474 2.4375 5.80049 2.4375 8.99997 2.4375Z" fill="#487FC7"/>
</svg>
