<svg width="16" height="16" viewBox="0 0 16 16" fill="none" xmlns="http://www.w3.org/2000/svg">
<path fill-rule="evenodd" clip-rule="evenodd" d="M1.52075 14.48C2.72825 15.6875 4.49 15.6875 8 15.6875C11.51 15.6875 13.271 15.6874 14.4793 14.4807C15.6875 13.2732 15.6875 11.5108 15.6875 8.00001C15.6875 4.48927 15.6875 2.72747 14.4793 1.51997C13.2718 0.3125 11.5101 0.3125 8.00026 0.3125C4.49032 0.3125 2.72824 0.3125 1.52075 1.51924C0.3125 2.72674 0.3125 4.48925 0.3125 8C0.3125 11.5108 0.3125 13.2725 1.52075 14.48ZM7.99997 1.4375C11.1994 1.4375 12.806 1.4375 13.6843 2.31575C14.5625 3.19324 14.5625 4.79974 14.5625 7.99997C14.5625 11.2002 14.5625 12.8067 13.6843 13.6842C12.8584 14.5093 11.3911 14.5593 8.56318 14.5623L8.59683 10.0627H10.1636C10.4741 10.0627 10.7261 9.81072 10.7261 9.50022C10.7261 9.18972 10.4741 8.93772 10.1636 8.93772H8.60509L8.62384 6.43643C8.62684 5.96693 9.01384 5.58521 9.48634 5.58521H11.6943C12.0048 5.58521 12.2568 5.33321 12.2568 5.02271C12.2568 4.7122 12.0048 4.46021 11.6943 4.46021H9.48634C8.39809 4.46021 7.50634 5.3429 7.49884 6.42815L7.48009 8.93772H6.56134C6.25084 8.93772 5.99884 9.18972 5.99884 9.50022C5.99884 9.81072 6.25084 10.0627 6.56134 10.0627H7.47183L7.43812 14.5623C4.60931 14.5593 3.14101 14.5094 2.31575 13.6842C1.4375 12.8067 1.4375 11.2003 1.4375 8.00003C1.4375 4.7998 1.4375 3.19324 2.31575 2.31575C3.19474 1.4375 4.80049 1.4375 7.99997 1.4375Z" fill="#487FC7"/>
</svg>
