<svg width="16" height="16" viewBox="0 0 16 16" fill="none" xmlns="http://www.w3.org/2000/svg">
<path fill-rule="evenodd" clip-rule="evenodd" d="M4.0625 8C4.0625 5.82538 5.82538 4.0625 8 4.0625C10.1746 4.0625 11.9375 5.82538 11.9375 8C11.9375 10.1746 10.1746 11.9375 8 11.9375C5.82538 11.9375 4.0625 10.1746 4.0625 8ZM8 5.1875C6.4467 5.1875 5.1875 6.4467 5.1875 8C5.1875 9.5533 6.4467 10.8125 8 10.8125C9.5533 10.8125 10.8125 9.5533 10.8125 8C10.8125 6.4467 9.5533 5.1875 8 5.1875Z" fill="url(#paint0_linear_118_253)"/>
<path d="M12.1309 4.625C12.5451 4.625 12.8809 4.28921 12.8809 3.875C12.8809 3.46079 12.5451 3.125 12.1309 3.125H12.1241C11.7099 3.125 11.3741 3.46079 11.3741 3.875C11.3741 4.28921 11.7099 4.625 12.1241 4.625H12.1309Z" fill="url(#paint1_linear_118_253)"/>
<path fill-rule="evenodd" clip-rule="evenodd" d="M8.04288 0.3125C9.6859 0.31249 10.9764 0.312483 11.984 0.447945C13.0165 0.586761 13.8357 0.877036 14.4793 1.52068C15.123 2.16433 15.4132 2.98352 15.5521 4.01602C15.6875 5.02358 15.6875 6.31408 15.6875 7.9571V8.04288C15.6875 9.6859 15.6875 10.9764 15.5521 11.984C15.4132 13.0165 15.123 13.8357 14.4793 14.4793C13.8357 15.123 13.0165 15.4132 11.984 15.5521C10.9764 15.6875 9.68592 15.6875 8.0429 15.6875H7.95713C6.31411 15.6875 5.02358 15.6875 4.01602 15.5521C2.98353 15.4132 2.16433 15.123 1.52069 14.4793C0.877037 13.8357 0.586761 13.0165 0.447945 11.984C0.312482 10.9764 0.31249 9.68591 0.3125 8.04288V7.95712C0.31249 6.31409 0.312482 5.02358 0.447945 4.01602C0.586761 2.98353 0.877037 2.16433 1.52069 1.52068C2.16433 0.877036 2.98353 0.586761 4.01602 0.447945C5.02358 0.312483 6.31408 0.31249 7.95709 0.3125H8.04288ZM4.16592 1.56291C3.25818 1.68496 2.71596 1.9164 2.31618 2.31618C1.9164 2.71596 1.68496 3.25818 1.56291 4.16592C1.4387 5.08985 1.4375 6.30472 1.4375 8C1.4375 9.69528 1.4387 10.9102 1.56291 11.8341C1.68496 12.7418 1.9164 13.284 2.31618 13.6838C2.71596 14.0836 3.25818 14.315 4.16592 14.4371C5.08985 14.5613 6.30472 14.5625 8 14.5625C9.69528 14.5625 10.9102 14.5613 11.8341 14.4371C12.7418 14.315 13.284 14.0836 13.6838 13.6838C14.0836 13.284 14.315 12.7418 14.4371 11.8341C14.5613 10.9102 14.5625 9.69528 14.5625 8C14.5625 6.30472 14.5613 5.08985 14.4371 4.16592C14.315 3.25818 14.0836 2.71596 13.6838 2.31618C13.284 1.9164 12.7418 1.68496 11.8341 1.56291C10.9102 1.43869 9.69528 1.4375 8 1.4375C6.30472 1.4375 5.08985 1.43869 4.16592 1.56291Z" fill="url(#paint2_linear_118_253)"/>
<defs>
<linearGradient id="paint0_linear_118_253" x1="-9.69182e-09" y1="16" x2="16" y2="-9.8275e-07" gradientUnits="userSpaceOnUse">
<stop stop-color="#FFDC80"/>
<stop offset="0.2" stop-color="#FCAF45"/>
<stop offset="0.4" stop-color="#F56040"/>
<stop offset="0.65" stop-color="#E1306C"/>
<stop offset="0.905" stop-color="#405DE6"/>
</linearGradient>
<linearGradient id="paint1_linear_118_253" x1="-9.69182e-09" y1="16" x2="16" y2="-9.8275e-07" gradientUnits="userSpaceOnUse">
<stop stop-color="#FFDC80"/>
<stop offset="0.2" stop-color="#FCAF45"/>
<stop offset="0.4" stop-color="#F56040"/>
<stop offset="0.65" stop-color="#E1306C"/>
<stop offset="0.905" stop-color="#405DE6"/>
</linearGradient>
<linearGradient id="paint2_linear_118_253" x1="-9.69182e-09" y1="16" x2="16" y2="-9.8275e-07" gradientUnits="userSpaceOnUse">
<stop stop-color="#FFDC80"/>
<stop offset="0.2" stop-color="#FCAF45"/>
<stop offset="0.4" stop-color="#F56040"/>
<stop offset="0.65" stop-color="#E1306C"/>
<stop offset="0.905" stop-color="#405DE6"/>
</linearGradient>
</defs>
</svg>
