<svg width="18" height="18" viewBox="0 0 18 18" fill="none" xmlns="http://www.w3.org/2000/svg">
<path fill-rule="evenodd" clip-rule="evenodd" d="M5.0625 9C5.0625 6.82538 6.82538 5.0625 9 5.0625C11.1746 5.0625 12.9375 6.82538 12.9375 9C12.9375 11.1746 11.1746 12.9375 9 12.9375C6.82538 12.9375 5.0625 11.1746 5.0625 9ZM9 6.1875C7.4467 6.1875 6.1875 7.4467 6.1875 9C6.1875 10.5533 7.4467 11.8125 9 11.8125C10.5533 11.8125 11.8125 10.5533 11.8125 9C11.8125 7.4467 10.5533 6.1875 9 6.1875Z" fill="url(#paint0_linear_323_418)"/>
<path d="M13.1309 5.625C13.5451 5.625 13.8809 5.28921 13.8809 4.875C13.8809 4.46079 13.5451 4.125 13.1309 4.125H13.1241C12.7099 4.125 12.3741 4.46079 12.3741 4.875C12.3741 5.28921 12.7099 5.625 13.1241 5.625H13.1309Z" fill="url(#paint1_linear_323_418)"/>
<path fill-rule="evenodd" clip-rule="evenodd" d="M9.04288 1.3125C10.6859 1.31249 11.9764 1.31248 12.984 1.44795C14.0165 1.58676 14.8357 1.87704 15.4793 2.52068C16.123 3.16433 16.4132 3.98352 16.5521 5.01602C16.6875 6.02358 16.6875 7.31408 16.6875 8.9571V9.04288C16.6875 10.6859 16.6875 11.9764 16.5521 12.984C16.4132 14.0165 16.123 14.8357 15.4793 15.4793C14.8357 16.123 14.0165 16.4132 12.984 16.5521C11.9764 16.6875 10.6859 16.6875 9.0429 16.6875H8.95713C7.31411 16.6875 6.02358 16.6875 5.01602 16.5521C3.98353 16.4132 3.16433 16.123 2.52069 15.4793C1.87704 14.8357 1.58676 14.0165 1.44795 12.984C1.31248 11.9764 1.31249 10.6859 1.3125 9.04288L1.3125 8.95712C1.31249 7.31409 1.31248 6.02358 1.44795 5.01602C1.58676 3.98353 1.87704 3.16433 2.52069 2.52068C3.16433 1.87704 3.98353 1.58676 5.01602 1.44795C6.02358 1.31248 7.31408 1.31249 8.95709 1.3125L9.04288 1.3125ZM5.16592 2.56291C4.25818 2.68496 3.71596 2.9164 3.31618 3.31618C2.9164 3.71596 2.68496 4.25818 2.56291 5.16592C2.4387 6.08985 2.4375 7.30472 2.4375 9C2.4375 10.6953 2.4387 11.9102 2.56291 12.8341C2.68496 13.7418 2.9164 14.284 3.31618 14.6838C3.71596 15.0836 4.25818 15.315 5.16592 15.4371C6.08985 15.5613 7.30472 15.5625 9 15.5625C10.6953 15.5625 11.9102 15.5613 12.8341 15.4371C13.7418 15.315 14.284 15.0836 14.6838 14.6838C15.0836 14.284 15.315 13.7418 15.4371 12.8341C15.5613 11.9102 15.5625 10.6953 15.5625 9C15.5625 7.30472 15.5613 6.08985 15.4371 5.16592C15.315 4.25818 15.0836 3.71596 14.6838 3.31618C14.284 2.9164 13.7418 2.68496 12.8341 2.56291C11.9102 2.43869 10.6953 2.4375 9 2.4375C7.30472 2.4375 6.08985 2.43869 5.16592 2.56291Z" fill="url(#paint2_linear_323_418)"/>
<defs>
<linearGradient id="paint0_linear_323_418" x1="1" y1="17" x2="17" y2="0.999999" gradientUnits="userSpaceOnUse">
<stop stop-color="#FFDC80"/>
<stop offset="0.2" stop-color="#FCAF45"/>
<stop offset="0.4" stop-color="#F56040"/>
<stop offset="0.65" stop-color="#E1306C"/>
<stop offset="0.905" stop-color="#405DE6"/>
</linearGradient>
<linearGradient id="paint1_linear_323_418" x1="1" y1="17" x2="17" y2="0.999999" gradientUnits="userSpaceOnUse">
<stop stop-color="#FFDC80"/>
<stop offset="0.2" stop-color="#FCAF45"/>
<stop offset="0.4" stop-color="#F56040"/>
<stop offset="0.65" stop-color="#E1306C"/>
<stop offset="0.905" stop-color="#405DE6"/>
</linearGradient>
<linearGradient id="paint2_linear_323_418" x1="1" y1="17" x2="17" y2="0.999999" gradientUnits="userSpaceOnUse">
<stop stop-color="#FFDC80"/>
<stop offset="0.2" stop-color="#FCAF45"/>
<stop offset="0.4" stop-color="#F56040"/>
<stop offset="0.65" stop-color="#E1306C"/>
<stop offset="0.905" stop-color="#405DE6"/>
</linearGradient>
</defs>
</svg>
