<svg width="16" height="16" viewBox="0 0 16 16" fill="none" xmlns="http://www.w3.org/2000/svg">
<path fill-rule="evenodd" clip-rule="evenodd" d="M8.04288 0.3125C9.6859 0.31249 10.9764 0.312483 11.984 0.447945C13.0165 0.586761 13.8357 0.877036 14.4793 1.52068C15.123 2.16433 15.4132 2.98352 15.5521 4.01602C15.6875 5.02358 15.6875 6.31408 15.6875 7.9571V8.04288C15.6875 9.6859 15.6875 10.9764 15.5521 11.984C15.4132 13.0165 15.123 13.8357 14.4793 14.4793C13.8357 15.123 13.0165 15.4132 11.984 15.5521C10.9764 15.6875 9.68592 15.6875 8.0429 15.6875H7.95712C6.3141 15.6875 5.02358 15.6875 4.01602 15.5521C2.98352 15.4132 2.16433 15.123 1.52069 14.4793C0.877036 13.8357 0.586761 13.0165 0.447945 11.984C0.312482 10.9764 0.31249 9.68591 0.3125 8.04288V7.95712C0.31249 6.31409 0.312482 5.02358 0.447945 4.01602C0.586761 2.98353 0.877036 2.16433 1.52069 1.52068C2.16433 0.877036 2.98352 0.586761 4.01602 0.447945C5.02358 0.312483 6.31408 0.31249 7.95709 0.3125H8.04288ZM11.375 8C11.375 9.86396 9.86396 11.375 8 11.375C6.13604 11.375 4.625 9.86396 4.625 8C4.625 6.13604 6.13604 4.625 8 4.625C9.86396 4.625 11.375 6.13604 11.375 8ZM12.1342 4.625C12.5466 4.625 12.8809 4.28921 12.8809 3.875C12.8809 3.46079 12.5466 3.125 12.1342 3.125H12.1275C11.7151 3.125 11.3809 3.46079 11.3809 3.875C11.3809 4.28921 11.7151 4.625 12.1275 4.625H12.1342Z" fill="url(#paint0_linear_323_1477)"/>
<defs>
<linearGradient id="paint0_linear_323_1477" x1="9.69181e-09" y1="16" x2="16" y2="9.69182e-09" gradientUnits="userSpaceOnUse">
<stop stop-color="#FFDC80"/>
<stop offset="0.2" stop-color="#FCAF45"/>
<stop offset="0.4" stop-color="#F56040"/>
<stop offset="0.65" stop-color="#E1306C"/>
<stop offset="0.905" stop-color="#405DE6"/>
</linearGradient>
</defs>
</svg>
