<svg width="127" height="32" viewBox="0 0 127 32" fill="none" xmlns="http://www.w3.org/2000/svg">
<path d="M19.3351 24.8056C16.7122 23.8313 14.0143 23.6815 11.5412 24.3559C9.81755 24.8056 8.16884 25.7049 6.67001 26.829L5.62081 27.7283L5.32104 28.0281L5.99551 28.6276C6.07046 28.6276 6.07046 28.7025 6.14541 28.7775C6.29529 28.9274 6.44518 29.0023 6.67001 29.1522L7.11964 29.452L7.56929 29.0773C7.64423 29.0023 7.79411 28.8524 7.944 28.7775C9.29294 27.6534 10.7918 26.904 12.3655 26.5292C14.389 26.0047 16.5623 26.0796 18.7356 26.904C20.5342 27.5784 24.2063 28.4028 28.6279 26.5292L28.7777 26.4543L29.0026 26.2295C29.0026 26.1545 29.0775 26.1545 29.1525 26.0796C29.5272 25.6299 29.9019 25.1803 30.2016 24.6557L31.7005 22.3325L29.3023 23.6815C25.7801 25.6299 22.5576 26.0046 19.3351 24.8056Z" fill="#201B21"/>
<path d="M9.06785 16.7119C11.0913 16.1873 13.2646 16.2623 15.4379 17.0866C17.836 17.9859 23.9812 19.2599 30.8758 13.0398L32 11.9157L32.0749 11.8407L32.3747 11.541L32.2248 11.1662C32.1498 10.8665 31.9999 10.4918 31.8501 10.1171L31.4754 9.06787L30.7259 9.81729C30.651 9.96717 30.5011 10.0421 30.3512 10.192C27.0538 13.5644 21.9578 17.0117 16.1123 14.9133C13.4894 13.9391 10.7915 13.7892 8.31844 14.4637C5.92031 15.1381 3.82194 16.4121 1.87346 18.2107V18.1358L0.749341 19.3349C0.749341 19.4098 0.674413 19.4098 0.599472 19.4848L0.374634 19.7096L0.44958 20.0093C0.524521 20.384 0.6744 20.7587 0.749341 21.1335L1.19899 22.3325L1.94841 21.3583C2.02335 21.2084 2.17323 21.1335 2.24817 20.9836C3.82194 19.5597 5.99525 17.5363 9.06785 16.7119Z" fill="#201B21"/>
<path d="M1.79861 15.363C3.52227 13.5644 5.47073 12.4403 7.56909 11.8407C9.59251 11.3161 11.7658 11.3911 13.9391 12.2154C20.6839 14.6885 26.5293 10.6417 29.0773 8.46835L30.0515 7.49412L30.4262 7.19434L30.1265 6.74471C29.9017 6.51988 29.7518 6.22011 29.527 5.92035L29.0773 5.3208L28.5527 5.8454C28.4778 5.92034 28.3279 6.07022 28.2529 6.14516C25.1054 9.14282 20.2342 12.2154 14.6885 10.1171C12.0656 9.14283 9.36769 8.99295 6.89462 9.66742C5.32085 10.1171 3.82202 10.8665 2.32319 11.8407L0.749415 13.1147C0.599532 13.2646 0.52459 13.3396 0.374707 13.4894L0.224838 13.6393V13.8641C0.149897 14.3887 0.149888 14.9133 0.074946 15.363L0 17.2365L1.27401 15.8876C1.4239 15.7377 1.57379 15.5129 1.79861 15.363Z" fill="#201B21"/>
<path d="M21.5082 29.9017L21.3583 30.3514L21.5082 29.9017C21.2833 29.8268 21.1335 29.7518 20.9087 29.6769C18.2857 28.7026 15.5878 28.5528 13.1147 29.2272C12.5901 29.3771 12.0656 29.527 11.541 29.7518L9.74236 30.5762L9.29272 30.801L10.7916 31.3256C11.2412 31.4755 11.6908 31.6254 12.1405 31.7752L12.3653 31.8502L12.5901 31.7752C12.815 31.7003 13.0398 31.5504 13.2646 31.5504C13.4145 31.5504 13.5644 31.4755 13.7143 31.4005C15.5129 30.9509 17.4613 30.9509 19.5597 31.6254C19.7845 31.7003 19.9344 31.7753 20.1592 31.8502L20.5339 32.0001L20.7588 31.9251C21.2833 31.7752 21.8829 31.6254 22.3325 31.4005L24.4309 30.6511L22.2576 30.1265C22.0328 30.0516 21.733 29.9767 21.5082 29.9017Z" fill="#201B21"/>
<path d="M32.9744 14.3888L31.8503 15.5129C31.7004 15.6628 31.5506 15.8127 31.4007 15.9626C28.3281 18.8853 23.3819 22.0328 17.8363 19.9345C15.2133 18.9602 12.5154 18.8104 10.0424 19.4848C7.71917 20.1593 5.62079 21.3584 3.74726 23.157L2.77303 24.2061L2.47327 24.5808L2.77303 25.0305C2.99785 25.3303 3.14774 25.5551 3.29763 25.8549L3.74726 26.5293L4.27186 25.8549C4.3468 25.7799 4.49668 25.63 4.57162 25.5551C6.37021 23.6066 8.31869 22.4075 10.5669 21.808C12.5904 21.2834 14.7637 21.3583 16.937 22.1827C18.8105 22.8572 20.759 23.082 22.7075 22.8572C26.1548 22.4825 29.6021 20.534 32.1501 18.3607C32.3 18.2108 32.4498 18.1359 32.5997 17.986L32.8246 17.7612V17.5363C32.8246 17.0867 32.8995 16.5621 32.8995 16.1125L32.9744 14.3888Z" fill="#201B21"/>
<path d="M4.49665 7.49419L4.27183 7.04454L4.49665 7.49419C4.94629 7.26936 5.4709 7.11947 5.92055 6.96959C7.94397 6.445 10.1173 6.51994 12.2906 7.3443C13.7145 7.86889 15.1384 8.09371 16.7121 8.09371C19.8597 8.09371 23.0072 6.96959 25.9299 4.79629L27.054 3.89698L27.4287 3.59722L26.7543 3.07262C26.5295 2.8478 26.2297 2.62298 25.9299 2.4731L25.4803 2.17334L25.1056 2.4731C24.9557 2.54804 24.8807 2.69792 24.7309 2.77286C20.7589 5.77052 16.7871 6.59489 13.04 5.171C10.3421 4.19676 7.64419 3.97194 4.9463 4.79629C4.72147 4.87123 4.49665 4.94617 4.19688 5.02111L4.04701 5.09605L3.82218 5.32087C3.82218 5.39581 3.74725 5.39582 3.67231 5.47076C3.37254 5.92041 2.99782 6.29513 2.69805 6.74477L1.27417 8.91807L3.59736 7.719C3.97207 7.719 4.27182 7.56913 4.49665 7.49419Z" fill="#201B21"/>
<path d="M10.642 2.39811L10.8668 2.47306C11.8411 2.84777 13.3399 3.22247 15.2135 3.22247C17.1619 3.22247 19.0355 2.77282 20.909 2.02341L23.2322 0.899284L21.6584 0.374707C21.2088 0.224824 20.7591 0.0749415 20.2345 0H20.0097L19.7849 0.0749232C19.5601 0.149865 19.3352 0.299766 19.1104 0.374707C16.8622 1.19906 14.6139 1.34895 12.4406 0.749415C12.2158 0.674473 11.991 0.599518 11.7662 0.524577L11.5413 0.449631L11.3165 0.524577C10.8669 0.67446 10.4172 0.824352 9.96756 1.04918L8.2439 1.79859L10.0425 2.32317C10.1924 2.24823 10.4172 2.32317 10.642 2.39811Z" fill="#201B21"/>
<path d="M60.9544 12.76C60.4477 12.2 59.8477 11.76 59.1544 11.44C58.461 11.12 57.761 10.96 57.0544 10.96C56.1344 10.96 55.2877 11.18 54.5144 11.62C53.7544 12.06 53.1544 12.6667 52.7144 13.44C52.2744 14.2 52.0544 15.04 52.0544 15.96C52.0544 16.8667 52.2744 17.7067 52.7144 18.48C53.1677 19.24 53.7744 19.8467 54.5344 20.3C55.2944 20.74 56.1344 20.96 57.0544 20.96C57.7477 20.96 58.4344 20.8133 59.1144 20.52C59.8077 20.2133 60.421 19.8 60.9544 19.28L62.3544 20.84C61.6344 21.56 60.7944 22.1333 59.8344 22.56C58.8744 22.9733 57.9077 23.18 56.9344 23.18C55.5877 23.18 54.3544 22.86 53.2344 22.22C52.1277 21.58 51.2544 20.7133 50.6144 19.62C49.9744 18.5267 49.6544 17.3133 49.6544 15.98C49.6544 14.66 49.9744 13.4533 50.6144 12.36C51.2677 11.2667 52.1544 10.4067 53.2744 9.78C54.4077 9.15333 55.6544 8.84 57.0144 8.84C58.001 8.84 58.961 9.04 59.8944 9.44C60.841 9.82667 61.6544 10.36 62.3344 11.04L60.9544 12.76ZM68.8867 12.28C69.9667 12.28 70.9267 12.5067 71.7667 12.96C72.6067 13.4133 73.26 14.0467 73.7267 14.86C74.1934 15.6733 74.4267 16.6067 74.4267 17.66C74.4267 18.7267 74.1934 19.6733 73.7267 20.5C73.26 21.3133 72.6067 21.9467 71.7667 22.4C70.9267 22.8533 69.9667 23.08 68.8867 23.08C67.7934 23.08 66.8267 22.8533 65.9867 22.4C65.1467 21.9467 64.4934 21.3133 64.0267 20.5C63.56 19.6733 63.3267 18.7267 63.3267 17.66C63.3267 16.6067 63.56 15.6733 64.0267 14.86C64.4934 14.0467 65.1467 13.4133 65.9867 12.96C66.8267 12.5067 67.7934 12.28 68.8867 12.28ZM68.8867 14.24C67.9267 14.24 67.14 14.5667 66.5267 15.22C65.9267 15.86 65.6267 16.6867 65.6267 17.7C65.6267 18.7267 65.9267 19.56 66.5267 20.2C67.14 20.84 67.9267 21.16 68.8867 21.16C69.8467 21.16 70.6267 20.84 71.2267 20.2C71.8267 19.56 72.1267 18.7267 72.1267 17.7C72.1267 16.6867 71.82 15.86 71.2067 15.22C70.6067 14.5667 69.8334 14.24 68.8867 14.24ZM86.9667 8.16V23H84.6667V21.18C84.28 21.8067 83.7667 22.2867 83.1267 22.62C82.5 22.94 81.7667 23.1 80.9267 23.1C79.9134 23.1 79.02 22.8733 78.2467 22.42C77.4867 21.9533 76.8934 21.3067 76.4667 20.48C76.04 19.6533 75.8267 18.7067 75.8267 17.64C75.8267 16.5867 76.04 15.6533 76.4667 14.84C76.8934 14.0267 77.4867 13.3933 78.2467 12.94C79.02 12.4867 79.9 12.26 80.8867 12.26C81.74 12.26 82.48 12.4267 83.1067 12.76C83.7467 13.0933 84.2667 13.5733 84.6667 14.2V8.16H86.9667ZM81.4067 21.18C82.3667 21.18 83.1467 20.86 83.7467 20.22C84.36 19.5667 84.6667 18.7333 84.6667 17.72C84.6667 16.6933 84.36 15.8533 83.7467 15.2C83.1467 14.5467 82.3667 14.22 81.4067 14.22C80.4467 14.22 79.66 14.5467 79.0467 15.2C78.4467 15.8533 78.14 16.6933 78.1267 17.72C78.14 18.7333 78.4467 19.5667 79.0467 20.22C79.66 20.86 80.4467 21.18 81.4067 21.18ZM100.06 12.36V21.96C100.06 22.9733 99.8329 23.8533 99.3795 24.6C98.9262 25.3467 98.2795 25.92 97.4395 26.32C96.6129 26.7333 95.6462 26.94 94.5395 26.94C92.9662 26.94 91.4929 26.4733 90.1195 25.54L91.0995 23.88C91.6195 24.2667 92.1462 24.5533 92.6795 24.74C93.2262 24.94 93.8129 25.04 94.4395 25.04C95.4529 25.04 96.2595 24.7667 96.8595 24.22C97.4729 23.6733 97.7795 22.94 97.7795 22.02V20.68C97.4195 21.2667 96.9395 21.7133 96.3395 22.02C95.7529 22.3267 95.0595 22.48 94.2595 22.48C93.3129 22.48 92.4729 22.2667 91.7395 21.84C91.0195 21.4 90.4595 20.7933 90.0595 20.02C89.6595 19.2467 89.4595 18.3533 89.4595 17.34C89.4595 16.34 89.6595 15.46 90.0595 14.7C90.4595 13.9267 91.0195 13.3333 91.7395 12.92C92.4729 12.4933 93.3129 12.28 94.2595 12.28C95.0462 12.28 95.7395 12.44 96.3395 12.76C96.9395 13.0667 97.4195 13.5067 97.7795 14.08V12.36H100.06ZM94.7195 20.68C95.6129 20.68 96.3462 20.3733 96.9195 19.76C97.4929 19.1467 97.7795 18.36 97.7795 17.4C97.7795 16.44 97.4929 15.66 96.9195 15.06C96.3595 14.4467 95.6262 14.14 94.7195 14.14C93.8129 14.14 93.0729 14.4467 92.4995 15.06C91.9262 15.66 91.6329 16.44 91.6195 17.4C91.6329 18.36 91.9195 19.1467 92.4795 19.76C93.0529 20.3733 93.7995 20.68 94.7195 20.68ZM107.812 12.28C108.892 12.28 109.852 12.5067 110.692 12.96C111.532 13.4133 112.186 14.0467 112.652 14.86C113.119 15.6733 113.352 16.6067 113.352 17.66C113.352 18.7267 113.119 19.6733 112.652 20.5C112.186 21.3133 111.532 21.9467 110.692 22.4C109.852 22.8533 108.892 23.08 107.812 23.08C106.719 23.08 105.752 22.8533 104.912 22.4C104.072 21.9467 103.419 21.3133 102.952 20.5C102.486 19.6733 102.252 18.7267 102.252 17.66C102.252 16.6067 102.486 15.6733 102.952 14.86C103.419 14.0467 104.072 13.4133 104.912 12.96C105.752 12.5067 106.719 12.28 107.812 12.28ZM107.812 14.24C106.852 14.24 106.066 14.5667 105.452 15.22C104.852 15.86 104.552 16.6867 104.552 17.7C104.552 18.7267 104.852 19.56 105.452 20.2C106.066 20.84 106.852 21.16 107.812 21.16C108.772 21.16 109.552 20.84 110.152 20.2C110.752 19.56 111.052 18.7267 111.052 17.7C111.052 16.6867 110.746 15.86 110.132 15.22C109.532 14.5667 108.759 14.24 107.812 14.24ZM120.312 12.28C121.392 12.28 122.352 12.5067 123.192 12.96C124.032 13.4133 124.686 14.0467 125.152 14.86C125.619 15.6733 125.852 16.6067 125.852 17.66C125.852 18.7267 125.619 19.6733 125.152 20.5C124.686 21.3133 124.032 21.9467 123.192 22.4C122.352 22.8533 121.392 23.08 120.312 23.08C119.219 23.08 118.252 22.8533 117.412 22.4C116.572 21.9467 115.919 21.3133 115.452 20.5C114.986 19.6733 114.752 18.7267 114.752 17.66C114.752 16.6067 114.986 15.6733 115.452 14.86C115.919 14.0467 116.572 13.4133 117.412 12.96C118.252 12.5067 119.219 12.28 120.312 12.28ZM120.312 14.24C119.352 14.24 118.566 14.5667 117.952 15.22C117.352 15.86 117.052 16.6867 117.052 17.7C117.052 18.7267 117.352 19.56 117.952 20.2C118.566 20.84 119.352 21.16 120.312 21.16C121.272 21.16 122.052 20.84 122.652 20.2C123.252 19.56 123.552 18.7267 123.552 17.7C123.552 16.6867 123.246 15.86 122.632 15.22C122.032 14.5667 121.259 14.24 120.312 14.24Z" fill="black"/>
</svg>
