<svg width="22" height="22" viewBox="0 0 22 22" fill="none" xmlns="http://www.w3.org/2000/svg">
<path d="M0.249023 11C0.249023 16.928 5.07102 21.75 10.999 21.75L11 21.751C16.928 21.751 21.75 16.929 21.75 11.001C21.75 10.278 21.678 9.555 21.535 8.852C21.453 8.446 21.057 8.18402 20.651 8.26602C20.245 8.34802 19.983 8.744 20.065 9.15C20.188 9.755 20.25 10.378 20.25 11.001C20.25 16.101 16.1 20.251 11 20.251C5.9 20.251 1.75 16.101 1.75 11.001C1.75 5.90098 5.9 1.75098 11 1.75098C12.626 1.75098 14.225 2.17899 15.624 2.98799C15.983 3.19499 16.442 3.07301 16.649 2.71401C16.856 2.35501 16.734 1.89601 16.375 1.68901C14.747 0.748014 12.889 0.25 10.999 0.25C5.07102 0.25 0.249023 5.072 0.249023 11Z" fill="white"/>
<path d="M9.79281 15.362C10.011 15.749 10.3963 15.75 10.6617 15.75L10.6627 15.749H10.6676C10.9351 15.747 11.1808 15.599 11.31 15.362C11.3219 15.339 12.6619 13.1415 14.4707 10.6895C16.9693 7.51387 19.4103 5.40096 21.2665 4.70296C21.6493 4.55896 21.8447 4.127 21.7026 3.739C21.5605 3.351 21.1342 3.153 20.7514 3.297C16.6631 4.834 12.1616 11.004 10.642 13.547C8.87167 10.899 7.49213 10.75 7.20793 10.75C7.20793 10.75 6.56008 10.75 6.47882 11.4026C6.37413 12.2433 7.20793 12.2617 7.20793 12.2617C7.20793 12.239 8.13697 12.425 9.79281 15.362Z" fill="white"/>
</svg>
