<svg width="18" height="18" viewBox="0 0 18 18" fill="none" xmlns="http://www.w3.org/2000/svg">
<path d="M7.09961 4.83352C7.09961 4.48834 7.37943 4.20852 7.72461 4.20852H13.5579C13.9031 4.20852 14.1829 4.48834 14.1829 4.83352C14.1829 5.17869 13.9031 5.45852 13.5579 5.45852H7.72461C7.37943 5.45852 7.09961 5.17869 7.09961 4.83352Z" fill="#FDFDFD"/>
<path d="M7.72461 7.54185C7.37943 7.54185 7.09961 7.82167 7.09961 8.16685C7.09961 8.51203 7.37943 8.79185 7.72461 8.79185H10.6413C10.9865 8.79185 11.2663 8.51203 11.2663 8.16685C11.2663 7.82167 10.9865 7.54185 10.6413 7.54185H7.72461Z" fill="#FDFDFD"/>
<path fill-rule="evenodd" clip-rule="evenodd" d="M3.35475 12.5307V4.44334C3.35475 3.88327 3.36536 3.21964 3.49692 2.59138C3.62945 1.95856 3.89612 1.30347 4.45238 0.810036C5.32092 0.0396016 6.50904 0.0408875 7.36452 0.0418135L13.5431 0.0418763C14.3792 0.0418763 15.4111 0.0477331 16.3281 0.497863C16.403 0.534649 16.4759 0.573683 16.5467 0.615285C17.3292 1.07536 17.669 1.83948 17.8211 2.57593C17.9606 3.2517 17.9597 3.99488 17.959 4.60914L17.9589 13.5143C17.9589 14.3831 17.9243 15.3977 17.5023 16.3229C17.2989 16.769 17.036 17.1385 16.659 17.417C16.2866 17.6922 15.8506 17.843 15.3606 17.9333C15.3406 17.937 15.3204 17.9397 15.3001 17.9415C15.0563 17.9621 14.8223 17.9654 14.5972 17.9437H3.55631C3.11356 17.9394 2.71125 17.9067 2.32523 17.7807C1.23546 17.425 0.659509 16.377 0.363693 15.5416C0.185626 15.0387 0.0904858 14.567 0.0469823 14.0378C-0.0239368 13.175 0.691007 12.5307 1.47463 12.5307H3.35475ZM7.45056 1.29188C6.46741 1.29187 5.76083 1.3203 5.28187 1.74515C4.9987 1.99634 4.82169 2.36384 4.72038 2.84759C4.61812 3.33591 4.60475 3.88285 4.60475 4.44334V12.5307H11.3377C11.9371 12.5307 12.4836 12.898 12.698 13.4681C12.8051 13.7531 12.8946 14.0021 12.9741 14.2376C13.0027 14.3221 13.0303 14.4049 13.0573 14.4861C13.3048 15.2279 13.5051 15.8282 13.9175 16.2816C14.1559 16.5437 14.3701 16.6558 14.6657 16.6937H15.1881C15.5368 16.6243 15.7572 16.5291 15.9162 16.4116C16.0787 16.2916 16.2238 16.1138 16.365 15.8042C16.6636 15.1494 16.7089 14.3814 16.7089 13.5143L16.7089 4.64438C16.7091 3.99619 16.7094 3.37368 16.5969 2.82866C16.4817 2.27052 16.2694 1.90233 15.9132 1.69286C15.8711 1.66813 15.8259 1.64384 15.7773 1.61997C15.1594 1.31665 14.4176 1.29188 13.5431 1.29188H7.45056ZM12.6606 16.6937C12.2753 16.112 12.0573 15.4487 11.8732 14.8888C11.8447 14.8023 11.8171 14.7183 11.7898 14.6375C11.7159 14.4185 11.6314 14.1832 11.5279 13.9081C11.5005 13.8351 11.4269 13.7807 11.3377 13.7807H1.47463C1.41396 13.7807 1.36304 13.8053 1.33058 13.8382C1.30045 13.8688 1.28996 13.901 1.29278 13.9354C1.32825 14.3668 1.403 14.7318 1.54201 15.1244C1.80683 15.8723 2.20305 16.4259 2.71315 16.5924C2.91718 16.659 3.16801 16.6897 3.56569 16.6937H12.6606Z" fill="#FDFDFD"/>
</svg>
