<svg width="18" height="18" viewBox="0 0 18 18" fill="none" xmlns="http://www.w3.org/2000/svg">
<path d="M0.937498 9C0.937498 4.5472 4.5472 0.9375 9 0.9375C13.4528 0.9375 17.0625 4.5472 17.0625 9C17.0625 13.4528 13.4528 17.0625 9 17.0625C7.88932 17.0625 6.82974 16.8376 5.86541 16.4303C5.61243 16.3235 5.44149 16.2514 5.31013 16.2033C5.17614 16.1543 5.12767 16.1474 5.11518 16.1465C5.04475 16.1416 4.94899 16.1595 4.49447 16.2811L1.64539 17.0434C1.45132 17.0953 1.2443 17.0398 1.10225 16.8977C0.960199 16.7557 0.904688 16.5487 0.956612 16.3546L1.71892 13.5055C1.84054 13.051 1.85836 12.9552 1.85349 12.8848C1.85262 12.8723 1.84573 12.8239 1.79666 12.6899C1.74855 12.5585 1.67653 12.3876 1.56968 12.1346C1.1624 11.1703 0.937498 10.1107 0.937498 9Z" fill="url(#paint0_linear_28_750)"/>
<path d="M10.9571 10.7825C10.7747 10.901 10.5487 10.9938 10.2755 10.9938C9.84233 10.9938 9.52781 10.7604 9.31724 10.5612C9.12113 10.3757 8.91063 10.1165 8.6914 9.84651L8.6914 9.84651L8.66366 9.81236L8.16049 9.19292C7.92193 8.89922 7.50391 8.87536 7.22568 9.12969L4.9897 11.1736C4.87682 11.2767 4.70607 11.2753 4.59486 11.1702C4.4876 11.0689 4.46892 10.9022 4.55094 10.7786L6.56861 7.73673C6.67251 7.5801 6.72445 7.50178 6.83728 7.3898C6.9501 7.27782 6.98102 7.25773 7.04285 7.21756C7.22534 7.09902 7.45132 7.00618 7.72449 7.00618C8.15767 7.00618 8.47219 7.23964 8.68276 7.43881C8.87887 7.62428 9.08937 7.88352 9.3086 8.1535L9.3086 8.15351L9.33634 8.18767L9.83951 8.80711C10.0781 9.1008 10.4961 9.12466 10.7743 8.87033L13.0102 6.82645C13.1231 6.72325 13.2939 6.7247 13.4051 6.82978C13.5124 6.93112 13.5311 7.09777 13.449 7.22144L11.4314 10.2633C11.3275 10.4199 11.2755 10.4982 11.1627 10.6102C11.0499 10.7222 11.019 10.7423 10.9571 10.7825Z" fill="white"/>
<defs>
<linearGradient id="paint0_linear_28_750" x1="6.50002" y1="17" x2="14.5" y2="2" gradientUnits="userSpaceOnUse">
<stop stop-color="#006AFF"/>
<stop offset="1" stop-color="#00B2FF"/>
</linearGradient>
</defs>
</svg>
