<svg width="86" height="18" viewBox="0 0 86 18" fill="none" xmlns="http://www.w3.org/2000/svg">
<path d="M13.1821 7.86012C13.381 7.62146 13.3488 7.26677 13.1101 7.06789C12.8715 6.86901 12.5168 6.90125 12.3179 7.13991L10.8213 8.93577C10.5724 9.23455 10.421 9.4144 10.2995 9.5264C10.2797 9.54462 10.2633 9.55857 10.25 9.56915C10.2367 9.55857 10.2203 9.54462 10.2006 9.5264C10.0791 9.4144 9.92767 9.23455 9.67869 8.93577L9.16328 8.31728C8.944 8.05409 8.74486 7.81507 8.56203 7.64651C8.36844 7.46803 8.10437 7.28288 7.75001 7.28288C7.39565 7.28288 7.13158 7.46803 6.938 7.64651C6.75516 7.81507 6.55603 8.05408 6.33674 8.31728L4.81789 10.1399C4.61901 10.3786 4.65125 10.7333 4.88991 10.9321C5.12857 11.131 5.48326 11.0988 5.68214 10.8601L7.17869 9.06425C7.42767 8.76547 7.57907 8.58563 7.70055 8.47363C7.72032 8.4554 7.73673 8.44146 7.75001 8.43087C7.7633 8.44146 7.7797 8.4554 7.79948 8.47363C7.92095 8.58563 8.07235 8.76547 8.32134 9.06425L8.83675 9.68275C9.05603 9.94595 9.25516 10.185 9.438 10.3535C9.63158 10.532 9.89565 10.7172 10.25 10.7172C10.6044 10.7172 10.8684 10.532 11.062 10.3535C11.2449 10.185 11.444 9.94596 11.6633 9.68276L13.1821 7.86012Z" fill="url(#paint0_linear_84_208)"/>
<path fill-rule="evenodd" clip-rule="evenodd" d="M9.00001 0.9375C4.54722 0.9375 0.937513 4.5472 0.937513 9C0.937513 10.1107 1.16242 11.1703 1.5697 12.1346C1.67654 12.3876 1.74857 12.5585 1.79668 12.6899C1.84574 12.8239 1.85264 12.8723 1.8535 12.8848C1.85838 12.9552 1.84055 13.051 1.71894 13.5055L0.956627 16.3546C0.904703 16.5487 0.960215 16.7557 1.10227 16.8977C1.24432 17.0398 1.45134 17.0953 1.6454 17.0434L4.49448 16.2811C4.94901 16.1595 5.04476 16.1416 5.11519 16.1465C5.12769 16.1474 5.17616 16.1543 5.31014 16.2033C5.4415 16.2514 5.61245 16.3235 5.86542 16.4303C6.82975 16.8376 7.88934 17.0625 9.00001 17.0625C13.4528 17.0625 17.0625 13.4528 17.0625 9C17.0625 4.5472 13.4528 0.9375 9.00001 0.9375ZM2.06251 9C2.06251 5.16852 5.16854 2.0625 9.00001 2.0625C12.8315 2.0625 15.9375 5.16852 15.9375 9C15.9375 12.8315 12.8315 15.9375 9.00001 15.9375C8.04239 15.9375 7.13144 15.7438 6.30312 15.394L6.29011 15.3885C6.05354 15.2885 5.85722 15.2056 5.69702 15.147C5.53653 15.0882 5.36756 15.0363 5.19287 15.0242C4.90921 15.0046 4.61499 15.0837 4.27694 15.1746L2.29501 15.705L2.82537 13.7231C2.9163 13.385 2.99545 13.0908 2.97582 12.8071C2.96373 12.6325 2.91184 12.4635 2.85306 12.303C2.7944 12.1428 2.7115 11.9465 2.6116 11.71L2.60606 11.6969C2.25622 10.8686 2.06251 9.95763 2.06251 9Z" fill="url(#paint1_linear_84_208)"/>
<path d="M24.436 5.1L27.64 11.22L30.808 5.1H31.984V13.5H31.084L31.072 6.504L27.904 12.612H27.352L24.16 6.504V13.5H23.272V5.1H24.436ZM36.8977 7.152C37.8977 7.152 38.6497 7.472 39.1537 8.112C39.6657 8.744 39.8977 9.604 39.8497 10.692H34.6897C34.7697 11.316 35.0177 11.816 35.4337 12.192C35.8497 12.568 36.3657 12.756 36.9817 12.756C37.3657 12.756 37.7257 12.688 38.0617 12.552C38.3977 12.408 38.6897 12.208 38.9377 11.952L39.4537 12.492C39.1497 12.828 38.7777 13.088 38.3377 13.272C37.9057 13.448 37.4297 13.536 36.9097 13.536C36.2937 13.536 35.7457 13.404 35.2657 13.14C34.7937 12.868 34.4257 12.492 34.1617 12.012C33.8977 11.524 33.7657 10.968 33.7657 10.344C33.7657 9.728 33.8977 9.18 34.1617 8.7C34.4257 8.212 34.7937 7.832 35.2657 7.56C35.7457 7.288 36.2897 7.152 36.8977 7.152ZM39.0097 9.948C38.9777 9.332 38.7697 8.844 38.3857 8.484C38.0097 8.116 37.5137 7.932 36.8977 7.932C36.2897 7.932 35.7857 8.116 35.3857 8.484C34.9857 8.844 34.7537 9.332 34.6897 9.948H39.0097ZM44.7924 8.436C44.5444 8.276 44.2684 8.152 43.9644 8.064C43.6604 7.976 43.3644 7.932 43.0764 7.932C42.7004 7.932 42.3964 8.004 42.1644 8.148C41.9404 8.284 41.8284 8.496 41.8284 8.784C41.8284 8.984 41.8924 9.148 42.0204 9.276C42.1484 9.404 42.3084 9.508 42.5004 9.588C42.6924 9.66 42.9564 9.748 43.2924 9.852C43.7324 9.988 44.0884 10.12 44.3604 10.248C44.6404 10.376 44.8764 10.56 45.0684 10.8C45.2604 11.04 45.3564 11.356 45.3564 11.748C45.3564 12.332 45.1324 12.776 44.6844 13.08C44.2444 13.384 43.6964 13.536 43.0404 13.536C42.5844 13.536 42.1404 13.46 41.7084 13.308C41.2764 13.148 40.9124 12.928 40.6164 12.648L40.9764 11.964C41.2404 12.212 41.5604 12.408 41.9364 12.552C42.3204 12.696 42.7004 12.768 43.0764 12.768C43.4764 12.768 43.8004 12.688 44.0484 12.528C44.3044 12.368 44.4324 12.132 44.4324 11.82C44.4324 11.516 44.3084 11.288 44.0604 11.136C43.8124 10.984 43.4364 10.836 42.9324 10.692C42.5084 10.564 42.1644 10.44 41.9004 10.32C41.6364 10.192 41.4084 10.012 41.2164 9.78C41.0324 9.548 40.9404 9.244 40.9404 8.868C40.9404 8.3 41.1484 7.872 41.5644 7.584C41.9804 7.288 42.5044 7.14 43.1364 7.14C43.5044 7.14 43.8644 7.192 44.2164 7.296C44.5684 7.4 44.8804 7.54 45.1524 7.716L44.7924 8.436ZM50.2299 8.436C49.9819 8.276 49.7059 8.152 49.4019 8.064C49.0979 7.976 48.8019 7.932 48.5139 7.932C48.1379 7.932 47.8339 8.004 47.6019 8.148C47.3779 8.284 47.2659 8.496 47.2659 8.784C47.2659 8.984 47.3299 9.148 47.4579 9.276C47.5859 9.404 47.7459 9.508 47.9379 9.588C48.1299 9.66 48.3939 9.748 48.7299 9.852C49.1699 9.988 49.5259 10.12 49.7979 10.248C50.0779 10.376 50.3139 10.56 50.5059 10.8C50.6979 11.04 50.7939 11.356 50.7939 11.748C50.7939 12.332 50.5699 12.776 50.1219 13.08C49.6819 13.384 49.1339 13.536 48.4779 13.536C48.0219 13.536 47.5779 13.46 47.1459 13.308C46.7139 13.148 46.3499 12.928 46.0539 12.648L46.4139 11.964C46.6779 12.212 46.9979 12.408 47.3739 12.552C47.7579 12.696 48.1379 12.768 48.5139 12.768C48.9139 12.768 49.2379 12.688 49.4859 12.528C49.7419 12.368 49.8699 12.132 49.8699 11.82C49.8699 11.516 49.7459 11.288 49.4979 11.136C49.2499 10.984 48.8739 10.836 48.3699 10.692C47.9459 10.564 47.6019 10.44 47.3379 10.32C47.0739 10.192 46.8459 10.012 46.6539 9.78C46.4699 9.548 46.3779 9.244 46.3779 8.868C46.3779 8.3 46.5859 7.872 47.0019 7.584C47.4179 7.288 47.9419 7.14 48.5739 7.14C48.9419 7.14 49.3019 7.192 49.6539 7.296C50.0059 7.4 50.3179 7.54 50.5899 7.716L50.2299 8.436ZM54.8274 7.152C55.8274 7.152 56.5794 7.472 57.0834 8.112C57.5954 8.744 57.8274 9.604 57.7794 10.692H52.6194C52.6994 11.316 52.9474 11.816 53.3634 12.192C53.7794 12.568 54.2954 12.756 54.9114 12.756C55.2954 12.756 55.6554 12.688 55.9914 12.552C56.3274 12.408 56.6194 12.208 56.8674 11.952L57.3834 12.492C57.0794 12.828 56.7074 13.088 56.2674 13.272C55.8354 13.448 55.3594 13.536 54.8394 13.536C54.2234 13.536 53.6754 13.404 53.1954 13.14C52.7234 12.868 52.3554 12.492 52.0914 12.012C51.8274 11.524 51.6954 10.968 51.6954 10.344C51.6954 9.728 51.8274 9.18 52.0914 8.7C52.3554 8.212 52.7234 7.832 53.1954 7.56C53.6754 7.288 54.2194 7.152 54.8274 7.152ZM56.9394 9.948C56.9074 9.332 56.6994 8.844 56.3154 8.484C55.9394 8.116 55.4434 7.932 54.8274 7.932C54.2194 7.932 53.7154 8.116 53.3154 8.484C52.9154 8.844 52.6834 9.332 52.6194 9.948H56.9394ZM62.7701 7.152C63.5221 7.152 64.1101 7.372 64.5341 7.812C64.9581 8.244 65.1701 8.844 65.1701 9.612V13.5H64.2341V9.852C64.2341 9.292 64.0741 8.852 63.7541 8.532C63.4421 8.212 63.0061 8.052 62.4461 8.052C61.8301 8.06 61.3341 8.252 60.9581 8.628C60.5901 8.996 60.3781 9.492 60.3221 10.116V13.5H59.3861V7.188H60.3221V8.58C60.7541 7.644 61.5701 7.168 62.7701 7.152ZM72.7691 7.188V12.84C72.7691 13.448 72.6371 13.98 72.3731 14.436C72.1091 14.892 71.7371 15.24 71.2571 15.48C70.7771 15.728 70.2211 15.852 69.5891 15.852C68.6691 15.852 67.8051 15.544 66.9971 14.928L67.4291 14.244C67.7491 14.516 68.0811 14.716 68.4251 14.844C68.7691 14.98 69.1451 15.048 69.5531 15.048C70.2491 15.048 70.8011 14.852 71.2091 14.46C71.6251 14.068 71.8331 13.536 71.8331 12.864V11.904C71.6091 12.328 71.2971 12.656 70.8971 12.888C70.4971 13.112 70.0331 13.224 69.5051 13.224C68.9451 13.224 68.4451 13.096 68.0051 12.84C67.5731 12.576 67.2331 12.216 66.9851 11.76C66.7451 11.296 66.6251 10.768 66.6251 10.176C66.6251 9.584 66.7451 9.06 66.9851 8.604C67.2331 8.148 67.5731 7.792 68.0051 7.536C68.4451 7.28 68.9491 7.152 69.5171 7.152C70.0451 7.152 70.5051 7.268 70.8971 7.5C71.2891 7.724 71.6011 8.048 71.8331 8.472V7.188H72.7691ZM69.6731 12.456C70.0891 12.456 70.4611 12.36 70.7891 12.168C71.1171 11.976 71.3731 11.708 71.5571 11.364C71.7411 11.02 71.8331 10.632 71.8331 10.2C71.8331 9.768 71.7411 9.38 71.5571 9.036C71.3731 8.692 71.1171 8.424 70.7891 8.232C70.4611 8.032 70.0891 7.932 69.6731 7.932C69.2571 7.932 68.8851 8.028 68.5571 8.22C68.2291 8.412 67.9691 8.684 67.7771 9.036C67.5931 9.38 67.5011 9.768 67.5011 10.2C67.5011 10.632 67.5931 11.02 67.7771 11.364C67.9691 11.708 68.2291 11.976 68.5571 12.168C68.8851 12.36 69.2571 12.456 69.6731 12.456ZM77.386 7.152C78.386 7.152 79.138 7.472 79.642 8.112C80.154 8.744 80.386 9.604 80.338 10.692H75.178C75.258 11.316 75.506 11.816 75.922 12.192C76.338 12.568 76.854 12.756 77.47 12.756C77.854 12.756 78.214 12.688 78.55 12.552C78.886 12.408 79.178 12.208 79.426 11.952L79.942 12.492C79.638 12.828 79.266 13.088 78.826 13.272C78.394 13.448 77.918 13.536 77.398 13.536C76.782 13.536 76.234 13.404 75.754 13.14C75.282 12.868 74.914 12.492 74.65 12.012C74.386 11.524 74.254 10.968 74.254 10.344C74.254 9.728 74.386 9.18 74.65 8.7C74.914 8.212 75.282 7.832 75.754 7.56C76.234 7.288 76.778 7.152 77.386 7.152ZM79.498 9.948C79.466 9.332 79.258 8.844 78.874 8.484C78.498 8.116 78.002 7.932 77.386 7.932C76.778 7.932 76.274 8.116 75.874 8.484C75.474 8.844 75.242 9.332 75.178 9.948H79.498ZM82.8807 8.592C83.0887 8.128 83.3847 7.776 83.7687 7.536C84.1527 7.288 84.6127 7.16 85.1487 7.152V8.064C84.4927 8.056 83.9647 8.24 83.5647 8.616C83.1647 8.984 82.9367 9.492 82.8807 10.14V13.5H81.9447V7.188H82.8807V8.592Z" fill="#7F7F7F"/>
<defs>
<linearGradient id="paint0_linear_84_208" x1="6.50003" y1="17" x2="14.5" y2="2" gradientUnits="userSpaceOnUse">
<stop stop-color="#006AFF"/>
<stop offset="1" stop-color="#00B2FF"/>
</linearGradient>
<linearGradient id="paint1_linear_84_208" x1="6.50003" y1="17" x2="14.5" y2="2" gradientUnits="userSpaceOnUse">
<stop stop-color="#006AFF"/>
<stop offset="1" stop-color="#00B2FF"/>
</linearGradient>
</defs>
</svg>
