<svg width="20" height="20" viewBox="0 0 20 20" fill="none" xmlns="http://www.w3.org/2000/svg">
<path d="M8.09961 5.83352C8.09961 5.48834 8.37943 5.20852 8.72461 5.20852H14.5579C14.9031 5.20852 15.1829 5.48834 15.1829 5.83352C15.1829 6.17869 14.9031 6.45852 14.5579 6.45852H8.72461C8.37943 6.45852 8.09961 6.17869 8.09961 5.83352Z" fill="#161616"/>
<path d="M8.72461 8.54185C8.37943 8.54185 8.09961 8.82167 8.09961 9.16685C8.09961 9.51203 8.37943 9.79185 8.72461 9.79185H11.6413C11.9865 9.79185 12.2663 9.51203 12.2663 9.16685C12.2663 8.82167 11.9865 8.54185 11.6413 8.54185H8.72461Z" fill="#161616"/>
<path fill-rule="evenodd" clip-rule="evenodd" d="M4.35475 13.5307V5.44334C4.35475 4.88327 4.36536 4.21964 4.49692 3.59138C4.62945 2.95856 4.89612 2.30347 5.45238 1.81004C6.32092 1.0396 7.50904 1.04089 8.36452 1.04181L14.5431 1.04188C15.3792 1.04188 16.4111 1.04773 17.3281 1.49786C17.403 1.53465 17.4759 1.57368 17.5467 1.61529C18.3292 2.07536 18.669 2.83948 18.8211 3.57593C18.9606 4.2517 18.9597 4.99488 18.959 5.60914L18.9589 14.5143C18.9589 15.3831 18.9243 16.3977 18.5023 17.3229C18.2989 17.769 18.036 18.1385 17.659 18.417C17.2866 18.6922 16.8506 18.843 16.3606 18.9333C16.3406 18.937 16.3204 18.9397 16.3001 18.9415C16.0563 18.9621 15.8223 18.9654 15.5972 18.9437H4.55631C4.11356 18.9394 3.71125 18.9067 3.32523 18.7807C2.23546 18.425 1.65951 17.377 1.36369 16.5416C1.18563 16.0387 1.09049 15.567 1.04698 15.0378C0.976063 14.175 1.69101 13.5307 2.47463 13.5307H4.35475ZM8.45056 2.29188C7.46741 2.29187 6.76083 2.3203 6.28187 2.74515C5.9987 2.99634 5.82169 3.36384 5.72038 3.84759C5.61812 4.33591 5.60475 4.88285 5.60475 5.44334V13.5307H12.3377C12.9371 13.5307 13.4836 13.898 13.698 14.4681C13.8051 14.7531 13.8946 15.0021 13.9741 15.2376C14.0027 15.3221 14.0303 15.4049 14.0573 15.4861C14.3048 16.2279 14.5051 16.8282 14.9175 17.2816C15.1559 17.5437 15.3701 17.6558 15.6657 17.6937H16.1881C16.5368 17.6243 16.7572 17.5291 16.9162 17.4116C17.0787 17.2916 17.2238 17.1138 17.365 16.8042C17.6636 16.1494 17.7089 15.3814 17.7089 14.5143L17.7089 5.64438C17.7091 4.99619 17.7094 4.37368 17.5969 3.82866C17.4816 3.27052 17.2694 2.90233 16.9132 2.69286C16.8711 2.66813 16.8259 2.64384 16.7773 2.61997C16.1594 2.31665 15.4176 2.29188 14.5431 2.29188H8.45056ZM13.6606 17.6937C13.2753 17.112 13.0573 16.4487 12.8732 15.8888C12.8447 15.8023 12.8171 15.7183 12.7898 15.6375C12.7159 15.4185 12.6314 15.1832 12.5279 14.9081C12.5005 14.8351 12.4269 14.7807 12.3377 14.7807H2.47463C2.41396 14.7807 2.36304 14.8053 2.33058 14.8382C2.30045 14.8688 2.28996 14.901 2.29278 14.9354C2.32825 15.3668 2.403 15.7318 2.54201 16.1244C2.80683 16.8723 3.20305 17.4259 3.71315 17.5924C3.91718 17.659 4.16801 17.6897 4.56569 17.6937H13.6606Z" fill="#161616"/>
</svg>
