<svg width="18" height="18" viewBox="0 0 18 18" fill="none" xmlns="http://www.w3.org/2000/svg">
<path d="M13.1821 7.86012C13.381 7.62146 13.3487 7.26677 13.1101 7.06789C12.8714 6.86901 12.5167 6.90125 12.3179 7.13991L10.8213 8.93577C10.5723 9.23455 10.4209 9.4144 10.2994 9.5264C10.2797 9.54462 10.2633 9.55857 10.25 9.56915C10.2367 9.55857 10.2203 9.54462 10.2005 9.5264C10.079 9.4144 9.92764 9.23455 9.67866 8.93577L9.16325 8.31728C8.94397 8.05409 8.74483 7.81507 8.562 7.64651C8.36841 7.46803 8.10434 7.28288 7.74998 7.28288C7.39562 7.28288 7.13155 7.46803 6.93797 7.64651C6.75513 7.81507 6.556 8.05408 6.33671 8.31728L4.81786 10.1399C4.61898 10.3786 4.65122 10.7333 4.88988 10.9321C5.12854 11.131 5.48323 11.0988 5.68211 10.8601L7.17866 9.06425C7.42764 8.76547 7.57904 8.58563 7.70052 8.47363C7.72029 8.4554 7.7367 8.44146 7.74998 8.43087C7.76327 8.44146 7.77967 8.4554 7.79945 8.47363C7.92092 8.58563 8.07232 8.76547 8.32131 9.06425L8.83671 9.68275C9.056 9.94595 9.25513 10.185 9.43797 10.3535C9.63155 10.532 9.89562 10.7172 10.25 10.7172C10.6043 10.7172 10.8684 10.532 11.062 10.3535C11.2448 10.185 11.444 9.94596 11.6632 9.68276L13.1821 7.86012Z" fill="url(#paint0_linear_323_70)"/>
<path fill-rule="evenodd" clip-rule="evenodd" d="M8.99998 0.9375C4.54719 0.9375 0.937482 4.5472 0.937482 9C0.937482 10.1107 1.16239 11.1703 1.56967 12.1346C1.67651 12.3876 1.74854 12.5585 1.79664 12.6899C1.84571 12.8239 1.85261 12.8723 1.85347 12.8848C1.85834 12.9552 1.84052 13.051 1.71891 13.5055L0.956597 16.3546C0.904672 16.5487 0.960184 16.7557 1.10223 16.8977C1.24429 17.0398 1.45131 17.0953 1.64537 17.0434L4.49445 16.2811C4.94898 16.1595 5.04473 16.1416 5.11516 16.1465C5.12766 16.1474 5.17613 16.1543 5.31011 16.2033C5.44147 16.2514 5.61242 16.3235 5.86539 16.4303C6.82972 16.8376 7.88931 17.0625 8.99998 17.0625C13.4528 17.0625 17.0625 13.4528 17.0625 9C17.0625 4.5472 13.4528 0.9375 8.99998 0.9375ZM2.06248 9C2.06248 5.16852 5.16851 2.0625 8.99998 2.0625C12.8315 2.0625 15.9375 5.16852 15.9375 9C15.9375 12.8315 12.8315 15.9375 8.99998 15.9375C8.04236 15.9375 7.13141 15.7438 6.30309 15.394L6.29008 15.3885C6.05351 15.2885 5.85718 15.2056 5.69699 15.147C5.53649 15.0882 5.36753 15.0363 5.19284 15.0242C4.90918 15.0046 4.61496 15.0837 4.27691 15.1746L2.29498 15.705L2.82534 13.7231C2.91627 13.385 2.99542 13.0908 2.97579 12.8072C2.9637 12.6325 2.91181 12.4635 2.85303 12.303C2.79437 12.1428 2.71147 11.9465 2.61157 11.71L2.60603 11.6969C2.25619 10.8686 2.06248 9.95763 2.06248 9Z" fill="url(#paint1_linear_323_70)"/>
<defs>
<linearGradient id="paint0_linear_323_70" x1="6.5" y1="17" x2="14.5" y2="2" gradientUnits="userSpaceOnUse">
<stop stop-color="#006AFF"/>
<stop offset="1" stop-color="#00B2FF"/>
</linearGradient>
<linearGradient id="paint1_linear_323_70" x1="6.5" y1="17" x2="14.5" y2="2" gradientUnits="userSpaceOnUse">
<stop stop-color="#006AFF"/>
<stop offset="1" stop-color="#00B2FF"/>
</linearGradient>
</defs>
</svg>
