<svg width="16" height="18" viewBox="0 0 16 18" fill="none" xmlns="http://www.w3.org/2000/svg">
<path d="M8.5625 1.5C8.5625 1.18934 8.31066 0.9375 8 0.9375C7.68934 0.9375 7.4375 1.18934 7.4375 1.5V7.5C7.4375 7.81066 7.68934 8.0625 8 8.0625C8.31066 8.0625 8.5625 7.81066 8.5625 7.5V1.5Z" fill="#161616"/>
<path d="M4.57892 4.59347C4.83762 4.42147 4.9079 4.07232 4.73589 3.81362C4.56389 3.55492 4.21474 3.48464 3.95604 3.65665C1.98711 4.96576 0.6875 7.20602 0.6875 9.75006C0.6875 13.7886 3.96142 17.0626 8 17.0626C12.0386 17.0626 15.3125 13.7886 15.3125 9.75006C15.3125 7.20602 14.0129 4.96576 12.044 3.65665C11.7853 3.48464 11.4361 3.55492 11.2641 3.81362C11.0921 4.07232 11.1624 4.42147 11.4211 4.59347C13.0897 5.70293 14.1875 7.59842 14.1875 9.75006C14.1875 13.1673 11.4173 15.9376 8 15.9376C4.58274 15.9376 1.8125 13.1673 1.8125 9.75006C1.8125 7.59842 2.91028 5.70293 4.57892 4.59347Z" fill="#161616"/>
</svg>
