<svg width="18" height="18" viewBox="0 0 18 18" fill="none" xmlns="http://www.w3.org/2000/svg">
<path fill-rule="evenodd" clip-rule="evenodd" d="M11.1097 0.253879C11.3836 0.107338 11.7244 0.210605 11.871 0.484531L12.3344 1.35084C12.4732 1.6101 12.5989 1.84509 12.6737 2.03057C12.7124 2.12646 12.7553 2.25081 12.7677 2.38463C12.7809 2.52742 12.7629 2.73495 12.6117 2.91793C12.4541 3.10879 12.2436 3.16 12.1069 3.17189C11.9743 3.18342 11.8429 3.16505 11.7374 3.14496C11.5317 3.10575 11.2616 3.02554 10.9567 2.93502L10.9272 2.92626C10.3186 2.74557 9.67161 2.64808 9 2.64808C5.35959 2.64808 2.4375 5.50767 2.4375 8.99987C2.4375 10.1544 2.75523 11.236 3.31137 12.169C3.47043 12.4358 3.38306 12.7811 3.11621 12.9402C2.84937 13.0992 2.5041 13.0119 2.34503 12.745C1.6887 11.644 1.3125 10.3642 1.3125 8.99987C1.3125 4.85475 4.77035 1.52308 9 1.52308C9.78095 1.52308 10.5358 1.6365 11.2474 1.84779C11.279 1.85716 11.3095 1.86621 11.3389 1.87493C11.3352 1.86786 11.3313 1.86073 11.3275 1.85353L10.879 1.0152C10.7325 0.741275 10.8357 0.400419 11.1097 0.253879ZM14.8838 5.05955C15.1506 4.90049 15.4959 4.98786 15.655 5.25471C16.3113 6.35574 16.6875 7.63557 16.6875 8.99987C16.6875 13.145 13.2297 16.4767 9 16.4767C8.21905 16.4767 7.46424 16.3632 6.75257 16.1519C6.72099 16.1426 6.6905 16.1335 6.66106 16.1248C6.66484 16.1319 6.66865 16.139 6.67251 16.1462L7.12099 16.9845C7.26753 17.2585 7.16426 17.5993 6.89034 17.7459C6.61641 17.8924 6.27556 17.7891 6.12901 17.5152L5.66557 16.6489C5.52684 16.3896 5.4011 16.1547 5.32628 15.9692C5.2876 15.8733 5.24469 15.7489 5.23231 15.6151C5.21911 15.4723 5.23712 15.2648 5.38827 15.0818C5.54592 14.8909 5.7564 14.8397 5.89309 14.8278C6.02572 14.8163 6.15709 14.8347 6.26257 14.8548C6.46835 14.894 6.73848 14.9742 7.04334 15.0647L7.07276 15.0735C7.68139 15.2542 8.32839 15.3517 9 15.3517C12.6404 15.3517 15.5625 12.4921 15.5625 8.99987C15.5625 7.84538 15.2448 6.7637 14.6886 5.83074C14.5296 5.56389 14.6169 5.21862 14.8838 5.05955Z" fill="#FDFDFD"/>
</svg>
