<svg width="14" height="14" viewBox="0 0 14 14" fill="none" xmlns="http://www.w3.org/2000/svg">
<path opacity="0.4" d="M5.43231 1.41563C5.92626 0.996888 6.41656 0.729126 7 0.729126C7.58344 0.729126 8.07374 0.996888 8.56769 1.41563L12.0862 5.32477C12.4639 5.87481 12.6875 6.39661 12.6875 6.99996C12.6875 7.60331 12.4639 8.12511 12.0862 8.67515L8.56769 12.5843C8.07374 13.003 7.58344 13.2708 7 13.2708C6.41656 13.2708 5.92626 13.003 5.43231 12.5843L1.9138 8.67515C1.5361 8.12511 1.3125 7.60331 1.3125 6.99996C1.3125 6.39661 1.5361 5.87481 1.9138 5.32477L5.43231 1.41563Z" fill="#161616"/>
<path d="M12.0862 5.32578C12.4639 5.87582 12.6875 6.39761 12.6875 7.00097C12.6875 7.60432 12.4639 8.12612 12.0862 8.67616L8.56769 12.5853C8.07374 13.004 7.58344 13.2718 7 13.2718C6.41656 13.2718 5.92626 13.004 5.43231 12.5853L3.5 10.4385L10.4408 3.49768L12.0862 5.32578Z" fill="#161616"/>
</svg>
