<svg width="12" height="14" viewBox="0 0 12 14" fill="none" xmlns="http://www.w3.org/2000/svg">
<path fill-rule="evenodd" clip-rule="evenodd" d="M4.99813 2.08307C4.56781 2.44787 4.06623 3.00376 3.35843 3.79021L3.17301 3.99623C2.4658 4.78202 1.96466 5.34017 1.63511 5.82008C1.31354 6.28839 1.1875 6.63782 1.1875 6.99996C1.1875 7.3621 1.31354 7.71153 1.63511 8.17984C1.96465 8.65975 2.4658 9.2179 3.17301 10.0037L3.35843 10.2097C4.06623 10.9962 4.56781 11.552 4.99813 11.9168C5.42069 12.2751 5.7145 12.3958 6 12.3958C6.2855 12.3958 6.57931 12.2751 7.00187 11.9168C7.43218 11.552 7.93377 10.9962 8.64157 10.2097L8.82699 10.0037C9.5342 9.2179 10.0353 8.65975 10.3649 8.17984C10.6865 7.71153 10.8125 7.3621 10.8125 6.99996C10.8125 6.63782 10.6865 6.28839 10.3649 5.82008C10.0353 5.34017 9.5342 4.78202 8.82699 3.99623L8.64157 3.79021C7.93377 3.00376 7.43218 2.44787 7.00187 2.08307C6.57931 1.72485 6.2855 1.60413 6 1.60413C5.7145 1.60413 5.42069 1.72485 4.99813 2.08307ZM4.43231 1.41563C4.92626 0.996888 5.41656 0.729126 6 0.729126C6.58344 0.729126 7.07374 0.996888 7.56769 1.41563C8.04858 1.8233 8.58926 2.42408 9.26938 3.17978L9.49845 3.4343C10.1798 4.1914 10.7202 4.79182 11.0862 5.32477C11.4639 5.87481 11.6875 6.39661 11.6875 6.99996C11.6875 7.60331 11.4639 8.12511 11.0862 8.67515C10.7202 9.20809 10.1799 9.80851 9.49846 10.5656L9.26939 10.8201C8.58927 11.5758 8.04858 12.1766 7.56769 12.5843C7.07374 13.003 6.58344 13.2708 6 13.2708C5.41656 13.2708 4.92626 13.003 4.43231 12.5843C3.95142 12.1766 3.41074 11.5758 2.73062 10.8201L2.70805 10.7951L2.50153 10.5656C1.82014 9.80851 1.27976 9.20809 0.913797 8.67515C0.5361 8.12511 0.3125 7.60331 0.3125 6.99996C0.3125 6.39661 0.5361 5.87481 0.913797 5.32477C1.27976 4.79183 1.82015 4.1914 2.50154 3.43431L2.73062 3.17978C3.41073 2.42408 3.95142 1.8233 4.43231 1.41563Z" fill="#161616"/>
</svg>
