<svg width="14" height="14" viewBox="0 0 14 14" fill="none" xmlns="http://www.w3.org/2000/svg">
<path fill-rule="evenodd" clip-rule="evenodd" d="M5.99813 2.08307C5.56781 2.44787 5.06623 3.00376 4.35843 3.79021L4.17301 3.99623C3.4658 4.78202 2.96466 5.34017 2.63511 5.82008C2.31354 6.28839 2.1875 6.63782 2.1875 6.99996C2.1875 7.3621 2.31354 7.71153 2.63511 8.17984C2.96465 8.65975 3.4658 9.2179 4.17301 10.0037L4.35843 10.2097C5.06623 10.9962 5.56781 11.552 5.99813 11.9168C6.42069 12.2751 6.7145 12.3958 7 12.3958C7.2855 12.3958 7.57931 12.2751 8.00187 11.9168C8.43218 11.552 8.93377 10.9962 9.64157 10.2097L9.82699 10.0037C10.5342 9.2179 11.0353 8.65975 11.3649 8.17984C11.6865 7.71153 11.8125 7.3621 11.8125 6.99996C11.8125 6.63782 11.6865 6.28839 11.3649 5.82008C11.0353 5.34017 10.5342 4.78202 9.82699 3.99623L9.64157 3.79021C8.93377 3.00376 8.43218 2.44787 8.00187 2.08307C7.57931 1.72485 7.2855 1.60413 7 1.60413C6.7145 1.60413 6.42069 1.72485 5.99813 2.08307ZM5.43231 1.41563C5.92626 0.996888 6.41656 0.729126 7 0.729126C7.58344 0.729126 8.07374 0.996888 8.56769 1.41563C9.04858 1.8233 9.58926 2.42408 10.2694 3.17978L10.4984 3.4343C11.1798 4.1914 11.7202 4.79182 12.0862 5.32477C12.4639 5.87481 12.6875 6.39661 12.6875 6.99996C12.6875 7.60331 12.4639 8.12511 12.0862 8.67515C11.7202 9.20809 11.1799 9.80851 10.4985 10.5656L10.2694 10.8201C9.58927 11.5758 9.04858 12.1766 8.56769 12.5843C8.07374 13.003 7.58344 13.2708 7 13.2708C6.41656 13.2708 5.92626 13.003 5.43231 12.5843C4.95142 12.1766 4.41074 11.5758 3.73062 10.8201L3.70805 10.7951L3.50153 10.5656C2.82014 9.80851 2.27976 9.20809 1.9138 8.67515C1.5361 8.12511 1.3125 7.60331 1.3125 6.99996C1.3125 6.39661 1.5361 5.87481 1.9138 5.32477C2.27976 4.79183 2.82015 4.1914 3.50154 3.43431L3.73062 3.17978C4.41073 2.42408 4.95142 1.8233 5.43231 1.41563Z" fill="#111111"/>
</svg>
