<svg width="18" height="18" viewBox="0 0 18 18" fill="none" xmlns="http://www.w3.org/2000/svg">
<path fill-rule="evenodd" clip-rule="evenodd" d="M9.00002 5.45833C7.04401 5.45833 5.45835 7.04399 5.45835 9C5.45835 10.956 7.04401 12.5417 9.00002 12.5417C10.956 12.5417 12.5417 10.956 12.5417 9C12.5417 7.04399 10.956 5.45833 9.00002 5.45833ZM6.70835 9C6.70835 7.73435 7.73437 6.70833 9.00002 6.70833C10.2657 6.70833 11.2917 7.73435 11.2917 9C11.2917 10.2657 10.2657 11.2917 9.00002 11.2917C7.73437 11.2917 6.70835 10.2657 6.70835 9Z" fill="#FDFDFD"/>
<path fill-rule="evenodd" clip-rule="evenodd" d="M10.6451 0.875H7.35497C6.71313 0.87499 6.1864 0.874981 5.753 0.917572C5.29911 0.962176 4.89889 1.05691 4.52006 1.27487C4.14116 1.49286 3.85831 1.79118 3.59205 2.16105C3.33789 2.51411 3.07393 2.96911 2.7524 3.52334L1.11847 6.33968C0.795645 6.8961 0.530631 7.35288 0.349801 7.75017C0.160381 8.16633 0.041687 8.56144 0.041687 9C0.041687 9.43857 0.160381 9.83367 0.349801 10.2498C0.530631 10.6471 0.795645 11.1039 1.11847 11.6603L2.75237 14.4766C3.07391 15.0309 3.33788 15.4859 3.59205 15.8389C3.85831 16.2088 4.14116 16.5071 4.52006 16.7251C4.89889 16.9431 5.29911 17.0378 5.753 17.0824C6.1864 17.125 6.71313 17.125 7.35498 17.125L10.6451 17.125C11.2869 17.125 11.8136 17.125 12.247 17.0824C12.7009 17.0378 13.1012 16.9431 13.48 16.7251C13.8589 16.5071 14.1417 16.2088 14.408 15.8389C14.6621 15.4859 14.9261 15.0309 15.2476 14.4767L16.8816 11.6603C17.2044 11.104 17.4694 10.6471 17.6502 10.2498C17.8397 9.83367 17.9584 9.43857 17.9584 9C17.9584 8.56144 17.8397 8.16634 17.6502 7.75017C17.4694 7.35289 17.2044 6.89613 16.8816 6.33973L15.2476 3.52334C14.9261 2.96911 14.6622 2.51411 14.408 2.16105C14.1417 1.79119 13.8589 1.49286 13.48 1.27487C13.1012 1.05691 12.7009 0.962176 12.247 0.917572C11.8136 0.874982 11.2869 0.87499 10.6451 0.875ZM5.14343 2.35834C5.31488 2.25969 5.52371 2.19613 5.87525 2.16158C6.2404 2.1257 6.70561 2.125 7.38558 2.125L10.6145 2.125C11.2944 2.125 11.7596 2.1257 12.1248 2.16158C12.4763 2.19613 12.6852 2.25969 12.8566 2.35834C13.028 2.45694 13.1876 2.6053 13.3935 2.89136C13.6075 3.1886 13.8411 3.58987 14.1818 4.17715L15.7849 6.94031C16.127 7.52993 16.3603 7.93352 16.5125 8.268C16.6591 8.58993 16.7084 8.80243 16.7084 9C16.7084 9.19757 16.6591 9.41007 16.5125 9.732C16.3603 10.0665 16.127 10.4701 15.7849 11.0597L14.1818 13.8229C13.8411 14.4101 13.6075 14.8114 13.3935 15.1086C13.1876 15.3947 13.028 15.5431 12.8566 15.6417C12.6852 15.7403 12.4763 15.8039 12.1248 15.8384C11.7596 15.8743 11.2944 15.875 10.6145 15.875L7.38558 15.875C6.70561 15.875 6.2404 15.8743 5.87525 15.8384C5.52371 15.8039 5.31487 15.7403 5.14343 15.6417C4.97205 15.5431 4.81245 15.3947 4.60652 15.1086C4.39254 14.8114 4.15893 14.4101 3.81822 13.8228L2.21514 11.0597C1.87307 10.4701 1.63974 10.0665 1.4875 9.732C1.34097 9.41007 1.29169 9.19757 1.29169 9C1.29169 8.80243 1.34097 8.58993 1.4875 8.268C1.63974 7.93352 1.87307 7.52993 2.21514 6.94031L3.81822 4.17715C4.15893 3.58987 4.39254 3.1886 4.60652 2.89136C4.81245 2.6053 4.97205 2.45694 5.14343 2.35834Z" fill="#FDFDFD"/>
</svg>
