<svg width="20" height="20" viewBox="0 0 20 20" fill="none" xmlns="http://www.w3.org/2000/svg">
<path fill-rule="evenodd" clip-rule="evenodd" d="M9.99996 6.45833C8.04395 6.45833 6.45829 8.04399 6.45829 10C6.45829 11.956 8.04395 13.5417 9.99996 13.5417C11.956 13.5417 13.5416 11.956 13.5416 10C13.5416 8.04399 11.956 6.45833 9.99996 6.45833ZM7.70829 10C7.70829 8.73435 8.73431 7.70833 9.99996 7.70833C11.2656 7.70833 12.2916 8.73435 12.2916 10C12.2916 11.2657 11.2656 12.2917 9.99996 12.2917C8.73431 12.2917 7.70829 11.2657 7.70829 10Z" fill="#161616"/>
<path fill-rule="evenodd" clip-rule="evenodd" d="M11.645 1.875H8.35491C7.71307 1.87499 7.18634 1.87498 6.75294 1.91757C6.29905 1.96218 5.89883 2.05691 5.52 2.27487C5.1411 2.49286 4.85825 2.79118 4.59199 3.16105C4.33783 3.51411 4.07387 3.96911 3.75234 4.52334L2.11841 7.33968C1.79558 7.8961 1.53057 8.35288 1.34974 8.75017C1.16032 9.16633 1.04163 9.56144 1.04163 10C1.04163 10.4386 1.16032 10.8337 1.34974 11.2498C1.53057 11.6471 1.79558 12.1039 2.11841 12.6603L3.75231 15.4766C4.07385 16.0309 4.33782 16.4859 4.59199 16.8389C4.85825 17.2088 5.1411 17.5071 5.52 17.7251C5.89883 17.9431 6.29905 18.0378 6.75294 18.0824C7.18634 18.125 7.71307 18.125 8.35492 18.125L11.645 18.125C12.2869 18.125 12.8136 18.125 13.247 18.0824C13.7009 18.0378 14.1011 17.9431 14.4799 17.7251C14.8588 17.5071 15.1417 17.2088 15.4079 16.8389C15.6621 16.4859 15.926 16.0309 16.2475 15.4767L17.8815 12.6603C18.2043 12.104 18.4694 11.6471 18.6502 11.2498C18.8396 10.8337 18.9583 10.4386 18.9583 10C18.9583 9.56144 18.8396 9.16634 18.6502 8.75017C18.4694 8.35289 18.2044 7.89613 17.8815 7.33973L16.2476 4.52334C15.9261 3.96911 15.6621 3.51411 15.4079 3.16105C15.1417 2.79119 14.8588 2.49286 14.4799 2.27487C14.1011 2.05691 13.7009 1.96218 13.247 1.91757C12.8136 1.87498 12.2869 1.87499 11.645 1.875ZM6.14337 3.35834C6.31481 3.25969 6.52365 3.19613 6.87519 3.16158C7.24034 3.1257 7.70555 3.125 8.38552 3.125L11.6144 3.125C12.2944 3.125 12.7596 3.1257 13.1247 3.16158C13.4763 3.19613 13.6851 3.25969 13.8566 3.35834C14.0279 3.45694 14.1875 3.6053 14.3935 3.89136C14.6074 4.1886 14.841 4.58987 15.1818 5.17715L16.7848 7.94031C17.1269 8.52993 17.3602 8.93352 17.5125 9.268C17.659 9.58993 17.7083 9.80243 17.7083 10C17.7083 10.1976 17.659 10.4101 17.5125 10.732C17.3602 11.0665 17.1269 11.4701 16.7848 12.0597L15.1818 14.8229C14.841 15.4101 14.6074 15.8114 14.3935 16.1086C14.1875 16.3947 14.0279 16.5431 13.8566 16.6417C13.6851 16.7403 13.4763 16.8039 13.1247 16.8384C12.7596 16.8743 12.2944 16.875 11.6144 16.875L8.38552 16.875C7.70555 16.875 7.24034 16.8743 6.87519 16.8384C6.52365 16.8039 6.31481 16.7403 6.14337 16.6417C5.97199 16.5431 5.81239 16.3947 5.60646 16.1086C5.39248 15.8114 5.15887 15.4101 4.81816 14.8228L3.21508 12.0597C2.87301 11.4701 2.63968 11.0665 2.48744 10.732C2.34091 10.4101 2.29163 10.1976 2.29163 10C2.29163 9.80243 2.34091 9.58993 2.48744 9.268C2.63968 8.93352 2.87301 8.52993 3.21508 7.94031L4.81816 5.17715C5.15887 4.58987 5.39248 4.1886 5.60646 3.89136C5.81239 3.6053 5.97199 3.45694 6.14337 3.35834Z" fill="#161616"/>
</svg>
