<svg width="20" height="20" viewBox="0 0 20 20" fill="none" xmlns="http://www.w3.org/2000/svg">
<path fill-rule="evenodd" clip-rule="evenodd" d="M11.8038 3.15357C11.5865 3.13464 11.3667 3.12498 11.1446 3.12498C8.53404 3.12498 6.23635 4.45884 4.91958 6.47619C4.80911 6.46438 4.69692 6.45831 4.58331 6.45831C2.85742 6.45831 1.45831 7.85742 1.45831 9.58331C1.45831 11.1477 2.60788 12.4437 4.10836 12.6725C5.07361 15.6001 7.86282 17.7083 11.1446 17.7083C11.8043 17.7083 12.4447 17.623 13.0546 17.4628C13.6276 18.1237 14.4733 18.5416 15.4166 18.5416C17.1425 18.5416 18.5416 17.1425 18.5416 15.4166C18.5416 14.6815 18.2878 14.0057 17.863 13.472C18.2987 12.5423 18.5419 11.5069 18.5419 10.4166C18.5419 8.87103 18.0534 7.43729 17.2219 6.25842C17.5299 5.77427 17.7083 5.19963 17.7083 4.58331C17.7083 2.85742 16.3092 1.45831 14.5833 1.45831C13.3726 1.45831 12.3228 2.14678 11.8038 3.15357ZM12.7083 4.58331C12.7083 3.54778 13.5478 2.70831 14.5833 2.70831C15.6188 2.70831 16.4583 3.54778 16.4583 4.58331C16.4583 5.61885 15.6188 6.45831 14.5833 6.45831C13.5478 6.45831 12.7083 5.61885 12.7083 4.58331ZM11.4646 4.38301C11.4604 4.44924 11.4583 4.51603 11.4583 4.58331C11.4583 6.3092 12.8574 7.70831 14.5833 7.70831C15.2312 7.70831 15.8331 7.51114 16.3321 7.17352C16.9403 8.11094 17.2919 9.22319 17.2919 10.4166C17.2919 11.2041 17.1389 11.9555 16.8606 12.6445C16.4287 12.4191 15.9376 12.2916 15.4166 12.2916C13.6908 12.2916 12.2916 13.6908 12.2916 15.4166C12.2916 15.7333 12.3387 16.0389 12.4263 16.3269C12.0133 16.413 11.5847 16.4583 11.1446 16.4583C8.52771 16.4583 6.2987 14.8526 5.41006 12.5978C6.73475 12.2353 7.70831 11.023 7.70831 9.58331C7.70831 8.43153 7.0852 7.42528 6.15768 6.88328C7.27343 5.36496 9.09001 4.37498 11.1446 4.37498C11.252 4.37498 11.3587 4.37768 11.4646 4.38301ZM2.70831 9.58331C2.70831 8.54778 3.54778 7.70831 4.58331 7.70831C5.61885 7.70831 6.45831 8.54778 6.45831 9.58331C6.45831 10.6188 5.61885 11.4583 4.58331 11.4583C3.54778 11.4583 2.70831 10.6188 2.70831 9.58331ZM15.4166 13.5416C14.3811 13.5416 13.5416 14.3811 13.5416 15.4166C13.5416 16.4522 14.3811 17.2916 15.4166 17.2916C16.4522 17.2916 17.2916 16.4522 17.2916 15.4166C17.2916 14.3811 16.4522 13.5416 15.4166 13.5416Z" fill="#FDFDFD"/>
</svg>
