<svg width="24" height="24" viewBox="0 0 24 24" fill="none" xmlns="http://www.w3.org/2000/svg">
<path d="M7.54959 14.4003C7.8808 14.1516 8.35094 14.2184 8.59969 14.5496C9.37627 15.5836 10.6102 16.25 12 16.25C13.3898 16.25 14.6237 15.5836 15.4003 14.5496C15.6491 14.2184 16.1192 14.1516 16.4504 14.4003C16.7816 14.6491 16.8484 15.1192 16.5997 15.4504C15.552 16.8453 13.8816 17.75 12 17.75C10.1184 17.75 8.44798 16.8453 7.40031 15.4504C7.15155 15.1192 7.21839 14.6491 7.54959 14.4003Z" fill="#161616"/>
<path d="M8 8C7.44772 8 7 8.44772 7 9C7 9.55229 7.44772 10 8 10H8.00897C8.56126 10 9.00897 9.55228 9.00897 9C9.00897 8.44771 8.56126 8 8.00897 8H8Z" fill="#161616"/>
<path d="M15.991 8C15.4387 8 14.991 8.44771 14.991 9C14.991 9.55228 15.4387 10 15.991 10H16C16.5523 10 17 9.55228 17 9C17 8.44771 16.5523 8 16 8H15.991Z" fill="#161616"/>
<path fill-rule="evenodd" clip-rule="evenodd" d="M1.25 12C1.25 6.06294 6.06294 1.25 12 1.25C17.9371 1.25 22.75 6.06294 22.75 12C22.75 17.9371 17.9371 22.75 12 22.75C6.06294 22.75 1.25 17.9371 1.25 12ZM12 2.75C6.89137 2.75 2.75 6.89137 2.75 12C2.75 17.1086 6.89137 21.25 12 21.25C17.1086 21.25 21.25 17.1086 21.25 12C21.25 6.89137 17.1086 2.75 12 2.75Z" fill="#161616"/>
</svg>
