<svg width="20" height="20" viewBox="0 0 20 20" fill="none" xmlns="http://www.w3.org/2000/svg">
<path fill-rule="evenodd" clip-rule="evenodd" d="M11.8039 3.15363C11.5866 3.1347 11.3667 3.12504 11.1447 3.12504C8.5341 3.12504 6.23641 4.4589 4.91964 6.47625C4.80917 6.46444 4.69698 6.45837 4.58337 6.45837C2.85748 6.45837 1.45837 7.85748 1.45837 9.58337C1.45837 11.1478 2.60794 12.4437 4.10842 12.6725C5.07367 15.6002 7.86288 17.7084 11.1447 17.7084C11.8044 17.7084 12.4447 17.6231 13.0547 17.4628C13.6276 18.1237 14.4734 18.5417 15.4167 18.5417C17.1426 18.5417 18.5417 17.1426 18.5417 15.4167C18.5417 14.6816 18.2879 14.0057 17.863 13.472C18.2988 12.5424 18.5419 11.507 18.5419 10.4167C18.5419 8.87109 18.0535 7.43736 17.222 6.25848C17.53 5.77434 17.7084 5.19969 17.7084 4.58337C17.7084 2.85748 16.3093 1.45837 14.5834 1.45837C13.3727 1.45837 12.3228 2.14684 11.8039 3.15363ZM12.7084 4.58337C12.7084 3.54784 13.5478 2.70837 14.5834 2.70837C15.6189 2.70837 16.4584 3.54784 16.4584 4.58337C16.4584 5.61891 15.6189 6.45837 14.5834 6.45837C13.5478 6.45837 12.7084 5.61891 12.7084 4.58337ZM11.4647 4.38307C11.4605 4.4493 11.4584 4.51609 11.4584 4.58337C11.4584 6.30926 12.8575 7.70837 14.5834 7.70837C15.2313 7.70837 15.8331 7.5112 16.3322 7.17358C16.9404 8.111 17.2919 9.22325 17.2919 10.4167C17.2919 11.2041 17.139 11.9555 16.8607 12.6446C16.4288 12.4192 15.9376 12.2917 15.4167 12.2917C13.6908 12.2917 12.2917 13.6908 12.2917 15.4167C12.2917 15.7333 12.3388 16.039 12.4264 16.327C12.0134 16.413 11.5847 16.4584 11.1447 16.4584C8.52777 16.4584 6.29876 14.8526 5.41012 12.5978C6.73481 12.2354 7.70837 11.0231 7.70837 9.58337C7.70837 8.43159 7.08526 7.42534 6.15774 6.88334C7.27349 5.36502 9.09007 4.37504 11.1447 4.37504C11.2521 4.37504 11.3588 4.37774 11.4647 4.38307ZM2.70837 9.58337C2.70837 8.54784 3.54784 7.70837 4.58337 7.70837C5.61891 7.70837 6.45837 8.54784 6.45837 9.58337C6.45837 10.6189 5.61891 11.4584 4.58337 11.4584C3.54784 11.4584 2.70837 10.6189 2.70837 9.58337ZM15.4167 13.5417C14.3812 13.5417 13.5417 14.3812 13.5417 15.4167C13.5417 16.4522 14.3812 17.2917 15.4167 17.2917C16.4522 17.2917 17.2917 16.4522 17.2917 15.4167C17.2917 14.3812 16.4522 13.5417 15.4167 13.5417Z" fill="#161616"/>
</svg>
