<svg width="20" height="20" viewBox="0 0 20 20" fill="none" xmlns="http://www.w3.org/2000/svg">
<path fill-rule="evenodd" clip-rule="evenodd" d="M12.0823 6.875C12.5897 6.875 12.9124 7.25423 13.0752 7.58377L13.0756 7.58454L13.4841 8.40831L14.2109 8.53008C14.5761 8.59144 15.0134 8.79449 15.1631 9.26409C15.3125 9.73277 15.0747 10.1514 14.8129 10.4139L14.8121 10.4148L14.2455 10.986L14.4067 11.6889C14.4884 12.0463 14.5136 12.6138 14.0616 12.9461C13.607 13.2802 13.0719 13.0816 12.7572 12.8941L12.0826 12.4914L11.4083 12.8939C11.0917 13.0833 10.5581 13.2788 10.1043 12.945C9.65353 12.6133 9.67612 12.0478 9.75862 11.6883L9.9197 10.986L9.35159 10.4132C9.09137 10.1509 8.85453 9.73293 9.00266 9.26521C9.15155 8.79512 9.58874 8.5915 9.95456 8.53002L10.6784 8.40877L11.0877 7.58337L11.0883 7.5822C11.2522 7.25341 11.5756 6.875 12.0823 6.875ZM11.7685 9.02422L12.0813 8.39326L12.3942 9.02421C12.4797 9.19871 12.6117 9.33082 12.7313 9.41979C12.8517 9.50938 13.0164 9.59728 13.2067 9.62927L13.7417 9.71889L13.3062 10.1581C13.1605 10.3049 13.0762 10.4853 13.0321 10.6404C12.9879 10.796 12.9657 10.9916 13.0098 11.19L13.1159 11.6525L12.6504 11.3746C12.4626 11.2625 12.2552 11.2258 12.0835 11.2258C11.9113 11.2258 11.7055 11.2627 11.5189 11.3722L11.0493 11.6525L11.1545 11.1941L11.1554 11.19C11.1995 10.9916 11.1772 10.796 11.1331 10.6404C11.089 10.4853 11.0047 10.3049 10.859 10.1581L10.4235 9.71889L10.9585 9.62927L10.9607 9.62889C11.1504 9.59641 11.3139 9.50786 11.4329 9.41892C11.5513 9.33035 11.683 9.19853 11.7685 9.02422Z" fill="#FDFDFD"/>
<path fill-rule="evenodd" clip-rule="evenodd" d="M8.28949 2.29166L11.7116 2.29166C13.0505 2.29165 14.1078 2.29165 14.9497 2.38559C15.8128 2.4819 16.5218 2.68302 17.1317 3.13513C17.551 3.44593 17.9139 3.83066 18.2051 4.27089C18.7428 5.08386 18.9014 6.06944 18.9579 7.37202C18.9583 7.38105 18.9585 7.39008 18.9585 7.39912L18.9585 12.6009C18.9585 12.6099 18.9583 12.6189 18.9579 12.628C18.9014 13.9306 18.7428 14.9161 18.2051 15.7291C17.9139 16.1693 17.551 16.5541 17.1317 16.8649C16.5218 17.317 15.8128 17.5181 14.9497 17.6144C14.1079 17.7083 13.0505 17.7083 11.7116 17.7083L8.28952 17.7083C7.73222 17.7083 7.22364 17.7083 6.75915 17.7016C6.72904 17.706 6.69822 17.7083 6.66687 17.7083C6.6281 17.7083 6.59015 17.7048 6.55333 17.698C5.98785 17.6868 5.49032 17.6634 5.05136 17.6144C4.18827 17.5181 3.4793 17.317 2.86938 16.8649C2.45008 16.5541 2.08717 16.1693 1.79598 15.7291C1.25831 14.9162 1.09969 13.9308 1.04315 12.6284C1.01614 12.0063 1.54029 11.5885 2.05463 11.5885C2.8312 11.5885 3.52061 10.9113 3.52061 10C3.52061 9.08865 2.8312 8.41145 2.05463 8.41145C1.54029 8.41145 1.01614 7.99373 1.04315 7.37158C1.09969 6.06922 1.25831 5.08377 1.79598 4.27089C2.08717 3.83066 2.45009 3.44592 2.86938 3.13513C3.4793 2.68302 4.18827 2.4819 5.05136 2.38559C5.49032 2.33661 5.98785 2.31317 6.55333 2.30195C6.59015 2.29519 6.6281 2.29166 6.66687 2.29166C6.69822 2.29166 6.72904 2.29397 6.75915 2.29843C7.22365 2.29166 7.73218 2.29166 8.28949 2.29166ZM6.04187 3.56734L6.04187 5.83333C6.04187 6.17851 6.32169 6.45833 6.66687 6.45833C7.01205 6.45833 7.29187 6.17851 7.29187 5.83333L7.29187 3.54349C7.6106 3.54173 7.95475 3.54166 8.32775 3.54166L11.6733 3.54166C13.059 3.54166 14.0466 3.54257 14.8111 3.62788C15.5624 3.71171 16.0252 3.87087 16.3873 4.13933C16.6873 4.36171 16.9501 4.63927 17.1625 4.96049C17.4991 5.46929 17.653 6.15381 17.7085 7.41278L17.7085 12.5872C17.653 13.8462 17.4991 14.5307 17.1625 15.0395C16.9501 15.3607 16.6873 15.6383 16.3873 15.8607C16.0252 16.1291 15.5624 16.2883 14.8111 16.3721C14.0466 16.4574 13.059 16.4583 11.6733 16.4583L8.32775 16.4583C7.95475 16.4583 7.6106 16.4583 7.29187 16.4565L7.29187 14.1667C7.29187 13.8215 7.01205 13.5417 6.66687 13.5417C6.32169 13.5417 6.04187 13.8215 6.04187 14.1667L6.04187 16.4326C5.72836 16.4199 5.4466 16.4007 5.18998 16.3721C4.43868 16.2883 3.97591 16.1291 3.61374 15.8607C3.31373 15.6383 3.05102 15.3607 2.83855 15.0395C2.52401 14.564 2.36895 13.9349 2.30471 12.8268C3.71445 12.694 4.77061 11.4492 4.77061 10C4.77061 8.55083 3.71445 7.30595 2.30471 7.17316C2.36895 6.06507 2.52401 5.43603 2.83855 4.96049C3.05102 4.63927 3.31373 4.36171 3.61374 4.13933C3.97591 3.87087 4.43868 3.71171 5.18998 3.62788C5.4466 3.59924 5.72836 3.58012 6.04187 3.56734Z" fill="#FDFDFD"/>
</svg>
