<svg width="20" height="20" viewBox="0 0 20 20" fill="none" xmlns="http://www.w3.org/2000/svg">
<path d="M2.29169 9.97047C2.29169 5.73168 5.74073 2.29167 10 2.29167C14.2593 2.29167 17.7084 5.73168 17.7084 9.97047C17.7084 11.0782 17.4733 12.1296 17.0507 13.0792C16.9103 13.3946 17.0522 13.764 17.3676 13.9043C17.6829 14.0447 18.0523 13.9028 18.1927 13.5875C18.6851 12.481 18.9584 11.2567 18.9584 9.97047C18.9584 5.03714 14.9455 1.04167 10 1.04167C5.05456 1.04167 1.04169 5.03714 1.04169 9.97047C1.04169 11.2567 1.31496 12.481 1.80735 13.5875C1.94769 13.9028 2.31711 14.0447 2.63247 13.9043C2.94783 13.764 3.08971 13.3946 2.94937 13.0792C2.52676 12.1296 2.29169 11.0782 2.29169 9.97047Z" fill="#FDFDFD"/>
<path fill-rule="evenodd" clip-rule="evenodd" d="M6.45835 8.33334C6.45835 6.37733 8.04401 4.79167 10 4.79167C11.956 4.79167 13.5417 6.37733 13.5417 8.33334C13.5417 10.2893 11.956 11.875 10 11.875C8.04401 11.875 6.45835 10.2893 6.45835 8.33334ZM10 6.04167C8.73437 6.04167 7.70835 7.06769 7.70835 8.33334C7.70835 9.59899 8.73437 10.625 10 10.625C11.2657 10.625 12.2917 9.59899 12.2917 8.33334C12.2917 7.06769 11.2657 6.04167 10 6.04167Z" fill="#FDFDFD"/>
<path fill-rule="evenodd" clip-rule="evenodd" d="M13.8259 13.7173C13.8971 13.7582 13.9866 13.8068 14.0891 13.8625C14.5493 14.1127 15.2713 14.505 15.7652 14.9712C16.0727 15.2615 16.3908 15.6666 16.4492 16.1818C16.5124 16.7394 16.2557 17.2427 15.7945 17.6665C15.0203 18.3777 14.0789 18.9583 12.858 18.9583H7.14243C5.92148 18.9583 4.98014 18.3777 4.20594 17.6665C3.74471 17.2427 3.48797 16.7394 3.55116 16.1818C3.60957 15.6666 3.92769 15.2615 4.23522 14.9712C4.72912 14.505 5.45106 14.1127 5.91133 13.8625C6.01381 13.8068 6.10333 13.7582 6.17445 13.7173C8.51748 12.372 11.4829 12.372 13.8259 13.7173ZM13.2035 14.8013C11.2459 13.6773 8.75446 13.6773 6.79687 14.8013C6.68257 14.867 6.55933 14.9344 6.4317 15.0043C5.97158 15.2562 5.45443 15.5393 5.09322 15.8802C4.8681 16.0927 4.80241 16.2415 4.79321 16.3226C4.7888 16.3615 4.78066 16.497 5.05161 16.7459C5.70807 17.349 6.36011 17.7083 7.14243 17.7083H12.858C13.6403 17.7083 14.2923 17.349 14.9488 16.7459C15.2197 16.497 15.2116 16.3615 15.2072 16.3226C15.198 16.2415 15.1323 16.0927 14.9072 15.8802C14.546 15.5393 14.0288 15.2562 13.5687 15.0043C13.4411 14.9345 13.3178 14.867 13.2035 14.8013Z" fill="#FDFDFD"/>
</svg>
