<svg width="20" height="20" viewBox="0 0 20 20" fill="none" xmlns="http://www.w3.org/2000/svg">
<path fill-rule="evenodd" clip-rule="evenodd" d="M12.0822 6.875C12.5896 6.875 12.9123 7.25423 13.0751 7.58377L13.0755 7.58454L13.484 8.40831L14.2109 8.53008C14.5761 8.59144 15.0133 8.79449 15.163 9.26409C15.3125 9.73277 15.0747 10.1514 14.8129 10.4139L14.812 10.4148L14.2454 10.986L14.4066 11.6889C14.4883 12.0463 14.5136 12.6138 14.0616 12.9461C13.607 13.2802 13.0719 13.0816 12.7571 12.8941L12.0825 12.4914L11.4083 12.8939C11.0916 13.0833 10.558 13.2788 10.1042 12.945C9.65347 12.6133 9.67606 12.0478 9.75856 11.6883L9.91964 10.986L9.35153 10.4132C9.09131 10.1509 8.85447 9.73293 9.0026 9.26521C9.15149 8.79512 9.58868 8.5915 9.9545 8.53002L10.6783 8.40877L11.0877 7.58337L11.0882 7.5822C11.2521 7.25341 11.5756 6.875 12.0822 6.875ZM11.7684 9.02422L12.0813 8.39326L12.3942 9.02421C12.4797 9.19871 12.6116 9.33082 12.7312 9.41979C12.8517 9.50938 13.0163 9.59728 13.2066 9.62927L13.7417 9.71889L13.3061 10.1581C13.1605 10.3049 13.0761 10.4853 13.0321 10.6404C12.9879 10.796 12.9656 10.9916 13.0097 11.19L13.1158 11.6525L12.6503 11.3746C12.4626 11.2625 12.2551 11.2258 12.0835 11.2258C11.9112 11.2258 11.7054 11.2627 11.5188 11.3722L11.0492 11.6525L11.1544 11.1941L11.1553 11.19C11.1994 10.9916 11.1772 10.796 11.133 10.6404C11.0889 10.4853 11.0046 10.3049 10.859 10.1581L10.4234 9.71889L10.9584 9.62927L10.9606 9.62889C11.1504 9.59641 11.3138 9.50786 11.4328 9.41892C11.5513 9.33035 11.683 9.19853 11.7684 9.02422Z" fill="#161616"/>
<path fill-rule="evenodd" clip-rule="evenodd" d="M8.28943 2.29166L11.7115 2.29166C13.0505 2.29165 14.1078 2.29165 14.9497 2.38559C15.8127 2.4819 16.5217 2.68302 17.1316 3.13513C17.5509 3.44593 17.9139 3.83066 18.205 4.2709C18.7428 5.08386 18.9014 6.06944 18.9579 7.37202C18.9583 7.38105 18.9585 7.39008 18.9585 7.39912L18.9585 12.6009C18.9585 12.6099 18.9583 12.6189 18.9579 12.628C18.9014 13.9306 18.7428 14.9161 18.205 15.7291C17.9139 16.1693 17.5509 16.5541 17.1316 16.8649C16.5217 17.317 15.8128 17.5181 14.9497 17.6144C14.1078 17.7083 13.0505 17.7083 11.7116 17.7083L8.28946 17.7083C7.73216 17.7083 7.22358 17.7083 6.75909 17.7016C6.72898 17.706 6.69816 17.7083 6.66681 17.7083C6.62804 17.7083 6.59009 17.7048 6.55327 17.698C5.98779 17.6868 5.49026 17.6634 5.05129 17.6144C4.18821 17.5181 3.47924 17.317 2.86931 16.8649C2.45002 16.5541 2.0871 16.1693 1.79592 15.7291C1.25825 14.9162 1.09963 13.9308 1.04309 12.6284C1.01608 12.0063 1.54023 11.5885 2.05456 11.5885C2.83114 11.5885 3.52055 10.9113 3.52055 10C3.52055 9.08865 2.83114 8.41145 2.05456 8.41145C1.54023 8.41145 1.01608 7.99373 1.04309 7.37158C1.09962 6.06922 1.25825 5.08377 1.79592 4.27089C2.08711 3.83066 2.45003 3.44592 2.86932 3.13513C3.47924 2.68302 4.18821 2.4819 5.0513 2.38559C5.49026 2.33661 5.98779 2.31317 6.55327 2.30195C6.59009 2.29519 6.62804 2.29166 6.66681 2.29166C6.69816 2.29166 6.72898 2.29397 6.75909 2.29843C7.22359 2.29166 7.73212 2.29166 8.28943 2.29166ZM6.04181 3.56734L6.04181 5.83333C6.04181 6.17851 6.32163 6.45833 6.66681 6.45833C7.01199 6.45833 7.29181 6.17851 7.29181 5.83333L7.29181 3.54349C7.61053 3.54173 7.95469 3.54166 8.32769 3.54166L11.6733 3.54166C13.0589 3.54166 14.0465 3.54257 14.811 3.62788C15.5623 3.71171 16.0251 3.87087 16.3873 4.13933C16.6873 4.36171 16.95 4.63927 17.1625 4.96049C17.499 5.46929 17.653 6.15381 17.7085 7.41278L17.7085 12.5872C17.653 13.8462 17.499 14.5307 17.1625 15.0395C16.95 15.3607 16.6873 15.6383 16.3873 15.8607C16.0251 16.1291 15.5623 16.2883 14.811 16.3721C14.0465 16.4574 13.0589 16.4583 11.6733 16.4583L8.32769 16.4583C7.95469 16.4583 7.61053 16.4583 7.29181 16.4565L7.29181 14.1667C7.29181 13.8215 7.01199 13.5417 6.66681 13.5417C6.32163 13.5417 6.04181 13.8215 6.04181 14.1667L6.04181 16.4326C5.7283 16.4199 5.44654 16.4007 5.18992 16.3721C4.43861 16.2883 3.97585 16.1291 3.61368 15.8607C3.31367 15.6383 3.05096 15.3607 2.83849 15.0395C2.52395 14.564 2.36889 13.9349 2.30465 12.8268C3.71439 12.694 4.77055 11.4492 4.77055 10C4.77055 8.55083 3.71439 7.30595 2.30465 7.17316C2.36889 6.06507 2.52395 5.43603 2.83849 4.96049C3.05096 4.63927 3.31367 4.36171 3.61368 4.13933C3.97585 3.87087 4.43861 3.71171 5.18992 3.62788C5.44654 3.59924 5.7283 3.58012 6.04181 3.56734Z" fill="#161616"/>
</svg>
