<svg width="16" height="16" viewBox="0 0 16 16" fill="none" xmlns="http://www.w3.org/2000/svg">
<path fill-rule="evenodd" clip-rule="evenodd" d="M4.25019 3.68756C4.03895 3.68756 3.84552 3.80591 3.74936 3.99398C3.65319 4.18206 3.6705 4.40815 3.79418 4.5794L6.65886 8.54589L3.85244 11.3523C3.63277 11.572 3.63277 11.9281 3.85244 12.1478C4.07211 12.3675 4.42826 12.3675 4.64793 12.1478L7.32605 9.46969L9.21084 12.0794C9.3166 12.2258 9.48623 12.3126 9.66685 12.3126H11.7502C11.9614 12.3126 12.1548 12.1942 12.251 12.0061C12.3472 11.8181 12.3299 11.592 12.2062 11.4207L9.34151 7.45423L12.1479 4.64781C12.3676 4.42814 12.3676 4.07198 12.1479 3.85231C11.9283 3.63264 11.5721 3.63264 11.3524 3.85231L8.67432 6.53043L6.78953 3.92072C6.68377 3.7743 6.51414 3.68756 6.33352 3.68756H4.25019ZM10.6501 11.1876H9.95446L5.3503 4.81256H6.04591L10.6501 11.1876Z" fill="#26292E"/>
<path fill-rule="evenodd" clip-rule="evenodd" d="M8.04306 0.312561H7.9573C6.31427 0.312551 5.02376 0.312543 4.0162 0.448006C2.98371 0.586822 2.16452 0.877097 1.52087 1.52075C0.87722 2.16439 0.586944 2.98359 0.448129 4.01608C0.312665 5.02364 0.312673 6.31415 0.312683 7.95718V8.04294C0.312673 9.68597 0.312665 10.9765 0.448129 11.984C0.586944 13.0165 0.87722 13.8357 1.52087 14.4794C2.16452 15.123 2.98371 15.4133 4.0162 15.5521C5.02376 15.6876 6.31426 15.6876 7.95728 15.6876H8.04306C9.68608 15.6876 10.9766 15.6876 11.9842 15.5521C13.0167 15.4133 13.8358 15.123 14.4795 14.4794C15.1231 13.8357 15.4134 13.0165 15.5522 11.984C15.6877 10.9765 15.6877 9.68598 15.6877 8.04296V7.95719C15.6877 6.31416 15.6877 5.02364 15.5522 4.01608C15.4134 2.98359 15.1231 2.16439 14.4795 1.52075C13.8358 0.877097 13.0167 0.586822 11.9842 0.448006C10.9766 0.312543 9.68609 0.312551 8.04306 0.312561ZM2.31636 2.31624C2.71615 1.91646 3.25836 1.68502 4.1661 1.56297C5.09003 1.43876 6.3049 1.43756 8.00018 1.43756C9.69546 1.43756 10.9103 1.43876 11.8343 1.56297C12.742 1.68502 13.2842 1.91646 13.684 2.31624C14.0838 2.71602 14.3152 3.25824 14.4373 4.16598C14.5615 5.08991 14.5627 6.30478 14.5627 8.00006C14.5627 9.69534 14.5615 10.9102 14.4373 11.8341C14.3152 12.7419 14.0838 13.2841 13.684 13.6839C13.2842 14.0837 12.742 14.3151 11.8343 14.4371C10.9103 14.5614 9.69546 14.5626 8.00018 14.5626C6.3049 14.5626 5.09003 14.5614 4.1661 14.4371C3.25836 14.3151 2.71615 14.0837 2.31636 13.6839C1.91658 13.2841 1.68514 12.7419 1.5631 11.8341C1.43888 10.9102 1.43768 9.69534 1.43768 8.00006C1.43768 6.30478 1.43888 5.08991 1.5631 4.16598C1.68514 3.25824 1.91658 2.71602 2.31636 2.31624Z" fill="#26292E"/>
</svg>
