<svg width="18" height="18" viewBox="0 0 18 18" fill="none" xmlns="http://www.w3.org/2000/svg">
<path opacity="0.4" d="M9.04297 1.31253C10.686 1.31252 11.9765 1.31251 12.9841 1.44798C14.0166 1.58679 14.8358 1.87707 15.4794 2.52072C16.1231 3.16436 16.4133 3.98356 16.5521 5.01605C16.6876 6.0236 16.6876 7.31409 16.6876 8.95708V8.95716V9.04291V9.04298C16.6876 10.686 16.6876 11.9765 16.5521 12.984C16.4133 14.0165 16.1231 14.8357 15.4794 15.4793C14.8358 16.123 14.0166 16.4133 12.9841 16.5521C11.9765 16.6876 10.686 16.6875 9.04298 16.6875H9.04297H8.95722H8.9572C7.31418 16.6875 6.02367 16.6876 5.01611 16.5521C3.98362 16.4133 3.16442 16.123 2.52078 15.4793C1.87713 14.8357 1.58685 14.0165 1.44804 12.984C1.31257 11.9765 1.31258 10.6859 1.31259 9.04291V8.95715C1.31258 7.31412 1.31257 6.02361 1.44804 5.01605C1.58685 3.98356 1.87713 3.16436 2.52078 2.52072C3.16442 1.87707 3.98362 1.58679 5.01611 1.44798C6.02367 1.31251 7.31418 1.31252 8.95721 1.31253H9.04297Z" fill="#26292E"/>
<path d="M4.74926 4.99395C4.84543 4.80588 5.03886 4.68753 5.25009 4.68753H7.33343C7.51405 4.68753 7.68368 4.77427 7.78943 4.92069L9.67423 7.5304L12.3523 4.85228C12.572 4.63261 12.9282 4.63261 13.1478 4.85228C13.3675 5.07195 13.3675 5.42811 13.1478 5.64778L10.3414 8.4542L13.2061 12.4207C13.3298 12.5919 13.3471 12.818 13.2509 13.0061C13.1548 13.1942 12.9613 13.3125 12.7501 13.3125H10.6668C10.4861 13.3125 10.3165 13.2258 10.2108 13.0794L8.32596 10.4697L5.64784 13.1478C5.42817 13.3674 5.07202 13.3674 4.85235 13.1478C4.63268 12.9281 4.63268 12.572 4.85235 12.3523L7.65877 9.54586L4.79409 5.57937C4.67041 5.40812 4.6531 5.18203 4.74926 4.99395Z" fill="#26292E"/>
</svg>
