<svg width="20" height="20" viewBox="0 0 20 20" fill="none" xmlns="http://www.w3.org/2000/svg">
<path d="M10.6252 12.0833C10.6252 12.4285 10.3453 12.7083 10.0002 12.7083C9.65498 12.7083 9.37516 12.4285 9.37516 12.0833V5.03173L9.37011 5.03768C9.19455 5.24488 9.02264 5.46385 8.86188 5.66862L8.82461 5.71609C8.66442 5.92003 8.49589 6.13429 8.36501 6.26895C8.12442 6.51647 7.72873 6.52209 7.48121 6.28151C7.23369 6.04092 7.22807 5.64524 7.46865 5.39771C7.54257 5.32167 7.66392 5.17016 7.84159 4.94397L7.8808 4.89402C8.03919 4.69224 8.22501 4.45551 8.41644 4.22959C8.62161 3.98746 8.85126 3.73597 9.08082 3.54045C9.19586 3.44247 9.32552 3.34583 9.46502 3.27118C9.59955 3.19918 9.78492 3.125 10.0002 3.125C10.2154 3.125 10.4008 3.19918 10.5353 3.27118C10.6748 3.34583 10.8045 3.44247 10.9195 3.54045C11.1491 3.73597 11.3787 3.98746 11.5839 4.22959C11.7753 4.4555 11.9611 4.6922 12.1195 4.89397L12.1587 4.94397C12.3364 5.17016 12.4578 5.32167 12.5317 5.39771C12.7723 5.64524 12.7666 6.04092 12.5191 6.28151C12.2716 6.52209 11.8759 6.51647 11.6353 6.26895C11.5044 6.13429 11.3359 5.92003 11.1757 5.71609L11.1385 5.66864C10.9777 5.46388 10.8058 5.24487 10.6302 5.03768L10.6252 5.03173V12.0833Z" fill="#FDFDFD"/>
<path d="M3.9585 13.75C3.9585 13.4048 3.67867 13.125 3.3335 13.125C2.98832 13.125 2.7085 13.4048 2.7085 13.75C2.7085 14.2806 2.73536 14.7492 2.82282 15.1473C2.91183 15.5525 3.07193 15.9236 3.36593 16.2176C3.65993 16.5116 4.03099 16.6717 4.43619 16.7607C4.83432 16.8481 5.30289 16.875 5.8335 16.875H14.1668C14.6974 16.875 15.166 16.8481 15.5641 16.7607C15.9693 16.6717 16.3404 16.5116 16.6344 16.2176C16.9284 15.9236 17.0885 15.5525 17.1775 15.1473C17.265 14.7492 17.2918 14.2806 17.2918 13.75C17.2918 13.4048 17.012 13.125 16.6668 13.125C16.3217 13.125 16.0418 13.4048 16.0418 13.75C16.0418 14.2536 16.0147 14.6146 15.9566 14.8791C15.9001 15.1366 15.823 15.2612 15.7505 15.3337C15.6781 15.4061 15.5534 15.4832 15.2959 15.5398C15.0314 15.5979 14.6704 15.625 14.1668 15.625H5.8335C5.32994 15.625 4.96893 15.5979 4.7044 15.5398C4.44694 15.4832 4.32227 15.4061 4.24981 15.3337C4.17736 15.2612 4.10026 15.1366 4.04371 14.8791C3.98559 14.6146 3.9585 14.2536 3.9585 13.75Z" fill="#FDFDFD"/>
</svg>
