<svg width="20" height="20" viewBox="0 0 20 20" fill="none" xmlns="http://www.w3.org/2000/svg">
<path d="M2.29163 9.97046C2.29163 5.73166 5.74067 2.29166 9.99996 2.29166C14.2592 2.29166 17.7083 5.73166 17.7083 9.97046C17.7083 11.0782 17.4732 12.1296 17.0506 13.0792C16.9103 13.3946 17.0521 13.764 17.3675 13.9043C17.6829 14.0447 18.0523 13.9028 18.1926 13.5874C18.685 12.481 18.9583 11.2567 18.9583 9.97046C18.9583 5.03713 14.9454 1.04166 9.99996 1.04166C5.0545 1.04166 1.04163 5.03713 1.04163 9.97046C1.04163 11.2567 1.3149 12.481 1.80729 13.5874C1.94763 13.9028 2.31705 14.0447 2.63241 13.9043C2.94777 13.764 3.08965 13.3946 2.94931 13.0792C2.5267 12.1296 2.29163 11.0782 2.29163 9.97046Z" fill="#161616"/>
<path fill-rule="evenodd" clip-rule="evenodd" d="M6.45829 8.33332C6.45829 6.37732 8.04395 4.79166 9.99996 4.79166C11.956 4.79166 13.5416 6.37732 13.5416 8.33332C13.5416 10.2893 11.956 11.875 9.99996 11.875C8.04395 11.875 6.45829 10.2893 6.45829 8.33332ZM9.99996 6.04166C8.73431 6.04166 7.70829 7.06767 7.70829 8.33332C7.70829 9.59898 8.73431 10.625 9.99996 10.625C11.2656 10.625 12.2916 9.59898 12.2916 8.33332C12.2916 7.06767 11.2656 6.04166 9.99996 6.04166Z" fill="#161616"/>
<path fill-rule="evenodd" clip-rule="evenodd" d="M13.8259 13.7173C13.897 13.7581 13.9865 13.8068 14.089 13.8625C14.5493 14.1126 15.2712 14.505 15.7651 14.9712C16.0726 15.2615 16.3908 15.6666 16.4492 16.1818C16.5124 16.7393 16.2556 17.2427 15.7944 17.6664C15.0202 18.3777 14.0789 18.9583 12.8579 18.9583H7.14237C5.92142 18.9583 4.98007 18.3777 4.20588 17.6664C3.74465 17.2427 3.48791 16.7393 3.5511 16.1818C3.60951 15.6666 3.92763 15.2615 4.23516 14.9712C4.72906 14.505 5.451 14.1126 5.91127 13.8625C6.01375 13.8068 6.10326 13.7581 6.17439 13.7173C8.51742 12.372 11.4829 12.372 13.8259 13.7173ZM13.2035 14.8013C11.2459 13.6773 8.7544 13.6773 6.79681 14.8013C6.68251 14.867 6.55926 14.9344 6.43163 15.0043C5.97152 15.2562 5.45437 15.5393 5.09315 15.8802C4.86804 16.0927 4.80235 16.2415 4.79315 16.3226C4.78874 16.3615 4.7806 16.497 5.05155 16.7459C5.70801 17.349 6.36005 17.7083 7.14237 17.7083H12.8579C13.6402 17.7083 14.2923 17.349 14.9487 16.7459C15.2197 16.497 15.2115 16.3615 15.2071 16.3226C15.1979 16.2415 15.1322 16.0927 14.9071 15.8802C14.5459 15.5393 14.0288 15.2562 13.5687 15.0043C13.4411 14.9344 13.3178 14.8669 13.2035 14.8013Z" fill="#161616"/>
</svg>
