<svg width="18" height="18" viewBox="0 0 18 18" fill="none" xmlns="http://www.w3.org/2000/svg">
<path fill-rule="evenodd" clip-rule="evenodd" d="M6.72997 4.68765L6.66047 4.68758C6.30073 4.68697 5.96886 4.68641 5.64248 4.83549C5.40536 4.9438 5.2036 5.12782 5.05668 5.3116C4.90977 5.49539 4.77471 5.73273 4.72129 5.98788C4.64806 6.33764 4.70845 6.60376 4.77306 6.88844L4.78198 6.92782C5.10786 8.37103 5.86973 9.78618 7.04184 10.9583C8.21394 12.1304 9.62909 12.8923 11.0723 13.2182L11.1117 13.2271C11.3964 13.2917 11.6625 13.3521 12.0122 13.2788C12.2674 13.2254 12.5047 13.0904 12.6885 12.9434C12.8723 12.7965 13.0563 12.5948 13.1646 12.3577C13.3137 12.0313 13.3132 11.6994 13.3125 11.3397L13.3125 11.2702C13.3125 11.1049 13.3074 10.8265 13.2002 10.5693C13.0721 10.262 12.8082 10.0087 12.3947 9.94384L12.3904 9.94317C11.8779 9.86285 11.4881 9.80176 11.2125 9.7617C11.0746 9.74165 10.9601 9.7261 10.8705 9.71593C10.7969 9.70757 10.6956 9.69706 10.6109 9.70202C10.2437 9.7235 9.95172 9.87244 9.72553 10.0274C9.58158 10.1261 9.42516 10.2582 9.30216 10.3621C9.25385 10.4029 9.21069 10.4393 9.17547 10.4677L8.66402 10.8795C8.37737 10.6651 8.1007 10.4262 7.83733 10.1628C7.57396 9.89943 7.33502 9.62276 7.12062 9.33611L7.53242 8.82465C7.56078 8.78943 7.59723 8.74628 7.63804 8.69797C7.74192 8.57497 7.87404 8.41854 7.97268 8.2746C8.12769 8.04841 8.27662 7.75638 8.29811 7.38921C8.30307 7.30448 8.29256 7.20319 8.2842 7.12958C8.27402 7.04002 8.25848 6.92554 8.23842 6.78761C8.19836 6.512 8.1373 6.12241 8.05696 5.60976L8.05629 5.60546C7.99147 5.19188 7.73817 4.92803 7.43085 4.79996C7.17359 4.69276 6.89524 4.68765 6.72997 4.68765ZM11.3201 12.1208C10.7633 11.9951 10.2075 11.7923 9.67098 11.5131L9.88101 11.344C9.96331 11.2777 10.0296 11.2214 10.0887 11.1711C10.1856 11.0888 10.2634 11.0227 10.3615 10.9555C10.4875 10.8691 10.5794 10.8337 10.664 10.826C10.6649 10.8261 10.6663 10.8262 10.6682 10.8264C10.6781 10.8271 10.7015 10.829 10.7436 10.8337C10.8154 10.8419 10.9161 10.8554 11.0507 10.875C11.3112 10.9129 11.6795 10.9705 12.1736 11.0479C12.1756 11.0586 12.1775 11.0714 12.1793 11.0863C12.1853 11.1367 12.1875 11.1965 12.1875 11.2702C12.1875 11.7387 12.1767 11.8129 12.1413 11.8902C12.1271 11.9215 12.0775 11.9916 11.9861 12.0647C11.8947 12.1377 11.8153 12.1707 11.7817 12.1777C11.6906 12.1968 11.65 12.1953 11.3201 12.1208ZM6.65616 8.11912L6.48705 8.32915C6.20786 7.79258 6.00508 7.23682 5.87935 6.68003C5.80484 6.35008 5.80333 6.30955 5.82241 6.21843C5.82945 6.18481 5.86238 6.10543 5.93543 6.01405C6.00848 5.92267 6.07866 5.87306 6.10989 5.85879C6.18726 5.82345 6.26139 5.81266 6.72997 5.81266C6.80363 5.81266 6.86343 5.81487 6.91383 5.82083C6.92877 5.82259 6.94148 5.82454 6.9522 5.82649C7.02963 6.32061 7.08726 6.68897 7.12513 6.94945C7.14469 7.08403 7.15822 7.18471 7.16638 7.25656C7.17116 7.29861 7.17298 7.32198 7.17375 7.33193C7.1739 7.33379 7.17401 7.33518 7.17409 7.33613C7.16646 7.42071 7.131 7.51267 7.04468 7.63865C6.97747 7.73672 6.91132 7.81455 6.82902 7.91139C6.77874 7.97056 6.72242 8.03682 6.65616 8.11912Z" fill="#1B8354"/>
<path fill-rule="evenodd" clip-rule="evenodd" d="M8.99998 0.9375C4.54719 0.9375 0.937482 4.5472 0.937482 9C0.937482 10.1107 1.16239 11.1703 1.56967 12.1346C1.67651 12.3876 1.74854 12.5585 1.79664 12.6899C1.84571 12.8239 1.85261 12.8723 1.85347 12.8848C1.85834 12.9552 1.84052 13.051 1.71891 13.5055L0.956597 16.3546C0.904672 16.5487 0.960184 16.7557 1.10223 16.8977C1.24429 17.0398 1.45131 17.0953 1.64537 17.0434L4.49445 16.2811C4.94898 16.1595 5.04473 16.1416 5.11516 16.1465C5.12766 16.1474 5.17613 16.1543 5.31011 16.2033C5.44147 16.2514 5.61242 16.3235 5.86539 16.4303C6.82972 16.8376 7.88931 17.0625 8.99998 17.0625C13.4528 17.0625 17.0625 13.4528 17.0625 9C17.0625 4.5472 13.4528 0.9375 8.99998 0.9375ZM2.06248 9C2.06248 5.16852 5.16851 2.0625 8.99998 2.0625C12.8315 2.0625 15.9375 5.16852 15.9375 9C15.9375 12.8315 12.8315 15.9375 8.99998 15.9375C8.04236 15.9375 7.13141 15.7438 6.30309 15.394L6.29008 15.3885C6.05351 15.2885 5.85718 15.2056 5.69699 15.147C5.53649 15.0882 5.36753 15.0363 5.19284 15.0242C4.90918 15.0046 4.61496 15.0837 4.27691 15.1746L2.29498 15.705L2.82534 13.7231C2.91627 13.385 2.99542 13.0908 2.97579 12.8072C2.9637 12.6325 2.91181 12.4635 2.85303 12.303C2.79437 12.1428 2.71147 11.9465 2.61157 11.71L2.60603 11.6969C2.25619 10.8686 2.06248 9.95763 2.06248 9Z" fill="#1B8354"/>
</svg>
