<svg width="84" height="18" viewBox="0 0 84 18" fill="none" xmlns="http://www.w3.org/2000/svg">
<path d="M0.937513 9C0.937513 4.5472 4.54722 0.9375 9.00001 0.9375C13.4528 0.9375 17.0625 4.5472 17.0625 9C17.0625 13.4528 13.4528 17.0625 9.00001 17.0625C7.88934 17.0625 6.82975 16.8376 5.86542 16.4303C5.61245 16.3235 5.4415 16.2514 5.31014 16.2033C5.17616 16.1543 5.12769 16.1474 5.11519 16.1465C5.04477 16.1416 4.94901 16.1595 4.49448 16.2811L1.6454 17.0434C1.45134 17.0953 1.24432 17.0398 1.10227 16.8977C0.960215 16.7557 0.904703 16.5487 0.956627 16.3546L1.71894 13.5055C1.84055 13.051 1.85838 12.9552 1.8535 12.8848C1.85264 12.8723 1.84574 12.8239 1.79668 12.6899C1.74857 12.5585 1.67654 12.3876 1.5697 12.1346C1.16242 11.1703 0.937513 10.1107 0.937513 9Z" fill="#1B8354"/>
<path d="M6.66018 4.68745L6.72968 4.68753C6.89496 4.68753 7.1733 4.69263 7.43056 4.79984C7.73789 4.92791 7.99118 5.19176 8.056 5.60534L8.05667 5.60961L8.05667 5.60962C8.13701 6.12227 8.19807 6.51188 8.23814 6.78749C8.25819 6.92542 8.27373 7.0399 8.28391 7.12946C8.29227 7.20307 8.30278 7.30436 8.29782 7.38909C8.27633 7.75626 8.1274 8.04829 7.97239 8.27448C7.87375 8.41842 7.74164 8.57484 7.63775 8.69784L7.6377 8.6979C7.59691 8.74619 7.56048 8.78932 7.53213 8.82453C7.37098 9.02469 7.2904 9.12477 7.26681 9.24664C7.25389 9.3134 7.25598 9.39548 7.27227 9.46149C7.30203 9.58201 7.38 9.66936 7.53595 9.84407C7.63249 9.95222 7.73285 10.0585 7.83704 10.1627C7.94123 10.2669 8.0475 10.3672 8.15564 10.4638C8.33035 10.6197 8.41771 10.6977 8.53822 10.7274C8.60424 10.7437 8.68632 10.7458 8.75308 10.7329C8.87495 10.7093 8.97503 10.6287 9.17518 10.4676C9.2104 10.4392 9.25356 10.4028 9.30187 10.362C9.42487 10.2581 9.58129 10.126 9.72524 10.0273C9.95143 9.87232 10.2435 9.72338 10.6106 9.70189C10.6954 9.69694 10.7966 9.70745 10.8703 9.71581C10.9598 9.72598 11.0743 9.74153 11.2122 9.76158C11.4878 9.80164 11.8774 9.8627 12.3901 9.94304L12.3944 9.94372C12.808 10.0085 13.0718 10.2618 13.1999 10.5692C13.3071 10.8264 13.3122 11.1048 13.3122 11.27L13.3123 11.3395C13.3129 11.6993 13.3134 12.0311 13.1643 12.3575C13.056 12.5946 12.872 12.7964 12.6882 12.9433C12.5044 13.0902 12.2671 13.2253 12.012 13.2787C11.6622 13.3519 11.3961 13.2916 11.1114 13.2269L11.072 13.218C9.6288 12.8921 8.21365 12.1303 7.04155 10.9582C5.86944 9.78606 5.10757 8.37091 4.78169 6.9277L4.77277 6.88832C4.70816 6.60364 4.64777 6.33751 4.721 5.98776C4.77442 5.73261 4.90948 5.49527 5.05639 5.31148C5.20331 5.12769 5.40507 4.94368 5.64219 4.83537C5.96857 4.68629 6.30044 4.68685 6.66018 4.68745Z" fill="white"/>
<path d="M34.72 5.1L31.876 13.5H30.412L28.384 6.9L26.32 13.5H24.868L22.036 5.1H23.56L25.636 11.952L27.712 5.1H29.104L31.192 11.952L33.256 5.1H34.72ZM39.5857 7.068C40.3297 7.068 40.9097 7.288 41.3257 7.728C41.7497 8.16 41.9617 8.76 41.9617 9.528V13.5H40.5817V9.912C40.5817 9.432 40.4457 9.056 40.1737 8.784C39.9017 8.504 39.5257 8.364 39.0457 8.364C38.4857 8.372 38.0417 8.564 37.7137 8.94C37.3857 9.308 37.2217 9.78 37.2217 10.356V13.5H35.8417V4.596H37.2217V8.364C37.6617 7.5 38.4497 7.068 39.5857 7.068ZM47.6371 13.5V12.72C47.1811 13.28 46.4771 13.56 45.5251 13.56C45.0771 13.56 44.6811 13.476 44.3371 13.308C44.0011 13.132 43.7411 12.896 43.5571 12.6C43.3731 12.296 43.2811 11.956 43.2811 11.58C43.2811 10.996 43.4931 10.532 43.9171 10.188C44.3411 9.844 44.9331 9.668 45.6931 9.66H47.6251V9.468C47.6251 9.06 47.4931 8.744 47.2291 8.52C46.9731 8.296 46.5971 8.184 46.1011 8.184C45.4851 8.184 44.8571 8.4 44.2171 8.832L43.6531 7.872C44.1411 7.584 44.5771 7.38 44.9611 7.26C45.3531 7.132 45.8331 7.068 46.4011 7.068C47.2171 7.068 47.8491 7.268 48.2971 7.668C48.7451 8.06 48.9731 8.608 48.9811 9.312L48.9931 13.5H47.6371ZM45.8131 12.468C46.3011 12.468 46.7131 12.356 47.0491 12.132C47.3931 11.9 47.5851 11.608 47.6251 11.256V10.668H45.8971C45.4411 10.668 45.1051 10.736 44.8891 10.872C44.6811 11 44.5771 11.216 44.5771 11.52C44.5771 11.808 44.6851 12.04 44.9011 12.216C45.1251 12.384 45.4291 12.468 45.8131 12.468ZM54.4523 13.092C53.9243 13.404 53.4003 13.56 52.8803 13.56C52.3603 13.56 51.9323 13.404 51.5963 13.092C51.2603 12.78 51.0923 12.316 51.0923 11.7V8.388H50.1923V7.356H51.0923V5.604H52.4603V7.356H54.3443V8.388H52.4603V11.448C52.4603 11.768 52.5163 11.992 52.6283 12.12C52.7403 12.248 52.9123 12.312 53.1443 12.312C53.4003 12.312 53.7203 12.22 54.1043 12.036L54.4523 13.092ZM59.363 8.724C59.083 8.548 58.775 8.412 58.439 8.316C58.111 8.212 57.807 8.16 57.527 8.16C57.239 8.16 57.011 8.212 56.843 8.316C56.675 8.42 56.591 8.58 56.591 8.796C56.591 9.012 56.687 9.176 56.879 9.288C57.079 9.4 57.407 9.528 57.863 9.672C58.295 9.8 58.651 9.928 58.931 10.056C59.219 10.184 59.463 10.376 59.663 10.632C59.871 10.888 59.975 11.224 59.975 11.64C59.975 12.264 59.739 12.74 59.267 13.068C58.803 13.388 58.223 13.548 57.527 13.548C57.047 13.548 56.575 13.472 56.111 13.32C55.655 13.16 55.271 12.94 54.959 12.66L55.451 11.676C55.723 11.916 56.055 12.108 56.447 12.252C56.847 12.396 57.227 12.468 57.587 12.468C57.899 12.468 58.151 12.412 58.343 12.3C58.535 12.188 58.631 12.016 58.631 11.784C58.631 11.608 58.571 11.464 58.451 11.352C58.339 11.232 58.199 11.14 58.031 11.076C57.863 11.004 57.619 10.92 57.299 10.824C56.875 10.696 56.527 10.572 56.255 10.452C55.991 10.324 55.763 10.14 55.571 9.9C55.379 9.652 55.283 9.324 55.283 8.916C55.283 8.308 55.507 7.848 55.955 7.536C56.403 7.216 56.963 7.056 57.635 7.056C58.043 7.056 58.443 7.116 58.835 7.236C59.235 7.348 59.579 7.504 59.867 7.704L59.363 8.724ZM65.1918 13.5V12.72C64.7358 13.28 64.0318 13.56 63.0798 13.56C62.6318 13.56 62.2358 13.476 61.8918 13.308C61.5558 13.132 61.2958 12.896 61.1118 12.6C60.9278 12.296 60.8358 11.956 60.8358 11.58C60.8358 10.996 61.0478 10.532 61.4718 10.188C61.8958 9.844 62.4878 9.668 63.2478 9.66H65.1798V9.468C65.1798 9.06 65.0478 8.744 64.7838 8.52C64.5278 8.296 64.1518 8.184 63.6558 8.184C63.0398 8.184 62.4118 8.4 61.7718 8.832L61.2078 7.872C61.6958 7.584 62.1318 7.38 62.5158 7.26C62.9078 7.132 63.3878 7.068 63.9558 7.068C64.7718 7.068 65.4038 7.268 65.8518 7.668C66.2998 8.06 66.5278 8.608 66.5358 9.312L66.5478 13.5H65.1918ZM63.3678 12.468C63.8558 12.468 64.2678 12.356 64.6038 12.132C64.9478 11.9 65.1398 11.608 65.1798 11.256V10.668H63.4518C62.9958 10.668 62.6598 10.736 62.4438 10.872C62.2358 11 62.1318 11.216 62.1318 11.52C62.1318 11.808 62.2398 12.04 62.4558 12.216C62.6798 12.384 62.9838 12.468 63.3678 12.468ZM72.067 7.068C72.667 7.068 73.195 7.204 73.651 7.476C74.115 7.748 74.475 8.132 74.731 8.628C74.987 9.124 75.115 9.692 75.115 10.332C75.115 10.964 74.987 11.524 74.731 12.012C74.483 12.5 74.131 12.88 73.675 13.152C73.219 13.416 72.691 13.548 72.091 13.548C71.587 13.548 71.143 13.452 70.759 13.26C70.375 13.06 70.067 12.772 69.835 12.396V15.828H68.455V7.116H69.835V8.22C70.067 7.844 70.371 7.56 70.747 7.368C71.131 7.168 71.571 7.068 72.067 7.068ZM71.779 12.372C72.155 12.372 72.491 12.284 72.787 12.108C73.083 11.932 73.311 11.684 73.471 11.364C73.639 11.044 73.723 10.684 73.723 10.284C73.723 9.892 73.639 9.54 73.471 9.228C73.311 8.916 73.083 8.672 72.787 8.496C72.491 8.312 72.155 8.22 71.779 8.22C71.403 8.22 71.067 8.308 70.771 8.484C70.475 8.66 70.243 8.908 70.075 9.228C69.915 9.54 69.835 9.892 69.835 10.284C69.835 10.9 70.015 11.404 70.375 11.796C70.743 12.18 71.211 12.372 71.779 12.372ZM80.2233 7.068C80.8233 7.068 81.3513 7.204 81.8073 7.476C82.2713 7.748 82.6313 8.132 82.8873 8.628C83.1433 9.124 83.2713 9.692 83.2713 10.332C83.2713 10.964 83.1433 11.524 82.8873 12.012C82.6393 12.5 82.2873 12.88 81.8313 13.152C81.3753 13.416 80.8473 13.548 80.2473 13.548C79.7433 13.548 79.2993 13.452 78.9153 13.26C78.5313 13.06 78.2233 12.772 77.9913 12.396V15.828H76.6113V7.116H77.9913V8.22C78.2233 7.844 78.5273 7.56 78.9033 7.368C79.2873 7.168 79.7273 7.068 80.2233 7.068ZM79.9353 12.372C80.3113 12.372 80.6473 12.284 80.9433 12.108C81.2393 11.932 81.4673 11.684 81.6273 11.364C81.7953 11.044 81.8793 10.684 81.8793 10.284C81.8793 9.892 81.7953 9.54 81.6273 9.228C81.4673 8.916 81.2393 8.672 80.9433 8.496C80.6473 8.312 80.3113 8.22 79.9353 8.22C79.5593 8.22 79.2233 8.308 78.9273 8.484C78.6313 8.66 78.3993 8.908 78.2313 9.228C78.0713 9.54 77.9913 9.892 77.9913 10.284C77.9913 10.9 78.1713 11.404 78.5312 11.796C78.8993 12.18 79.3673 12.372 79.9353 12.372Z" fill="black"/>
</svg>
