<svg width="18" height="18" viewBox="0 0 18 18" fill="none" xmlns="http://www.w3.org/2000/svg">
<path d="M0.937513 9C0.937513 4.5472 4.54722 0.9375 9.00001 0.9375C13.4528 0.9375 17.0625 4.5472 17.0625 9C17.0625 13.4528 13.4528 17.0625 9.00001 17.0625C7.88934 17.0625 6.82975 16.8376 5.86542 16.4303C5.61245 16.3235 5.4415 16.2514 5.31014 16.2033C5.17616 16.1543 5.12769 16.1474 5.11519 16.1465C5.04477 16.1416 4.94901 16.1595 4.49448 16.2811L1.6454 17.0434C1.45134 17.0953 1.24432 17.0398 1.10227 16.8977C0.960215 16.7557 0.904703 16.5487 0.956627 16.3546L1.71894 13.5055C1.84055 13.051 1.85838 12.9552 1.8535 12.8848C1.85264 12.8723 1.84574 12.8239 1.79668 12.6899C1.74857 12.5585 1.67654 12.3876 1.5697 12.1346C1.16242 11.1703 0.937513 10.1107 0.937513 9Z" fill="#1B8354"/>
<path d="M6.66018 4.68745L6.72968 4.68753C6.89496 4.68753 7.1733 4.69263 7.43056 4.79984C7.73789 4.92791 7.99118 5.19176 8.056 5.60534L8.05667 5.60961L8.05667 5.60962C8.13701 6.12227 8.19807 6.51188 8.23814 6.78749C8.25819 6.92542 8.27373 7.0399 8.28391 7.12946C8.29227 7.20307 8.30278 7.30436 8.29782 7.38909C8.27633 7.75626 8.1274 8.04829 7.97239 8.27448C7.87375 8.41842 7.74164 8.57484 7.63775 8.69784L7.6377 8.6979C7.59691 8.74619 7.56048 8.78932 7.53213 8.82453C7.37098 9.02469 7.2904 9.12477 7.26681 9.24664C7.25389 9.3134 7.25598 9.39548 7.27227 9.46149C7.30203 9.58201 7.38 9.66936 7.53595 9.84407C7.63249 9.95222 7.73285 10.0585 7.83704 10.1627C7.94123 10.2669 8.0475 10.3672 8.15564 10.4638C8.33035 10.6197 8.41771 10.6977 8.53822 10.7274C8.60424 10.7437 8.68632 10.7458 8.75308 10.7329C8.87495 10.7093 8.97503 10.6287 9.17518 10.4676C9.2104 10.4392 9.25356 10.4028 9.30187 10.362C9.42487 10.2581 9.58129 10.126 9.72524 10.0273C9.95143 9.87232 10.2435 9.72338 10.6106 9.70189C10.6954 9.69694 10.7966 9.70745 10.8703 9.71581C10.9598 9.72598 11.0743 9.74153 11.2122 9.76158C11.4878 9.80164 11.8774 9.8627 12.3901 9.94304L12.3944 9.94372C12.808 10.0085 13.0718 10.2618 13.1999 10.5692C13.3071 10.8264 13.3122 11.1048 13.3122 11.27L13.3123 11.3395C13.3129 11.6993 13.3134 12.0311 13.1643 12.3575C13.056 12.5946 12.872 12.7964 12.6882 12.9433C12.5044 13.0902 12.2671 13.2253 12.012 13.2787C11.6622 13.3519 11.3961 13.2916 11.1114 13.2269L11.072 13.218C9.6288 12.8921 8.21365 12.1303 7.04155 10.9582C5.86944 9.78606 5.10757 8.37091 4.78169 6.9277L4.77277 6.88832C4.70816 6.60364 4.64777 6.33751 4.721 5.98776C4.77442 5.73261 4.90948 5.49527 5.05639 5.31148C5.20331 5.12769 5.40507 4.94368 5.64219 4.83537C5.96857 4.68629 6.30044 4.68685 6.66018 4.68745Z" fill="white"/>
</svg>
