<svg width="12" height="8" viewBox="0 0 12 8" fill="none" xmlns="http://www.w3.org/2000/svg">
<path fill-rule="evenodd" clip-rule="evenodd" d="M8.00008 0.833328C7.72394 0.833328 7.50008 1.05719 7.50008 1.33333C7.50008 1.60947 7.72394 1.83333 8.00008 1.83333H10.1263L7.64653 4.31311C7.34357 4.61607 7.14722 4.81123 6.98396 4.93962C6.82964 5.06097 6.75672 5.0797 6.71161 5.08377C6.68176 5.08645 6.65173 5.08645 6.62189 5.08377C6.57677 5.0797 6.50386 5.06097 6.34954 4.93962C6.18628 4.81123 5.98993 4.61607 5.68697 4.31311L5.66652 4.29266C5.38983 4.01594 5.15132 3.77741 4.93543 3.60764C4.7053 3.42667 4.45059 3.28205 4.13465 3.25359C4.04512 3.24553 3.95504 3.24553 3.86551 3.25359C3.54957 3.28205 3.29487 3.42667 3.06473 3.60764C2.84884 3.77741 2.61033 4.01594 2.33363 4.29267L0.313195 6.31311C0.117933 6.50837 0.117933 6.82495 0.313195 7.02021C0.508457 7.21548 0.825039 7.21548 1.0203 7.02021L3.0203 5.02022C3.32326 4.71725 3.51961 4.52209 3.68287 4.39371C3.83719 4.27236 3.91011 4.25362 3.95522 4.24956C3.98507 4.24687 4.01509 4.24687 4.04494 4.24956C4.09006 4.25362 4.16297 4.27236 4.31729 4.39371C4.48055 4.52209 4.6769 4.71725 4.97986 5.02022L5.00031 5.04067L5.00032 5.04067C5.27701 5.31739 5.51551 5.55592 5.7314 5.72569C5.96153 5.90665 6.21624 6.05127 6.53218 6.07973C6.62171 6.0878 6.71179 6.0878 6.80132 6.07973C7.11726 6.05127 7.37196 5.90665 7.60209 5.72569C7.81798 5.55592 8.05649 5.31739 8.33317 5.04068L8.33318 5.04067L10.8334 2.54044V4.66666C10.8334 4.9428 11.0573 5.16666 11.3334 5.16666C11.6096 5.16666 11.8334 4.9428 11.8334 4.66666V1.33333C11.8334 1.20537 11.7846 1.07741 11.687 0.979775C11.639 0.931837 11.5838 0.895668 11.5248 0.871268C11.4659 0.846821 11.4012 0.833328 11.3334 0.833328H8.00008Z" fill="#1B8354"/>
</svg>
