<svg width="22" height="22" viewBox="0 0 22 22" fill="none" xmlns="http://www.w3.org/2000/svg">
<path opacity="0.4" d="M11.389 0.309008C10.149 0.229008 8.84889 0.229008 7.60889 0.309008C3.66889 0.569008 0.538965 3.71901 0.288965 7.65901C0.238965 8.38901 0.238965 9.14903 0.288965 9.87903C0.378965 11.359 1.02896 12.6791 1.73896 13.7391C1.91896 14.0891 1.83896 14.649 1.43896 15.379L1.41895 15.4191C1.28895 15.6691 1.15891 15.9191 1.07891 16.1391C0.998906 16.3691 0.898906 16.759 1.12891 17.159C1.34891 17.519 1.67896 17.649 1.93896 17.699C2.14896 17.739 2.40896 17.739 2.63896 17.749H2.67891C3.90891 17.779 4.78891 17.4191 5.47891 16.9191C5.58891 16.8391 5.65895 16.7791 5.71895 16.7391C5.81895 16.7791 5.93889 16.829 6.10889 16.899C6.57889 17.089 7.11889 17.1991 7.60889 17.2391C8.84889 17.3191 10.149 17.3191 11.389 17.2391C15.329 16.9791 18.4589 13.829 18.7089 9.87903C18.7589 9.14903 18.7589 8.38901 18.7089 7.65901C18.4589 3.71901 15.329 0.569008 11.389 0.309008Z" fill="#D5222F"/>
<path d="M5.74854 11C5.74854 11.41 6.08854 11.75 6.49854 11.75H12.4985C12.9085 11.75 13.2485 11.41 13.2485 11C13.2485 10.59 12.9085 10.25 12.4985 10.25H6.49854C6.08854 10.25 5.74854 10.59 5.74854 11Z" fill="#D5222F"/>
<path d="M5.74854 6.99997C5.74854 7.40997 6.08854 7.74997 6.49854 7.74997H9.49854C9.90854 7.74997 10.2485 7.40997 10.2485 6.99997C10.2485 6.58997 9.90854 6.24997 9.49854 6.24997H6.49854C6.08854 6.24997 5.74854 6.58997 5.74854 6.99997Z" fill="#D5222F"/>
<path d="M11.4886 18.7301C16.1786 18.4201 19.9086 14.6701 20.2086 9.9801C20.2486 9.3501 20.2686 9.04014 20.4386 8.97014C20.4786 8.95014 20.5286 8.94016 20.5786 8.94016C20.7586 8.95016 20.8786 9.22016 21.1086 9.74015C21.4486 10.5202 21.6586 11.3602 21.7186 12.2402C21.7586 12.9302 21.7586 13.6401 21.7186 14.3301C21.6286 15.7201 21.0086 16.9701 20.3386 17.9701C20.1886 18.2801 20.2486 18.7701 20.6186 19.4601L20.6386 19.5001C20.6554 19.5323 20.6725 19.5648 20.6895 19.5973C20.7941 19.7966 20.8998 19.9982 20.9686 20.1701C21.0486 20.4001 21.1386 20.7901 20.9086 21.1701C20.6986 21.5301 20.3686 21.6501 20.1186 21.7001C19.9616 21.7315 19.7737 21.7383 19.5986 21.7446C19.5506 21.7463 19.5037 21.748 19.4586 21.7501H19.4186C18.2486 21.7801 17.4186 21.4401 16.7586 20.9601C16.7279 20.9409 16.7032 20.9247 16.6821 20.9109C16.648 20.8886 16.6233 20.8724 16.5986 20.8601C16.5587 20.8501 16.5189 20.8501 16.489 20.8501C16.439 20.8501 16.3886 20.8701 16.2986 20.9101L16.2086 20.9501C15.7586 21.1301 15.2486 21.2401 14.7886 21.2701C13.6086 21.3501 12.3886 21.3501 11.2086 21.2701C9.61855 21.1601 8.18859 20.5401 7.04859 19.5801C6.68859 19.2901 6.50859 19.1401 6.49859 19.0201C6.48859 18.9201 6.52859 18.8301 6.59859 18.7601C6.6932 18.6844 6.93992 18.6982 7.42349 18.7253C7.45107 18.7269 7.47942 18.7285 7.50855 18.7301C8.81855 18.8201 10.1786 18.8201 11.4886 18.7301Z" fill="#D5222F"/>
</svg>
