<svg width="20" height="22" viewBox="0 0 20 22" fill="none" xmlns="http://www.w3.org/2000/svg">
<path opacity="0.4" d="M0.75 11.9459C0.749988 9.87042 0.749978 8.24043 0.911573 6.9678C1.07678 5.66674 1.42236 4.62594 2.19954 3.80305C2.98243 2.97411 3.98228 2.59998 5.23089 2.42224C6.44104 2.24997 8.10673 2.24998 10.0596 2.25L10.0596 2.25L10.0597 2.25C12.0125 2.24998 13.559 2.24997 14.7691 2.42224C16.0177 2.59998 17.0176 2.97411 17.8005 3.80305C18.5776 4.62594 18.9232 5.66674 19.0884 6.9678C19.25 8.24043 19.25 9.87043 19.25 11.9459L19.25 11.9459C19.25 14.0214 19.25 15.7596 19.0884 17.0322C18.9232 18.3333 18.5776 19.3741 17.8005 20.1969C17.0176 21.0259 16.0177 21.4 14.7691 21.5778C13.559 21.75 12.0125 21.75 10.0596 21.75L10.0596 21.75C8.10675 21.75 6.44104 21.75 5.23089 21.5778C3.98228 21.4 2.98243 21.0259 2.19954 20.1969C1.42236 19.3741 1.07678 18.3333 0.911574 17.0322C0.749978 15.7596 0.749988 14.0214 0.75 11.9459L0.75 11.9459Z" fill="#D5222F"/>
<path d="M7 1.25C7 0.697715 6.55228 0.25 6 0.25C5.44772 0.25 5 0.697715 5 1.25V3.25C5 3.80228 5.44772 4.25 6 4.25C6.55228 4.25 7 3.80228 7 3.25V1.25Z" fill="#D5222F"/>
<path d="M15 1.25C15 0.697715 14.5523 0.25 14 0.25C13.4477 0.25 13 0.697715 13 1.25V3.25C13 3.80228 13.4477 4.25 14 4.25C14.5523 4.25 15 3.80228 15 3.25V1.25Z" fill="#D5222F"/>
<path d="M10.0001 5.75C8.48132 5.75 7.2501 6.98122 7.2501 8.5C7.2501 10.0188 8.48132 11.25 10.0001 11.25C11.5189 11.25 12.7501 10.0188 12.7501 8.5C12.7501 6.98122 11.5189 5.75 10.0001 5.75Z" fill="#D5222F"/>
<path d="M14.2143 14.6697C13.8435 14.2614 13.1375 13.8137 12.8275 13.6177C11.1004 12.4608 8.89978 12.4608 7.17272 13.6177C6.86266 13.8137 6.15667 14.2614 5.78592 14.6697C5.55059 14.9288 5.30253 15.2967 5.25726 15.7626C5.20867 16.2627 5.40665 16.7221 5.76846 17.1099C6.31558 17.6963 7.04719 18.25 8.04048 18.25H11.9597C12.953 18.25 13.6846 17.6963 14.2317 17.1099C14.5935 16.7221 14.7915 16.2627 14.7429 15.7626C14.6977 15.2967 14.4496 14.9288 14.2143 14.6697Z" fill="#D5222F"/>
</svg>
