<svg width="563" height="439" viewBox="0 0 563 439" fill="none" xmlns="http://www.w3.org/2000/svg">
<rect width="563" height="439" rx="12" fill="white"/>
<g clip-path="url(#clip0_49_459)">
<rect x="287" y="34" width="14" height="14" rx="7" fill="#B1B1B1"/>
<path d="M313.86 37.004C314.684 37.004 315.436 37.192 316.116 37.568C316.796 37.944 317.332 38.46 317.724 39.116C318.116 39.772 318.312 40.496 318.312 41.288C318.312 42.088 318.116 42.816 317.724 43.472C317.332 44.128 316.796 44.648 316.116 45.032C315.436 45.416 314.684 45.608 313.86 45.608C313.036 45.608 312.284 45.416 311.604 45.032C310.924 44.648 310.388 44.128 309.996 43.472C309.604 42.816 309.408 42.088 309.408 41.288C309.408 40.496 309.604 39.772 309.996 39.116C310.388 38.46 310.924 37.944 311.604 37.568C312.284 37.192 313.036 37.004 313.86 37.004ZM313.872 38.288C313.328 38.288 312.824 38.424 312.36 38.696C311.896 38.96 311.528 39.32 311.256 39.776C310.984 40.232 310.848 40.736 310.848 41.288C310.848 41.84 310.984 42.348 311.256 42.812C311.536 43.276 311.904 43.644 312.36 43.916C312.824 44.188 313.328 44.324 313.872 44.324C314.416 44.324 314.916 44.188 315.372 43.916C315.828 43.644 316.188 43.276 316.452 42.812C316.724 42.348 316.86 41.84 316.86 41.288C316.86 40.736 316.724 40.232 316.452 39.776C316.188 39.32 315.828 38.96 315.372 38.696C314.916 38.424 314.416 38.288 313.872 38.288ZM325.531 39.116V45.5H324.151V44.252C323.735 45.1 322.975 45.532 321.871 45.548C321.143 45.548 320.571 45.328 320.155 44.888C319.739 44.448 319.531 43.848 319.531 43.088V39.116H320.911V42.704C320.911 43.184 321.043 43.564 321.307 43.844C321.571 44.116 321.935 44.252 322.399 44.252C322.935 44.244 323.359 44.056 323.671 43.688C323.991 43.312 324.151 42.836 324.151 42.26V39.116H325.531ZM331.187 45.092C330.659 45.404 330.135 45.56 329.615 45.56C329.095 45.56 328.667 45.404 328.331 45.092C327.995 44.78 327.827 44.316 327.827 43.7V40.388H326.927V39.356H327.827V37.604H329.195V39.356H331.079V40.388H329.195V43.448C329.195 43.768 329.251 43.992 329.363 44.12C329.475 44.248 329.647 44.312 329.879 44.312C330.135 44.312 330.455 44.22 330.839 44.036L331.187 45.092ZM336.133 39.068C336.733 39.068 337.261 39.204 337.717 39.476C338.181 39.748 338.541 40.132 338.797 40.628C339.053 41.124 339.181 41.692 339.181 42.332C339.181 42.964 339.053 43.524 338.797 44.012C338.549 44.5 338.197 44.88 337.741 45.152C337.285 45.416 336.757 45.548 336.157 45.548C335.653 45.548 335.209 45.452 334.825 45.26C334.441 45.06 334.133 44.772 333.901 44.396V45.5H332.521V36.596H333.901V40.22C334.133 39.844 334.437 39.56 334.813 39.368C335.197 39.168 335.637 39.068 336.133 39.068ZM335.845 44.372C336.221 44.372 336.557 44.284 336.853 44.108C337.149 43.932 337.377 43.684 337.537 43.364C337.705 43.044 337.789 42.684 337.789 42.284C337.789 41.892 337.705 41.54 337.537 41.228C337.377 40.916 337.149 40.672 336.853 40.496C336.557 40.312 336.221 40.22 335.845 40.22C335.469 40.22 335.133 40.308 334.837 40.484C334.541 40.66 334.309 40.908 334.141 41.228C333.981 41.54 333.901 41.892 333.901 42.284C333.901 42.9 334.081 43.404 334.441 43.796C334.809 44.18 335.277 44.372 335.845 44.372ZM343.354 39.068C344.002 39.068 344.578 39.204 345.082 39.476C345.586 39.748 345.978 40.128 346.258 40.616C346.538 41.104 346.678 41.664 346.678 42.296C346.678 42.936 346.538 43.504 346.258 44C345.978 44.488 345.586 44.868 345.082 45.14C344.578 45.412 344.002 45.548 343.354 45.548C342.698 45.548 342.118 45.412 341.614 45.14C341.11 44.868 340.718 44.488 340.438 44C340.158 43.504 340.018 42.936 340.018 42.296C340.018 41.664 340.158 41.104 340.438 40.616C340.718 40.128 341.11 39.748 341.614 39.476C342.118 39.204 342.698 39.068 343.354 39.068ZM343.354 40.244C342.778 40.244 342.306 40.44 341.938 40.832C341.578 41.216 341.398 41.712 341.398 42.32C341.398 42.936 341.578 43.436 341.938 43.82C342.306 44.204 342.778 44.396 343.354 44.396C343.93 44.396 344.398 44.204 344.758 43.82C345.118 43.436 345.298 42.936 345.298 42.32C345.298 41.712 345.114 41.216 344.746 40.832C344.386 40.44 343.922 40.244 343.354 40.244ZM353.914 39.116V45.5H352.534V44.252C352.118 45.1 351.358 45.532 350.254 45.548C349.526 45.548 348.954 45.328 348.538 44.888C348.122 44.448 347.914 43.848 347.914 43.088V39.116H349.294V42.704C349.294 43.184 349.426 43.564 349.69 43.844C349.954 44.116 350.318 44.252 350.782 44.252C351.318 44.244 351.742 44.056 352.054 43.688C352.374 43.312 352.534 42.836 352.534 42.26V39.116H353.914ZM359.69 39.068C360.434 39.068 361.014 39.288 361.43 39.728C361.854 40.16 362.066 40.76 362.066 41.528V45.5H360.686V41.912C360.686 41.432 360.55 41.056 360.278 40.784C360.006 40.504 359.63 40.364 359.15 40.364C358.638 40.372 358.218 40.536 357.89 40.856C357.57 41.176 357.386 41.592 357.338 42.104V45.5H355.958V39.116H357.338V40.34C357.77 39.492 358.554 39.068 359.69 39.068ZM369.999 36.596V45.5H368.619V44.408C368.387 44.784 368.079 45.072 367.695 45.272C367.319 45.464 366.879 45.56 366.375 45.56C365.767 45.56 365.231 45.424 364.767 45.152C364.311 44.872 363.955 44.484 363.699 43.988C363.443 43.492 363.315 42.924 363.315 42.284C363.315 41.652 363.443 41.092 363.699 40.604C363.955 40.116 364.311 39.736 364.767 39.464C365.231 39.192 365.759 39.056 366.351 39.056C366.863 39.056 367.307 39.156 367.683 39.356C368.067 39.556 368.379 39.844 368.619 40.22V36.596H369.999ZM366.663 44.408C367.239 44.408 367.707 44.216 368.067 43.832C368.435 43.44 368.619 42.94 368.619 42.332C368.619 41.716 368.435 41.212 368.067 40.82C367.707 40.428 367.239 40.232 366.663 40.232C366.087 40.232 365.615 40.428 365.247 40.82C364.887 41.212 364.703 41.716 364.695 42.332C364.703 42.94 364.887 43.44 365.247 43.832C365.615 44.216 366.087 44.408 366.663 44.408ZM381.497 39.356C381.193 39.02 380.833 38.756 380.417 38.564C380.001 38.372 379.581 38.276 379.157 38.276C378.605 38.276 378.097 38.408 377.633 38.672C377.177 38.936 376.817 39.3 376.553 39.764C376.289 40.22 376.157 40.724 376.157 41.276C376.157 41.82 376.289 42.324 376.553 42.788C376.825 43.244 377.189 43.608 377.645 43.88C378.101 44.144 378.605 44.276 379.157 44.276C379.573 44.276 379.985 44.188 380.393 44.012C380.809 43.828 381.177 43.58 381.497 43.268L382.337 44.204C381.905 44.636 381.401 44.98 380.825 45.236C380.249 45.484 379.669 45.608 379.085 45.608C378.277 45.608 377.537 45.416 376.865 45.032C376.201 44.648 375.677 44.128 375.293 43.472C374.909 42.816 374.717 42.088 374.717 41.288C374.717 40.496 374.909 39.772 375.293 39.116C375.685 38.46 376.217 37.944 376.889 37.568C377.569 37.192 378.317 37.004 379.133 37.004C379.725 37.004 380.301 37.124 380.861 37.364C381.429 37.596 381.917 37.916 382.325 38.324L381.497 39.356ZM387.5 39.068C388.244 39.068 388.824 39.288 389.24 39.728C389.664 40.16 389.876 40.76 389.876 41.528V45.5H388.496V41.912C388.496 41.432 388.36 41.056 388.088 40.784C387.816 40.504 387.44 40.364 386.96 40.364C386.4 40.372 385.956 40.564 385.628 40.94C385.3 41.308 385.136 41.78 385.136 42.356V45.5H383.756V36.596H385.136V40.364C385.576 39.5 386.364 39.068 387.5 39.068ZM395.551 45.5V44.72C395.095 45.28 394.391 45.56 393.439 45.56C392.991 45.56 392.595 45.476 392.251 45.308C391.915 45.132 391.655 44.896 391.471 44.6C391.287 44.296 391.195 43.956 391.195 43.58C391.195 42.996 391.407 42.532 391.831 42.188C392.255 41.844 392.847 41.668 393.607 41.66H395.539V41.468C395.539 41.06 395.407 40.744 395.143 40.52C394.887 40.296 394.511 40.184 394.015 40.184C393.399 40.184 392.771 40.4 392.131 40.832L391.567 39.872C392.055 39.584 392.491 39.38 392.875 39.26C393.267 39.132 393.747 39.068 394.315 39.068C395.131 39.068 395.763 39.268 396.211 39.668C396.659 40.06 396.887 40.608 396.895 41.312L396.907 45.5H395.551ZM393.727 44.468C394.215 44.468 394.627 44.356 394.963 44.132C395.307 43.9 395.499 43.608 395.539 43.256V42.668H393.811C393.355 42.668 393.019 42.736 392.803 42.872C392.595 43 392.491 43.216 392.491 43.52C392.491 43.808 392.599 44.04 392.815 44.216C393.039 44.384 393.343 44.468 393.727 44.468ZM402.366 45.092C401.838 45.404 401.314 45.56 400.794 45.56C400.274 45.56 399.846 45.404 399.51 45.092C399.174 44.78 399.006 44.316 399.006 43.7V40.388H398.106V39.356H399.006V37.604H400.374V39.356H402.258V40.388H400.374V43.448C400.374 43.768 400.43 43.992 400.542 44.12C400.654 44.248 400.826 44.312 401.058 44.312C401.314 44.312 401.634 44.22 402.018 44.036L402.366 45.092ZM407.277 40.724C406.997 40.548 406.689 40.412 406.353 40.316C406.025 40.212 405.721 40.16 405.441 40.16C405.153 40.16 404.925 40.212 404.757 40.316C404.589 40.42 404.505 40.58 404.505 40.796C404.505 41.012 404.601 41.176 404.793 41.288C404.993 41.4 405.321 41.528 405.777 41.672C406.209 41.8 406.565 41.928 406.845 42.056C407.133 42.184 407.377 42.376 407.577 42.632C407.785 42.888 407.889 43.224 407.889 43.64C407.889 44.264 407.653 44.74 407.181 45.068C406.717 45.388 406.137 45.548 405.441 45.548C404.961 45.548 404.489 45.472 404.025 45.32C403.569 45.16 403.185 44.94 402.873 44.66L403.365 43.676C403.637 43.916 403.969 44.108 404.361 44.252C404.761 44.396 405.141 44.468 405.501 44.468C405.813 44.468 406.065 44.412 406.257 44.3C406.449 44.188 406.545 44.016 406.545 43.784C406.545 43.608 406.485 43.464 406.365 43.352C406.253 43.232 406.113 43.14 405.945 43.076C405.777 43.004 405.533 42.92 405.213 42.824C404.789 42.696 404.441 42.572 404.169 42.452C403.905 42.324 403.677 42.14 403.485 41.9C403.293 41.652 403.197 41.324 403.197 40.916C403.197 40.308 403.421 39.848 403.869 39.536C404.317 39.216 404.877 39.056 405.549 39.056C405.957 39.056 406.357 39.116 406.749 39.236C407.149 39.348 407.493 39.504 407.781 39.704L407.277 40.724Z" fill="black" fill-opacity="0.38"/>
</g>
<g clip-path="url(#clip1_49_459)">
<rect x="417" y="34" width="14" height="14" rx="7" fill="#E4E4E4"/>
<path d="M441.52 37.1V45.5H440.104V37.1H441.52ZM447.373 39.068C448.117 39.068 448.697 39.288 449.113 39.728C449.537 40.16 449.749 40.76 449.749 41.528V45.5H448.369V41.912C448.369 41.432 448.233 41.056 447.961 40.784C447.689 40.504 447.313 40.364 446.833 40.364C446.321 40.372 445.901 40.536 445.573 40.856C445.253 41.176 445.069 41.592 445.021 42.104V45.5H443.641V39.116H445.021V40.34C445.453 39.492 446.237 39.068 447.373 39.068ZM455.27 39.068C455.87 39.068 456.398 39.204 456.854 39.476C457.318 39.748 457.678 40.132 457.934 40.628C458.19 41.124 458.318 41.692 458.318 42.332C458.318 42.964 458.19 43.524 457.934 44.012C457.686 44.5 457.334 44.88 456.878 45.152C456.422 45.416 455.894 45.548 455.294 45.548C454.79 45.548 454.346 45.452 453.962 45.26C453.578 45.06 453.27 44.772 453.038 44.396V45.5H451.658V36.596H453.038V40.22C453.27 39.844 453.574 39.56 453.95 39.368C454.334 39.168 454.774 39.068 455.27 39.068ZM454.982 44.372C455.358 44.372 455.694 44.284 455.99 44.108C456.286 43.932 456.514 43.684 456.674 43.364C456.842 43.044 456.926 42.684 456.926 42.284C456.926 41.892 456.842 41.54 456.674 41.228C456.514 40.916 456.286 40.672 455.99 40.496C455.694 40.312 455.358 40.22 454.982 40.22C454.606 40.22 454.27 40.308 453.974 40.484C453.678 40.66 453.446 40.908 453.278 41.228C453.118 41.54 453.038 41.892 453.038 42.284C453.038 42.9 453.218 43.404 453.578 43.796C453.946 44.18 454.414 44.372 454.982 44.372ZM462.49 39.068C463.138 39.068 463.714 39.204 464.218 39.476C464.722 39.748 465.114 40.128 465.394 40.616C465.674 41.104 465.814 41.664 465.814 42.296C465.814 42.936 465.674 43.504 465.394 44C465.114 44.488 464.722 44.868 464.218 45.14C463.714 45.412 463.138 45.548 462.49 45.548C461.834 45.548 461.254 45.412 460.75 45.14C460.246 44.868 459.854 44.488 459.574 44C459.294 43.504 459.154 42.936 459.154 42.296C459.154 41.664 459.294 41.104 459.574 40.616C459.854 40.128 460.246 39.748 460.75 39.476C461.254 39.204 461.834 39.068 462.49 39.068ZM462.49 40.244C461.914 40.244 461.442 40.44 461.074 40.832C460.714 41.216 460.534 41.712 460.534 42.32C460.534 42.936 460.714 43.436 461.074 43.82C461.442 44.204 461.914 44.396 462.49 44.396C463.066 44.396 463.534 44.204 463.894 43.82C464.254 43.436 464.434 42.936 464.434 42.32C464.434 41.712 464.25 41.216 463.882 40.832C463.522 40.44 463.058 40.244 462.49 40.244ZM473.05 39.116V45.5H471.67V44.252C471.254 45.1 470.494 45.532 469.39 45.548C468.662 45.548 468.09 45.328 467.674 44.888C467.258 44.448 467.05 43.848 467.05 43.088V39.116H468.43V42.704C468.43 43.184 468.562 43.564 468.826 43.844C469.09 44.116 469.454 44.252 469.918 44.252C470.454 44.244 470.878 44.056 471.19 43.688C471.51 43.312 471.67 42.836 471.67 42.26V39.116H473.05ZM478.826 39.068C479.57 39.068 480.15 39.288 480.566 39.728C480.99 40.16 481.202 40.76 481.202 41.528V45.5H479.822V41.912C479.822 41.432 479.686 41.056 479.414 40.784C479.142 40.504 478.766 40.364 478.286 40.364C477.774 40.372 477.354 40.536 477.026 40.856C476.706 41.176 476.522 41.592 476.474 42.104V45.5H475.094V39.116H476.474V40.34C476.906 39.492 477.69 39.068 478.826 39.068ZM489.135 36.596V45.5H487.755V44.408C487.523 44.784 487.215 45.072 486.831 45.272C486.455 45.464 486.015 45.56 485.511 45.56C484.903 45.56 484.367 45.424 483.903 45.152C483.447 44.872 483.091 44.484 482.835 43.988C482.579 43.492 482.451 42.924 482.451 42.284C482.451 41.652 482.579 41.092 482.835 40.604C483.091 40.116 483.447 39.736 483.903 39.464C484.367 39.192 484.895 39.056 485.487 39.056C485.999 39.056 486.443 39.156 486.819 39.356C487.203 39.556 487.515 39.844 487.755 40.22V36.596H489.135ZM485.799 44.408C486.375 44.408 486.843 44.216 487.203 43.832C487.571 43.44 487.755 42.94 487.755 42.332C487.755 41.716 487.571 41.212 487.203 40.82C486.843 40.428 486.375 40.232 485.799 40.232C485.223 40.232 484.751 40.428 484.383 40.82C484.023 41.212 483.839 41.716 483.831 42.332C483.839 42.94 484.023 43.44 484.383 43.832C484.751 44.216 485.223 44.408 485.799 44.408ZM500.633 39.356C500.329 39.02 499.969 38.756 499.553 38.564C499.137 38.372 498.717 38.276 498.293 38.276C497.741 38.276 497.233 38.408 496.769 38.672C496.313 38.936 495.953 39.3 495.689 39.764C495.425 40.22 495.293 40.724 495.293 41.276C495.293 41.82 495.425 42.324 495.689 42.788C495.961 43.244 496.325 43.608 496.781 43.88C497.237 44.144 497.741 44.276 498.293 44.276C498.709 44.276 499.121 44.188 499.529 44.012C499.945 43.828 500.313 43.58 500.633 43.268L501.473 44.204C501.041 44.636 500.537 44.98 499.961 45.236C499.385 45.484 498.805 45.608 498.221 45.608C497.413 45.608 496.673 45.416 496.001 45.032C495.337 44.648 494.813 44.128 494.429 43.472C494.045 42.816 493.853 42.088 493.853 41.288C493.853 40.496 494.045 39.772 494.429 39.116C494.821 38.46 495.353 37.944 496.025 37.568C496.705 37.192 497.453 37.004 498.269 37.004C498.861 37.004 499.437 37.124 499.997 37.364C500.565 37.596 501.053 37.916 501.461 38.324L500.633 39.356ZM506.637 39.068C507.381 39.068 507.961 39.288 508.377 39.728C508.801 40.16 509.013 40.76 509.013 41.528V45.5H507.633V41.912C507.633 41.432 507.497 41.056 507.225 40.784C506.953 40.504 506.577 40.364 506.097 40.364C505.537 40.372 505.093 40.564 504.765 40.94C504.437 41.308 504.273 41.78 504.273 42.356V45.5H502.893V36.596H504.273V40.364C504.713 39.5 505.501 39.068 506.637 39.068ZM514.688 45.5V44.72C514.232 45.28 513.528 45.56 512.576 45.56C512.128 45.56 511.732 45.476 511.388 45.308C511.052 45.132 510.792 44.896 510.608 44.6C510.424 44.296 510.332 43.956 510.332 43.58C510.332 42.996 510.544 42.532 510.968 42.188C511.392 41.844 511.984 41.668 512.744 41.66H514.676V41.468C514.676 41.06 514.544 40.744 514.28 40.52C514.024 40.296 513.648 40.184 513.152 40.184C512.536 40.184 511.908 40.4 511.268 40.832L510.704 39.872C511.192 39.584 511.628 39.38 512.012 39.26C512.404 39.132 512.884 39.068 513.452 39.068C514.268 39.068 514.9 39.268 515.348 39.668C515.796 40.06 516.024 40.608 516.032 41.312L516.044 45.5H514.688ZM512.864 44.468C513.352 44.468 513.764 44.356 514.1 44.132C514.444 43.9 514.636 43.608 514.676 43.256V42.668H512.948C512.492 42.668 512.156 42.736 511.94 42.872C511.732 43 511.628 43.216 511.628 43.52C511.628 43.808 511.736 44.04 511.952 44.216C512.176 44.384 512.48 44.468 512.864 44.468ZM521.503 45.092C520.975 45.404 520.451 45.56 519.931 45.56C519.411 45.56 518.983 45.404 518.647 45.092C518.311 44.78 518.143 44.316 518.143 43.7V40.388H517.243V39.356H518.143V37.604H519.511V39.356H521.395V40.388H519.511V43.448C519.511 43.768 519.567 43.992 519.679 44.12C519.791 44.248 519.963 44.312 520.195 44.312C520.451 44.312 520.771 44.22 521.155 44.036L521.503 45.092ZM526.414 40.724C526.134 40.548 525.826 40.412 525.49 40.316C525.162 40.212 524.858 40.16 524.578 40.16C524.29 40.16 524.062 40.212 523.894 40.316C523.726 40.42 523.642 40.58 523.642 40.796C523.642 41.012 523.738 41.176 523.93 41.288C524.13 41.4 524.458 41.528 524.914 41.672C525.346 41.8 525.702 41.928 525.982 42.056C526.27 42.184 526.514 42.376 526.714 42.632C526.922 42.888 527.026 43.224 527.026 43.64C527.026 44.264 526.79 44.74 526.318 45.068C525.854 45.388 525.274 45.548 524.578 45.548C524.098 45.548 523.626 45.472 523.162 45.32C522.706 45.16 522.322 44.94 522.01 44.66L522.502 43.676C522.774 43.916 523.106 44.108 523.498 44.252C523.898 44.396 524.278 44.468 524.638 44.468C524.95 44.468 525.202 44.412 525.394 44.3C525.586 44.188 525.682 44.016 525.682 43.784C525.682 43.608 525.622 43.464 525.502 43.352C525.39 43.232 525.25 43.14 525.082 43.076C524.914 43.004 524.67 42.92 524.35 42.824C523.926 42.696 523.578 42.572 523.306 42.452C523.042 42.324 522.814 42.14 522.622 41.9C522.43 41.652 522.334 41.324 522.334 40.916C522.334 40.308 522.558 39.848 523.006 39.536C523.454 39.216 524.014 39.056 524.686 39.056C525.094 39.056 525.494 39.116 525.886 39.236C526.286 39.348 526.63 39.504 526.918 39.704L526.414 40.724Z" fill="black" fill-opacity="0.38"/>
</g>
<rect x="54" y="381.706" width="474" height="1.73853" fill="#E3E3E3"/>
<rect x="54" y="305.211" width="474" height="1.73856" fill="#E3E3E3"/>
<rect x="54" y="226.977" width="474" height="1.73853" fill="#E3E3E3"/>
<rect x="54" y="148.743" width="474" height="1.73853" fill="#E3E3E3"/>
<rect x="54" y="72.2477" width="474" height="1.73853" fill="#E3E3E3"/>
<path d="M211.185 397.527C211.985 397.591 212.621 397.823 213.093 398.223C213.573 398.615 213.813 399.139 213.813 399.795C213.813 400.315 213.677 400.779 213.405 401.187C213.141 401.587 212.757 401.899 212.253 402.123C211.757 402.347 211.177 402.459 210.513 402.459C209.961 402.459 209.409 402.379 208.857 402.219C208.313 402.051 207.849 401.827 207.465 401.547L208.053 400.419C208.381 400.691 208.749 400.903 209.157 401.055C209.573 401.199 209.993 401.271 210.417 401.271C211.049 401.271 211.541 401.139 211.893 400.875C212.253 400.611 212.433 400.259 212.433 399.819C212.433 399.371 212.253 399.031 211.893 398.799C211.541 398.559 211.041 398.439 210.393 398.439H209.169V397.563L211.545 395.247H207.885L207.873 393.999H213.393V394.887L210.717 397.491L211.185 397.527ZM218.66 393.939C219.804 393.939 220.684 394.307 221.3 395.043C221.916 395.779 222.224 396.831 222.224 398.199C222.224 399.567 221.916 400.619 221.3 401.355C220.684 402.091 219.804 402.459 218.66 402.459C217.508 402.459 216.624 402.091 216.008 401.355C215.392 400.619 215.084 399.567 215.084 398.199C215.084 396.831 215.392 395.779 216.008 395.043C216.624 394.307 217.508 393.939 218.66 393.939ZM218.66 395.055C217.948 395.055 217.416 395.315 217.064 395.835C216.712 396.347 216.536 397.135 216.536 398.199C216.536 399.255 216.712 400.043 217.064 400.563C217.416 401.083 217.948 401.343 218.66 401.343C219.364 401.343 219.892 401.083 220.244 400.563C220.596 400.043 220.772 399.255 220.772 398.199C220.772 397.135 220.596 396.347 220.244 395.835C219.892 395.315 219.364 395.055 218.66 395.055ZM234.506 393.999V402.399H233.114L228.638 396.351V402.399H227.222V393.999H228.614L233.114 400.071V393.999H234.506ZM239.378 395.967C240.026 395.967 240.602 396.103 241.106 396.375C241.61 396.647 242.002 397.027 242.282 397.515C242.562 398.003 242.702 398.563 242.702 399.195C242.702 399.835 242.562 400.403 242.282 400.899C242.002 401.387 241.61 401.767 241.106 402.039C240.602 402.311 240.026 402.447 239.378 402.447C238.722 402.447 238.142 402.311 237.638 402.039C237.134 401.767 236.742 401.387 236.462 400.899C236.182 400.403 236.042 399.835 236.042 399.195C236.042 398.563 236.182 398.003 236.462 397.515C236.742 397.027 237.134 396.647 237.638 396.375C238.142 396.103 238.722 395.967 239.378 395.967ZM239.378 397.143C238.802 397.143 238.33 397.339 237.962 397.731C237.602 398.115 237.422 398.611 237.422 399.219C237.422 399.835 237.602 400.335 237.962 400.719C238.33 401.103 238.802 401.295 239.378 401.295C239.954 401.295 240.422 401.103 240.782 400.719C241.142 400.335 241.322 399.835 241.322 399.219C241.322 398.611 241.138 398.115 240.77 397.731C240.41 397.339 239.946 397.143 239.378 397.143ZM244.34 396.015L246.116 401.043L247.868 396.015H249.248L246.8 402.399H245.372L242.9 396.015H244.34Z" fill="#181819" fill-opacity="0.42"/>
<path d="M283.593 393.939C284.737 393.939 285.617 394.307 286.233 395.043C286.849 395.779 287.157 396.831 287.157 398.199C287.157 399.567 286.849 400.619 286.233 401.355C285.617 402.091 284.737 402.459 283.593 402.459C282.441 402.459 281.557 402.091 280.941 401.355C280.325 400.619 280.017 399.567 280.017 398.199C280.017 396.831 280.325 395.779 280.941 395.043C281.557 394.307 282.441 393.939 283.593 393.939ZM283.593 395.055C282.881 395.055 282.349 395.315 281.997 395.835C281.645 396.347 281.469 397.135 281.469 398.199C281.469 399.255 281.645 400.043 281.997 400.563C282.349 401.083 282.881 401.343 283.593 401.343C284.297 401.343 284.825 401.083 285.177 400.563C285.529 400.043 285.705 399.255 285.705 398.199C285.705 397.135 285.529 396.347 285.177 395.835C284.825 395.315 284.297 395.055 283.593 395.055ZM291.118 393.999V402.399H289.702V395.259H287.89V393.999H291.118ZM300.1 393.999C300.932 393.999 301.676 394.179 302.332 394.539C302.996 394.899 303.512 395.399 303.88 396.039C304.256 396.679 304.444 397.399 304.444 398.199C304.444 398.999 304.256 399.719 303.88 400.359C303.504 400.991 302.984 401.491 302.32 401.859C301.656 402.219 300.904 402.399 300.064 402.399H296.656V393.999H300.1ZM300.136 401.127C300.672 401.127 301.16 401.003 301.6 400.755C302.04 400.507 302.384 400.163 302.632 399.723C302.888 399.275 303.016 398.771 303.016 398.211C303.016 397.651 302.884 397.147 302.62 396.699C302.364 396.251 302.012 395.903 301.564 395.655C301.116 395.399 300.62 395.271 300.076 395.271H298.072V401.127H300.136ZM308.505 395.967C309.513 395.967 310.265 396.251 310.761 396.819C311.265 397.387 311.517 398.187 311.517 399.219C311.517 399.323 311.509 399.495 311.493 399.735H306.669C306.781 400.231 307.013 400.623 307.365 400.911C307.717 401.191 308.145 401.331 308.649 401.331C308.993 401.331 309.321 401.267 309.633 401.139C309.945 401.011 310.217 400.827 310.449 400.587L311.181 401.367C310.861 401.711 310.477 401.979 310.029 402.171C309.581 402.355 309.085 402.447 308.541 402.447C307.893 402.447 307.321 402.311 306.825 402.039C306.337 401.767 305.957 401.387 305.685 400.899C305.413 400.411 305.277 399.851 305.277 399.219C305.277 398.587 305.413 398.027 305.685 397.539C305.957 397.043 306.337 396.659 306.825 396.387C307.321 396.107 307.881 395.967 308.505 395.967ZM310.293 398.727C310.269 398.215 310.097 397.811 309.777 397.515C309.457 397.219 309.037 397.071 308.517 397.071C308.013 397.071 307.593 397.219 307.257 397.515C306.921 397.811 306.717 398.215 306.645 398.727H310.293ZM317.431 397.899C316.967 397.419 316.375 397.179 315.655 397.179C315.087 397.179 314.619 397.367 314.251 397.743C313.891 398.119 313.711 398.611 313.711 399.219C313.711 399.819 313.887 400.311 314.239 400.695C314.599 401.071 315.055 401.259 315.607 401.259C316.423 401.259 317.051 401.003 317.491 400.491L318.259 401.259C317.971 401.643 317.595 401.939 317.131 402.147C316.675 402.347 316.147 402.447 315.547 402.447C314.923 402.447 314.367 402.311 313.879 402.039C313.391 401.767 313.011 401.387 312.739 400.899C312.467 400.411 312.331 399.851 312.331 399.219C312.331 398.579 312.467 398.015 312.739 397.527C313.011 397.031 313.391 396.647 313.879 396.375C314.367 396.103 314.923 395.967 315.547 395.967C316.115 395.967 316.623 396.059 317.071 396.243C317.519 396.419 317.891 396.675 318.187 397.011L317.431 397.899Z" fill="#181819" fill-opacity="0.42"/>
<path d="M358.612 401.139V402.399H352.456V401.355L355.66 398.043C355.988 397.715 356.248 397.395 356.44 397.083C356.632 396.763 356.728 396.487 356.728 396.255C356.728 395.919 356.596 395.655 356.332 395.463C356.076 395.271 355.716 395.175 355.252 395.175C354.876 395.175 354.48 395.271 354.064 395.463C353.648 395.647 353.256 395.899 352.888 396.219L352.312 395.127C352.792 394.751 353.3 394.459 353.836 394.251C354.372 394.043 354.908 393.939 355.444 393.939C355.988 393.939 356.468 394.027 356.884 394.203C357.3 394.371 357.624 394.615 357.856 394.935C358.088 395.255 358.204 395.627 358.204 396.051C358.204 396.787 357.676 397.703 356.62 398.799L354.328 401.139H358.612ZM366.802 393.999C367.634 393.999 368.378 394.179 369.034 394.539C369.698 394.899 370.214 395.399 370.582 396.039C370.958 396.679 371.146 397.399 371.146 398.199C371.146 398.999 370.958 399.719 370.582 400.359C370.206 400.991 369.686 401.491 369.022 401.859C368.358 402.219 367.606 402.399 366.766 402.399H363.358V393.999H366.802ZM366.838 401.127C367.374 401.127 367.862 401.003 368.302 400.755C368.742 400.507 369.086 400.163 369.334 399.723C369.59 399.275 369.718 398.771 369.718 398.211C369.718 397.651 369.586 397.147 369.322 396.699C369.066 396.251 368.714 395.903 368.266 395.655C367.818 395.399 367.322 395.271 366.778 395.271H364.774V401.127H366.838ZM375.207 395.967C376.215 395.967 376.967 396.251 377.463 396.819C377.967 397.387 378.219 398.187 378.219 399.219C378.219 399.323 378.211 399.495 378.195 399.735H373.371C373.483 400.231 373.715 400.623 374.067 400.911C374.419 401.191 374.847 401.331 375.351 401.331C375.695 401.331 376.023 401.267 376.335 401.139C376.647 401.011 376.919 400.827 377.151 400.587L377.883 401.367C377.563 401.711 377.179 401.979 376.731 402.171C376.283 402.355 375.787 402.447 375.243 402.447C374.595 402.447 374.023 402.311 373.527 402.039C373.039 401.767 372.659 401.387 372.387 400.899C372.115 400.411 371.979 399.851 371.979 399.219C371.979 398.587 372.115 398.027 372.387 397.539C372.659 397.043 373.039 396.659 373.527 396.387C374.023 396.107 374.583 395.967 375.207 395.967ZM376.995 398.727C376.971 398.215 376.799 397.811 376.479 397.515C376.159 397.219 375.739 397.071 375.219 397.071C374.715 397.071 374.295 397.219 373.959 397.515C373.623 397.811 373.419 398.215 373.347 398.727H376.995ZM384.133 397.899C383.669 397.419 383.077 397.179 382.357 397.179C381.789 397.179 381.321 397.367 380.953 397.743C380.593 398.119 380.413 398.611 380.413 399.219C380.413 399.819 380.589 400.311 380.941 400.695C381.301 401.071 381.757 401.259 382.309 401.259C383.125 401.259 383.753 401.003 384.193 400.491L384.961 401.259C384.673 401.643 384.297 401.939 383.833 402.147C383.377 402.347 382.849 402.447 382.249 402.447C381.625 402.447 381.069 402.311 380.581 402.039C380.093 401.767 379.713 401.387 379.441 400.899C379.169 400.411 379.033 399.851 379.033 399.219C379.033 398.579 379.169 398.015 379.441 397.527C379.713 397.031 380.093 396.647 380.581 396.375C381.069 396.103 381.625 395.967 382.249 395.967C382.817 395.967 383.325 396.059 383.773 396.243C384.221 396.419 384.593 396.675 384.889 397.011L384.133 397.899Z" fill="#181819" fill-opacity="0.42"/>
<path d="M429.519 397.527C430.319 397.591 430.955 397.823 431.427 398.223C431.907 398.615 432.147 399.139 432.147 399.795C432.147 400.315 432.011 400.779 431.739 401.187C431.475 401.587 431.091 401.899 430.587 402.123C430.091 402.347 429.511 402.459 428.847 402.459C428.295 402.459 427.743 402.379 427.191 402.219C426.647 402.051 426.183 401.827 425.799 401.547L426.387 400.419C426.715 400.691 427.083 400.903 427.491 401.055C427.907 401.199 428.327 401.271 428.751 401.271C429.383 401.271 429.875 401.139 430.227 400.875C430.587 400.611 430.767 400.259 430.767 399.819C430.767 399.371 430.587 399.031 430.227 398.799C429.875 398.559 429.375 398.439 428.727 398.439H427.503V397.563L429.879 395.247H426.219L426.207 393.999H431.727V394.887L429.051 397.491L429.519 397.527ZM440.516 393.999C441.348 393.999 442.092 394.179 442.748 394.539C443.412 394.899 443.928 395.399 444.296 396.039C444.672 396.679 444.86 397.399 444.86 398.199C444.86 398.999 444.672 399.719 444.296 400.359C443.92 400.991 443.4 401.491 442.736 401.859C442.072 402.219 441.32 402.399 440.48 402.399H437.072V393.999H440.516ZM440.552 401.127C441.088 401.127 441.576 401.003 442.016 400.755C442.456 400.507 442.8 400.163 443.048 399.723C443.304 399.275 443.432 398.771 443.432 398.211C443.432 397.651 443.3 397.147 443.036 396.699C442.78 396.251 442.428 395.903 441.98 395.655C441.532 395.399 441.036 395.271 440.492 395.271H438.488V401.127H440.552ZM448.92 395.967C449.928 395.967 450.68 396.251 451.176 396.819C451.68 397.387 451.932 398.187 451.932 399.219C451.932 399.323 451.924 399.495 451.908 399.735H447.084C447.196 400.231 447.428 400.623 447.78 400.911C448.132 401.191 448.56 401.331 449.064 401.331C449.408 401.331 449.736 401.267 450.048 401.139C450.36 401.011 450.632 400.827 450.864 400.587L451.596 401.367C451.276 401.711 450.892 401.979 450.444 402.171C449.996 402.355 449.5 402.447 448.956 402.447C448.308 402.447 447.736 402.311 447.24 402.039C446.752 401.767 446.372 401.387 446.1 400.899C445.828 400.411 445.692 399.851 445.692 399.219C445.692 398.587 445.828 398.027 446.1 397.539C446.372 397.043 446.752 396.659 447.24 396.387C447.736 396.107 448.296 395.967 448.92 395.967ZM450.708 398.727C450.684 398.215 450.512 397.811 450.192 397.515C449.872 397.219 449.452 397.071 448.932 397.071C448.428 397.071 448.008 397.219 447.672 397.515C447.336 397.811 447.132 398.215 447.06 398.727H450.708ZM457.847 397.899C457.383 397.419 456.791 397.179 456.071 397.179C455.503 397.179 455.035 397.367 454.667 397.743C454.307 398.119 454.127 398.611 454.127 399.219C454.127 399.819 454.303 400.311 454.655 400.695C455.015 401.071 455.471 401.259 456.023 401.259C456.839 401.259 457.467 401.003 457.907 400.491L458.675 401.259C458.387 401.643 458.011 401.939 457.547 402.147C457.091 402.347 456.563 402.447 455.963 402.447C455.339 402.447 454.783 402.311 454.295 402.039C453.807 401.767 453.427 401.387 453.155 400.899C452.883 400.411 452.747 399.851 452.747 399.219C452.747 398.579 452.883 398.015 453.155 397.527C453.427 397.031 453.807 396.647 454.295 396.375C454.783 396.103 455.339 395.967 455.963 395.967C456.531 395.967 457.039 396.059 457.487 396.243C457.935 396.419 458.307 396.675 458.603 397.011L457.847 397.899Z" fill="#181819" fill-opacity="0.42"/>
<path d="M504.125 400.347H502.877V402.399H501.557V400.347H497.465V399.279L500.321 393.999H501.689L498.989 399.087H501.557V397.083H502.877V399.087H504.125V400.347ZM512.276 393.999C513.108 393.999 513.852 394.179 514.508 394.539C515.172 394.899 515.688 395.399 516.056 396.039C516.432 396.679 516.62 397.399 516.62 398.199C516.62 398.999 516.432 399.719 516.056 400.359C515.68 400.991 515.16 401.491 514.496 401.859C513.832 402.219 513.08 402.399 512.24 402.399H508.832V393.999H512.276ZM512.312 401.127C512.848 401.127 513.336 401.003 513.776 400.755C514.216 400.507 514.56 400.163 514.808 399.723C515.064 399.275 515.192 398.771 515.192 398.211C515.192 397.651 515.06 397.147 514.796 396.699C514.54 396.251 514.188 395.903 513.74 395.655C513.292 395.399 512.796 395.271 512.252 395.271H510.248V401.127H512.312ZM520.68 395.967C521.688 395.967 522.44 396.251 522.936 396.819C523.44 397.387 523.692 398.187 523.692 399.219C523.692 399.323 523.684 399.495 523.668 399.735H518.844C518.956 400.231 519.188 400.623 519.54 400.911C519.892 401.191 520.32 401.331 520.824 401.331C521.168 401.331 521.496 401.267 521.808 401.139C522.12 401.011 522.392 400.827 522.624 400.587L523.356 401.367C523.036 401.711 522.652 401.979 522.204 402.171C521.756 402.355 521.26 402.447 520.716 402.447C520.068 402.447 519.496 402.311 519 402.039C518.512 401.767 518.132 401.387 517.86 400.899C517.588 400.411 517.452 399.851 517.452 399.219C517.452 398.587 517.588 398.027 517.86 397.539C518.132 397.043 518.512 396.659 519 396.387C519.496 396.107 520.056 395.967 520.68 395.967ZM522.468 398.727C522.444 398.215 522.272 397.811 521.952 397.515C521.632 397.219 521.212 397.071 520.692 397.071C520.188 397.071 519.768 397.219 519.432 397.515C519.096 397.811 518.892 398.215 518.82 398.727H522.468ZM529.607 397.899C529.143 397.419 528.551 397.179 527.831 397.179C527.263 397.179 526.795 397.367 526.427 397.743C526.067 398.119 525.887 398.611 525.887 399.219C525.887 399.819 526.063 400.311 526.415 400.695C526.775 401.071 527.231 401.259 527.783 401.259C528.599 401.259 529.227 401.003 529.667 400.491L530.435 401.259C530.147 401.643 529.771 401.939 529.307 402.147C528.851 402.347 528.323 402.447 527.723 402.447C527.099 402.447 526.543 402.311 526.055 402.039C525.567 401.767 525.187 401.387 524.915 400.899C524.643 400.411 524.507 399.851 524.507 399.219C524.507 398.579 524.643 398.015 524.915 397.527C525.187 397.031 525.567 396.647 526.055 396.375C526.543 396.103 527.099 395.967 527.723 395.967C528.291 395.967 528.799 396.059 529.247 396.243C529.695 396.419 530.067 396.675 530.363 397.011L529.607 397.899Z" fill="#181819" fill-opacity="0.42"/>
<path d="M64.612 401.139V402.399H58.456V401.355L61.66 398.043C61.988 397.715 62.248 397.395 62.44 397.083C62.632 396.763 62.728 396.487 62.728 396.255C62.728 395.919 62.596 395.655 62.332 395.463C62.076 395.271 61.716 395.175 61.252 395.175C60.876 395.175 60.48 395.271 60.064 395.463C59.648 395.647 59.256 395.899 58.888 396.219L58.312 395.127C58.792 394.751 59.3 394.459 59.836 394.251C60.372 394.043 60.908 393.939 61.444 393.939C61.988 393.939 62.468 394.027 62.884 394.203C63.3 394.371 63.624 394.615 63.856 394.935C64.088 395.255 64.204 395.627 64.204 396.051C64.204 396.787 63.676 397.703 62.62 398.799L60.328 401.139H64.612ZM68.8355 393.939C69.6995 393.939 70.3795 394.135 70.8755 394.527C71.3795 394.911 71.6315 395.443 71.6315 396.123C71.6315 396.523 71.5235 396.879 71.3075 397.191C71.0915 397.503 70.7915 397.743 70.4075 397.911C70.9195 398.087 71.3195 398.363 71.6075 398.739C71.9035 399.115 72.0515 399.551 72.0515 400.047C72.0515 400.791 71.7635 401.379 71.1875 401.811C70.6115 402.243 69.8315 402.459 68.8475 402.459C67.8635 402.459 67.0835 402.247 66.5075 401.823C65.9315 401.391 65.6435 400.807 65.6435 400.071C65.6435 399.567 65.7955 399.127 66.0995 398.751C66.4035 398.367 66.8195 398.087 67.3475 397.911C66.9395 397.727 66.6195 397.475 66.3875 397.155C66.1635 396.835 66.0515 396.471 66.0515 396.063C66.0515 395.407 66.2995 394.891 66.7955 394.515C67.2995 394.131 67.9795 393.939 68.8355 393.939ZM68.8475 394.959C68.3435 394.959 67.9515 395.067 67.6715 395.283C67.3915 395.499 67.2515 395.803 67.2515 396.195C67.2515 396.587 67.3915 396.891 67.6715 397.107C67.9515 397.323 68.3435 397.431 68.8475 397.431C69.3515 397.431 69.7395 397.323 70.0115 397.107C70.2915 396.891 70.4315 396.587 70.4315 396.195C70.4315 395.803 70.2915 395.499 70.0115 395.283C69.7395 395.067 69.3515 394.959 68.8475 394.959ZM68.8355 398.535C68.2435 398.535 67.7835 398.655 67.4555 398.895C67.1355 399.135 66.9755 399.475 66.9755 399.915C66.9755 400.371 67.1395 400.723 67.4675 400.971C67.7955 401.219 68.2555 401.343 68.8475 401.343C69.4395 401.343 69.8995 401.219 70.2275 400.971C70.5555 400.723 70.7195 400.375 70.7195 399.927C70.7195 399.487 70.5515 399.147 70.2155 398.907C69.8875 398.659 69.4275 398.535 68.8355 398.535ZM84.2357 393.999V402.399H82.8437L78.3677 396.351V402.399H76.9517V393.999H78.3437L82.8437 400.071V393.999H84.2357ZM89.1076 395.967C89.7556 395.967 90.3316 396.103 90.8356 396.375C91.3396 396.647 91.7316 397.027 92.0116 397.515C92.2916 398.003 92.4316 398.563 92.4316 399.195C92.4316 399.835 92.2916 400.403 92.0116 400.899C91.7316 401.387 91.3396 401.767 90.8356 402.039C90.3316 402.311 89.7556 402.447 89.1076 402.447C88.4516 402.447 87.8716 402.311 87.3676 402.039C86.8636 401.767 86.4716 401.387 86.1916 400.899C85.9116 400.403 85.7716 399.835 85.7716 399.195C85.7716 398.563 85.9116 398.003 86.1916 397.515C86.4716 397.027 86.8636 396.647 87.3676 396.375C87.8716 396.103 88.4516 395.967 89.1076 395.967ZM89.1076 397.143C88.5316 397.143 88.0596 397.339 87.6916 397.731C87.3316 398.115 87.1516 398.611 87.1516 399.219C87.1516 399.835 87.3316 400.335 87.6916 400.719C88.0596 401.103 88.5316 401.295 89.1076 401.295C89.6836 401.295 90.1516 401.103 90.5116 400.719C90.8716 400.335 91.0516 399.835 91.0516 399.219C91.0516 398.611 90.8676 398.115 90.4996 397.731C90.1396 397.339 89.6756 397.143 89.1076 397.143ZM94.0692 396.015L95.8452 401.043L97.5972 396.015H98.9772L96.5292 402.399H95.1012L92.6292 396.015H94.0692Z" fill="#181819" fill-opacity="0.42"/>
<path d="M140.612 401.139V402.399H134.456V401.355L137.66 398.043C137.988 397.715 138.248 397.395 138.44 397.083C138.632 396.763 138.728 396.487 138.728 396.255C138.728 395.919 138.596 395.655 138.332 395.463C138.076 395.271 137.716 395.175 137.252 395.175C136.876 395.175 136.48 395.271 136.064 395.463C135.648 395.647 135.256 395.899 134.888 396.219L134.312 395.127C134.792 394.751 135.3 394.459 135.836 394.251C136.372 394.043 136.908 393.939 137.444 393.939C137.988 393.939 138.468 394.027 138.884 394.203C139.3 394.371 139.624 394.615 139.856 394.935C140.088 395.255 140.204 395.627 140.204 396.051C140.204 396.787 139.676 397.703 138.62 398.799L136.328 401.139H140.612ZM142.4 400.755C142.656 400.923 142.948 401.055 143.276 401.151C143.604 401.239 143.928 401.283 144.248 401.283C145.04 401.283 145.632 401.011 146.024 400.467C146.416 399.923 146.6 399.179 146.576 398.235C146.352 398.627 146.048 398.927 145.664 399.135C145.28 399.335 144.824 399.435 144.296 399.435C143.464 399.435 142.808 399.195 142.328 398.715C141.848 398.227 141.608 397.571 141.608 396.747C141.608 396.179 141.728 395.683 141.968 395.259C142.216 394.835 142.56 394.511 143 394.287C143.44 394.055 143.956 393.939 144.548 393.939C145.252 393.939 145.86 394.103 146.372 394.431C146.884 394.751 147.276 395.219 147.548 395.835C147.82 396.443 147.956 397.171 147.956 398.019C147.956 398.907 147.808 399.687 147.512 400.359C147.216 401.031 146.796 401.551 146.252 401.919C145.708 402.279 145.072 402.459 144.344 402.459C143.928 402.459 143.492 402.403 143.036 402.291C142.588 402.171 142.192 402.015 141.848 401.823L142.4 400.755ZM144.62 395.151C144.108 395.151 143.696 395.295 143.384 395.583C143.08 395.871 142.928 396.263 142.928 396.759C142.928 397.239 143.072 397.619 143.36 397.899C143.656 398.179 144.056 398.319 144.56 398.319C145.112 398.319 145.548 398.163 145.868 397.851C146.188 397.531 146.348 397.143 146.348 396.687C146.348 396.431 146.284 396.187 146.156 395.955C146.028 395.715 145.832 395.523 145.568 395.379C145.312 395.227 144.996 395.151 144.62 395.151ZM160.224 393.999V402.399H158.832L154.356 396.351V402.399H152.94V393.999H154.332L158.832 400.071V393.999H160.224ZM165.096 395.967C165.744 395.967 166.32 396.103 166.824 396.375C167.328 396.647 167.72 397.027 168 397.515C168.28 398.003 168.42 398.563 168.42 399.195C168.42 399.835 168.28 400.403 168 400.899C167.72 401.387 167.328 401.767 166.824 402.039C166.32 402.311 165.744 402.447 165.096 402.447C164.44 402.447 163.86 402.311 163.356 402.039C162.852 401.767 162.46 401.387 162.18 400.899C161.9 400.403 161.76 399.835 161.76 399.195C161.76 398.563 161.9 398.003 162.18 397.515C162.46 397.027 162.852 396.647 163.356 396.375C163.86 396.103 164.44 395.967 165.096 395.967ZM165.096 397.143C164.52 397.143 164.048 397.339 163.68 397.731C163.32 398.115 163.14 398.611 163.14 399.219C163.14 399.835 163.32 400.335 163.68 400.719C164.048 401.103 164.52 401.295 165.096 401.295C165.672 401.295 166.14 401.103 166.5 400.719C166.86 400.335 167.04 399.835 167.04 399.219C167.04 398.611 166.856 398.115 166.488 397.731C166.128 397.339 165.664 397.143 165.096 397.143ZM170.057 396.015L171.833 401.043L173.585 396.015H174.965L172.517 402.399H171.089L168.617 396.015H170.057Z" fill="#181819" fill-opacity="0.42"/>
<g clip-path="url(#clip2_49_459)">
<path d="M484.237 302.629C508.123 302.629 583.42 314.599 615.6 314.599C647.78 314.599 692.743 348.43 735.502 348.43C778.261 348.43 834.245 312.518 862.898 312.518C891.551 312.518 918 329.173 918 329.173V382H54V304.19C77.8867 304.19 95.055 293 118.359 293C141.663 293 210.49 343.225 241.347 343.225C272.204 343.225 311.243 304.33 347.037 314.599C382.83 324.869 460.35 302.629 484.237 302.629Z" fill="url(#paint0_linear_49_459)"/>
<path d="M54 304.103C77.8867 304.103 95.055 293 118.359 293C141.663 293 210.49 342.836 241.347 342.836C272.204 342.836 308.883 304.103 342.71 314.432C376.537 324.761 460.35 302.554 484.237 302.554C508.123 302.554 583.42 314.432 615.6 314.432C647.78 314.432 692.743 348 735.502 348C778.261 348 834.245 312.366 862.898 312.366C891.551 312.366 918 328.892 918 328.892" stroke="#CBCBCB" stroke-width="2"/>
</g>
<g clip-path="url(#clip3_49_459)">
<path d="M406.433 156.34C387.025 156.34 325.846 190.329 299.7 190.329C273.554 190.329 237.021 286.387 202.28 286.387C167.538 286.387 122.051 184.418 98.7704 184.418C75.4898 184.418 54 231.708 54 231.708V381.706H756V160.773C736.592 160.773 722.643 129 703.708 129C684.774 129 628.852 271.609 603.781 271.609C578.709 271.609 546.99 161.171 517.908 190.329C488.825 219.488 425.841 156.34 406.433 156.34Z" fill="url(#paint1_linear_49_459)"/>
<path d="M756 160.83C736.592 160.83 722.643 129 703.708 129C684.774 129 628.852 271.867 603.781 271.867C578.709 271.867 548.908 160.83 521.423 190.44C493.939 220.05 425.841 156.389 406.433 156.389C387.025 156.389 325.846 190.44 299.7 190.44C273.554 190.44 237.021 286.672 202.28 286.672C167.538 286.672 122.051 184.518 98.7704 184.518C75.4898 184.518 54 231.894 54 231.894" stroke="#C3242E" stroke-width="2"/>
</g>
<path d="M27.8977 137.6V146H26.4817V138.86H24.6697V137.6H27.8977ZM32.8777 140.684C33.5017 140.684 34.0497 140.796 34.5217 141.02C35.0017 141.236 35.3697 141.536 35.6257 141.92C35.8817 142.304 36.0097 142.74 36.0097 143.228C36.0097 143.796 35.8737 144.296 35.6017 144.728C35.3377 145.152 34.9617 145.48 34.4737 145.712C33.9857 145.944 33.4177 146.06 32.7697 146.06C32.2577 146.06 31.7177 145.972 31.1497 145.796C30.5897 145.62 30.0937 145.388 29.6617 145.1L30.2377 143.96C30.5977 144.24 30.9857 144.456 31.4017 144.608C31.8177 144.76 32.2297 144.836 32.6377 144.836C33.2057 144.836 33.6577 144.7 33.9937 144.428C34.3297 144.156 34.4977 143.792 34.4977 143.336C34.4977 142.888 34.3297 142.544 33.9937 142.304C33.6657 142.056 33.1777 141.932 32.5297 141.932C32.2497 141.932 31.8777 141.944 31.4137 141.968C30.9577 141.992 30.5937 142.02 30.3217 142.052V137.6H35.6497V138.86H31.6417V140.684H32.8777ZM40.7756 137.54C41.9196 137.54 42.7996 137.908 43.4156 138.644C44.0316 139.38 44.3396 140.432 44.3396 141.8C44.3396 143.168 44.0316 144.22 43.4156 144.956C42.7996 145.692 41.9196 146.06 40.7756 146.06C39.6236 146.06 38.7396 145.692 38.1236 144.956C37.5076 144.22 37.1996 143.168 37.1996 141.8C37.1996 140.432 37.5076 139.38 38.1236 138.644C38.7396 137.908 39.6236 137.54 40.7756 137.54ZM40.7756 138.656C40.0636 138.656 39.5316 138.916 39.1796 139.436C38.8276 139.948 38.6516 140.736 38.6516 141.8C38.6516 142.856 38.8276 143.644 39.1796 144.164C39.5316 144.684 40.0636 144.944 40.7756 144.944C41.4796 144.944 42.0076 144.684 42.3596 144.164C42.7116 143.644 42.8876 142.856 42.8876 141.8C42.8876 140.736 42.7116 139.948 42.3596 139.436C42.0076 138.916 41.4796 138.656 40.7756 138.656Z" fill="#181819" fill-opacity="0.42"/>
<path d="M27.6237 68.74V70H21.4677V68.956L24.6717 65.644C24.9997 65.316 25.2597 64.996 25.4517 64.684C25.6437 64.364 25.7397 64.088 25.7397 63.856C25.7397 63.52 25.6077 63.256 25.3437 63.064C25.0877 62.872 24.7277 62.776 24.2637 62.776C23.8877 62.776 23.4917 62.872 23.0757 63.064C22.6597 63.248 22.2677 63.5 21.8997 63.82L21.3237 62.728C21.8037 62.352 22.3117 62.06 22.8477 61.852C23.3837 61.644 23.9197 61.54 24.4557 61.54C24.9997 61.54 25.4797 61.628 25.8957 61.804C26.3117 61.972 26.6357 62.216 26.8677 62.536C27.0997 62.856 27.2157 63.228 27.2157 63.652C27.2157 64.388 26.6877 65.304 25.6317 66.4L23.3397 68.74H27.6237ZM32.2913 61.54C33.4353 61.54 34.3153 61.908 34.9313 62.644C35.5473 63.38 35.8553 64.432 35.8553 65.8C35.8553 67.168 35.5473 68.22 34.9313 68.956C34.3153 69.692 33.4353 70.06 32.2913 70.06C31.1393 70.06 30.2553 69.692 29.6393 68.956C29.0233 68.22 28.7153 67.168 28.7153 65.8C28.7153 64.432 29.0233 63.38 29.6393 62.644C30.2553 61.908 31.1393 61.54 32.2913 61.54ZM32.2913 62.656C31.5793 62.656 31.0473 62.916 30.6953 63.436C30.3433 63.948 30.1673 64.736 30.1673 65.8C30.1673 66.856 30.3433 67.644 30.6953 68.164C31.0473 68.684 31.5793 68.944 32.2913 68.944C32.9953 68.944 33.5233 68.684 33.8753 68.164C34.2273 67.644 34.4033 66.856 34.4033 65.8C34.4033 64.736 34.2273 63.948 33.8753 63.436C33.5233 62.916 32.9953 62.656 32.2913 62.656ZM40.7756 61.54C41.9196 61.54 42.7996 61.908 43.4156 62.644C44.0316 63.38 44.3396 64.432 44.3396 65.8C44.3396 67.168 44.0316 68.22 43.4156 68.956C42.7996 69.692 41.9196 70.06 40.7756 70.06C39.6236 70.06 38.7396 69.692 38.1236 68.956C37.5076 68.22 37.1996 67.168 37.1996 65.8C37.1996 64.432 37.5076 63.38 38.1236 62.644C38.7396 61.908 39.6236 61.54 40.7756 61.54ZM40.7756 62.656C40.0636 62.656 39.5316 62.916 39.1796 63.436C38.8276 63.948 38.6516 64.736 38.6516 65.8C38.6516 66.856 38.8276 67.644 39.1796 68.164C39.5316 68.684 40.0636 68.944 40.7756 68.944C41.4796 68.944 42.0076 68.684 42.3596 68.164C42.7116 67.644 42.8876 66.856 42.8876 65.8C42.8876 64.736 42.7116 63.948 42.3596 63.436C42.0076 62.916 41.4796 62.656 40.7756 62.656Z" fill="#181819" fill-opacity="0.42"/>
<path d="M26.8313 216.6V225H25.4153V217.86H23.6033V216.6H26.8313ZM32.2913 216.54C33.4353 216.54 34.3153 216.908 34.9313 217.644C35.5473 218.38 35.8553 219.432 35.8553 220.8C35.8553 222.168 35.5473 223.22 34.9313 223.956C34.3153 224.692 33.4353 225.06 32.2913 225.06C31.1393 225.06 30.2553 224.692 29.6393 223.956C29.0233 223.22 28.7153 222.168 28.7153 220.8C28.7153 219.432 29.0233 218.38 29.6393 217.644C30.2553 216.908 31.1393 216.54 32.2913 216.54ZM32.2913 217.656C31.5793 217.656 31.0473 217.916 30.6953 218.436C30.3433 218.948 30.1673 219.736 30.1673 220.8C30.1673 221.856 30.3433 222.644 30.6953 223.164C31.0473 223.684 31.5793 223.944 32.2913 223.944C32.9953 223.944 33.5233 223.684 33.8753 223.164C34.2273 222.644 34.4033 221.856 34.4033 220.8C34.4033 219.736 34.2273 218.948 33.8753 218.436C33.5233 217.916 32.9953 217.656 32.2913 217.656ZM40.7756 216.54C41.9196 216.54 42.7996 216.908 43.4156 217.644C44.0316 218.38 44.3396 219.432 44.3396 220.8C44.3396 222.168 44.0316 223.22 43.4156 223.956C42.7996 224.692 41.9196 225.06 40.7756 225.06C39.6236 225.06 38.7396 224.692 38.1236 223.956C37.5076 223.22 37.1996 222.168 37.1996 220.8C37.1996 219.432 37.5076 218.38 38.1236 217.644C38.7396 216.908 39.6236 216.54 40.7756 216.54ZM40.7756 217.656C40.0636 217.656 39.5316 217.916 39.1796 218.436C38.8276 218.948 38.6516 219.736 38.6516 220.8C38.6516 221.856 38.8276 222.644 39.1796 223.164C39.5316 223.684 40.0636 223.944 40.7756 223.944C41.4796 223.944 42.0076 223.684 42.3596 223.164C42.7116 222.644 42.8876 221.856 42.8876 220.8C42.8876 219.736 42.7116 218.948 42.3596 218.436C42.0076 217.916 41.4796 217.656 40.7756 217.656Z" fill="#181819" fill-opacity="0.42"/>
<path d="M32.8777 295.684C33.5017 295.684 34.0497 295.796 34.5217 296.02C35.0017 296.236 35.3697 296.536 35.6257 296.92C35.8817 297.304 36.0097 297.74 36.0097 298.228C36.0097 298.796 35.8737 299.296 35.6017 299.728C35.3377 300.152 34.9617 300.48 34.4737 300.712C33.9857 300.944 33.4177 301.06 32.7697 301.06C32.2577 301.06 31.7177 300.972 31.1497 300.796C30.5897 300.62 30.0937 300.388 29.6617 300.1L30.2377 298.96C30.5977 299.24 30.9857 299.456 31.4017 299.608C31.8177 299.76 32.2297 299.836 32.6377 299.836C33.2057 299.836 33.6577 299.7 33.9937 299.428C34.3297 299.156 34.4977 298.792 34.4977 298.336C34.4977 297.888 34.3297 297.544 33.9937 297.304C33.6657 297.056 33.1777 296.932 32.5297 296.932C32.2497 296.932 31.8777 296.944 31.4137 296.968C30.9577 296.992 30.5937 297.02 30.3217 297.052V292.6H35.6497V293.86H31.6417V295.684H32.8777ZM40.7756 292.54C41.9196 292.54 42.7996 292.908 43.4156 293.644C44.0316 294.38 44.3396 295.432 44.3396 296.8C44.3396 298.168 44.0316 299.22 43.4156 299.956C42.7996 300.692 41.9196 301.06 40.7756 301.06C39.6236 301.06 38.7396 300.692 38.1236 299.956C37.5076 299.22 37.1996 298.168 37.1996 296.8C37.1996 295.432 37.5076 294.38 38.1236 293.644C38.7396 292.908 39.6236 292.54 40.7756 292.54ZM40.7756 293.656C40.0636 293.656 39.5316 293.916 39.1796 294.436C38.8276 294.948 38.6516 295.736 38.6516 296.8C38.6516 297.856 38.8276 298.644 39.1796 299.164C39.5316 299.684 40.0636 299.944 40.7756 299.944C41.4796 299.944 42.0076 299.684 42.3596 299.164C42.7116 298.644 42.8876 297.856 42.8876 296.8C42.8876 295.736 42.7116 294.948 42.3596 294.436C42.0076 293.916 41.4796 293.656 40.7756 293.656Z" fill="#181819" fill-opacity="0.42"/>
<path d="M40.7756 369.54C41.9196 369.54 42.7996 369.908 43.4156 370.644C44.0316 371.38 44.3396 372.432 44.3396 373.8C44.3396 375.168 44.0316 376.22 43.4156 376.956C42.7996 377.692 41.9196 378.06 40.7756 378.06C39.6236 378.06 38.7396 377.692 38.1236 376.956C37.5076 376.22 37.1996 375.168 37.1996 373.8C37.1996 372.432 37.5076 371.38 38.1236 370.644C38.7396 369.908 39.6236 369.54 40.7756 369.54ZM40.7756 370.656C40.0636 370.656 39.5316 370.916 39.1796 371.436C38.8276 371.948 38.6516 372.736 38.6516 373.8C38.6516 374.856 38.8276 375.644 39.1796 376.164C39.5316 376.684 40.0636 376.944 40.7756 376.944C41.4796 376.944 42.0076 376.684 42.3596 376.164C42.7116 375.644 42.8876 374.856 42.8876 373.8C42.8876 372.736 42.7116 371.948 42.3596 371.436C42.0076 370.916 41.4796 370.656 40.7756 370.656Z" fill="#181819" fill-opacity="0.42"/>
<defs>
<linearGradient id="paint0_linear_49_459" x1="486" y1="290.894" x2="486" y2="382" gradientUnits="userSpaceOnUse">
<stop stop-color="#CBCBCB"/>
<stop offset="1" stop-color="white" stop-opacity="0"/>
</linearGradient>
<linearGradient id="paint1_linear_49_459" x1="405" y1="123.02" x2="405" y2="381.706" gradientUnits="userSpaceOnUse">
<stop stop-color="#D5222F"/>
<stop offset="1" stop-color="white" stop-opacity="0"/>
</linearGradient>
<clipPath id="clip0_49_459">
<rect width="122" height="15" fill="white" transform="translate(287 33.5)"/>
</clipPath>
<clipPath id="clip1_49_459">
<rect width="111" height="15" fill="white" transform="translate(417 33.5)"/>
</clipPath>
<clipPath id="clip2_49_459">
<rect width="474" height="329" fill="white" transform="translate(54 53)"/>
</clipPath>
<clipPath id="clip3_49_459">
<rect width="474" height="253" fill="white" transform="translate(54 129)"/>
</clipPath>
</defs>
</svg>
