<svg width="18" height="18" viewBox="0 0 18 18" fill="none" xmlns="http://www.w3.org/2000/svg">
<path d="M9.5625 1.5C9.5625 1.18934 9.31066 0.9375 9 0.9375C8.68934 0.9375 8.4375 1.18934 8.4375 1.5V7.5C8.4375 7.81066 8.68934 8.0625 9 8.0625C9.31066 8.0625 9.5625 7.81066 9.5625 7.5V1.5Z" fill="#FDFDFD"/>
<path d="M5.57892 4.59347C5.83762 4.42147 5.9079 4.07232 5.73589 3.81362C5.56389 3.55492 5.21474 3.48464 4.95604 3.65665C2.98711 4.96576 1.6875 7.20602 1.6875 9.75006C1.6875 13.7886 4.96142 17.0626 9 17.0626C13.0386 17.0626 16.3125 13.7886 16.3125 9.75006C16.3125 7.20602 15.0129 4.96576 13.044 3.65665C12.7853 3.48464 12.4361 3.55492 12.2641 3.81362C12.0921 4.07232 12.1624 4.42147 12.4211 4.59347C14.0897 5.70293 15.1875 7.59842 15.1875 9.75006C15.1875 13.1673 12.4173 15.9376 9 15.9376C5.58274 15.9376 2.8125 13.1673 2.8125 9.75006C2.8125 7.59842 3.91028 5.70293 5.57892 4.59347Z" fill="#FDFDFD"/>
</svg>
