<svg width="28" height="24" viewBox="0 0 28 24" fill="none" xmlns="http://www.w3.org/2000/svg">
<path fill-rule="evenodd" clip-rule="evenodd" d="M14 7.9375C11.7563 7.9375 9.9375 9.75634 9.9375 12C9.9375 14.2437 11.7563 16.0625 14 16.0625C16.2437 16.0625 18.0625 14.2437 18.0625 12C18.0625 9.75634 16.2437 7.9375 14 7.9375ZM11.8125 12C11.8125 10.7919 12.7919 9.8125 14 9.8125C15.2081 9.8125 16.1875 10.7919 16.1875 12C16.1875 13.2081 15.2081 14.1875 14 14.1875C12.7919 14.1875 11.8125 13.2081 11.8125 12Z" fill="#161616"/>
<path d="M5.875 12C6.56536 12 7.125 12.5596 7.125 13.25V13.2612C7.125 13.9516 6.56536 14.5112 5.875 14.5112C5.18464 14.5112 4.625 13.9516 4.625 13.2612V13.25C4.625 12.5596 5.18464 12 5.875 12Z" fill="#161616"/>
<path d="M23.375 10.7402C23.375 10.0499 22.8154 9.49023 22.125 9.49023C21.4346 9.49023 20.875 10.0499 20.875 10.7402V10.7515C20.875 11.4418 21.4346 12.0015 22.125 12.0015C22.8154 12.0015 23.375 11.4418 23.375 10.7515V10.7402Z" fill="#161616"/>
<path fill-rule="evenodd" clip-rule="evenodd" d="M20.25 0.4375C17.7394 0.4375 15.4123 0.930677 13.6033 1.77558C12.0809 2.48659 10.0321 2.9375 7.75 2.9375C6.485 2.9375 5.28736 2.79884 4.20931 2.55192C2.55125 2.17215 0.5625 3.30848 0.5625 5.26746V18.7325C0.5625 19.7286 0.696526 20.7068 1.22273 21.5157C1.77186 22.3598 2.64437 22.867 3.79069 23.1296C5.01186 23.4093 6.3502 23.5625 7.75 23.5625C10.2606 23.5625 12.5877 23.0693 14.3967 22.2244C15.9191 21.5134 17.9679 21.0625 20.25 21.0625C21.515 21.0625 22.7126 21.2012 23.7907 21.4481C25.4487 21.8278 27.4375 20.6915 27.4375 18.7325V5.26746C27.4375 4.2714 27.3035 3.29316 26.7773 2.48431C26.2281 1.64021 25.3556 1.13297 24.2093 0.87041C22.9881 0.590709 21.6498 0.4375 20.25 0.4375ZM14.3967 3.47442C15.9191 2.76341 17.9679 2.3125 20.25 2.3125C21.515 2.3125 22.7126 2.45116 23.7907 2.69808C24.6215 2.88838 24.999 3.18924 25.2056 3.50678C25.4351 3.85957 25.5625 4.39652 25.5625 5.26746V18.7325C25.5625 19.2356 24.9512 19.7903 24.2093 19.6204C22.9881 19.3407 21.6498 19.1875 20.25 19.1875C17.7394 19.1875 15.4123 19.6807 13.6033 20.5256C12.0809 21.2366 10.0321 21.6875 7.75 21.6875C6.485 21.6875 5.28736 21.5488 4.20931 21.3019C3.37847 21.1116 3.00099 20.8108 2.79441 20.4932C2.5649 20.1404 2.4375 19.6035 2.4375 18.7325V5.26746C2.4375 4.76438 3.04882 4.20967 3.79069 4.37959C5.01186 4.65929 6.3502 4.8125 7.75 4.8125C10.2606 4.8125 12.5877 4.31932 14.3967 3.47442Z" fill="#161616"/>
</svg>
