<svg width="24" height="24" viewBox="0 0 24 24" fill="none" xmlns="http://www.w3.org/2000/svg">
<path fill-rule="evenodd" clip-rule="evenodd" d="M19.2563 1.36605C18.3926 1.24993 17.3014 1.24996 15.9781 1.24999H11.931C10.6077 1.24996 9.51641 1.24993 8.65275 1.36605C7.746 1.48796 6.9452 1.75374 6.304 2.39494C5.66281 3.03614 5.39702 3.83694 5.27511 4.74368C5.15899 5.60736 5.15902 6.69859 5.15906 8.02194L5.15906 15.3091C5.15906 15.5919 5.15906 15.7333 5.07119 15.8212C4.98332 15.9091 4.8419 15.9091 4.55905 15.9091L4.08344 15.9091C3.65936 15.9089 3.22951 15.9088 2.87244 15.9682C2.44525 16.0393 1.99876 16.2128 1.65457 16.6424C1.3333 17.0434 1.2363 17.4787 1.25151 17.9103C1.26352 18.2512 1.35016 18.6332 1.42954 18.9831C1.62629 19.8528 1.98532 20.8094 2.56295 21.51C3.16342 22.2384 4.01879 22.75 5.12398 22.75H18.8347C20.2282 22.75 21.278 22.161 21.9321 21.1638C22.5448 20.23 22.75 19.033 22.75 17.8636V8.02196C22.75 6.69861 22.75 5.60736 22.6339 4.74368C22.512 3.83694 22.2462 3.03614 21.605 2.39494C20.9638 1.75374 20.163 1.48796 19.2563 1.36605ZM7.71377 15.9091C7.43093 15.9091 7.28951 15.9091 7.20164 15.8213C7.11377 15.7334 7.11377 15.592 7.11377 15.3091V8.09095C7.11377 6.68125 7.11585 5.72228 7.21239 5.00416C7.30516 4.31416 7.46873 3.99457 7.68624 3.77706C7.90376 3.55954 8.22334 3.39598 8.91335 3.30321C9.63147 3.20666 10.5904 3.20458 12.0001 3.20458H15.9092C17.3189 3.20458 18.2779 3.20666 18.996 3.30321C19.686 3.39598 20.0056 3.55954 20.2231 3.77706C20.4406 3.99457 20.6042 4.31416 20.697 5.00416C20.7935 5.72228 20.7956 6.68125 20.7956 8.09095V17.8637C20.7956 18.8532 20.6135 19.6108 20.298 20.0918C20.024 20.5094 19.6048 20.7955 18.8349 20.7955C18.4034 20.7955 18.0724 20.6191 17.7819 20.2667C17.4685 19.8867 17.2187 19.3115 17.06 18.6102C16.9543 18.143 16.8508 17.6853 16.7463 17.3635C16.6437 17.0476 16.4758 16.6313 16.1061 16.3364C15.7596 16.0599 15.3672 15.9762 15.044 15.9415C14.7424 15.909 14.3743 15.9091 13.9832 15.9091L7.71377 15.9091Z" fill="#D5222F"/>
<g opacity="0.4">
<path d="M10.5 6C9.94772 6 9.5 6.44772 9.5 7C9.5 7.55228 9.94772 8 10.5 8H17.5C18.0523 8 18.5 7.55228 18.5 7C18.5 6.44772 18.0523 6 17.5 6H10.5Z" fill="#D5222F"/>
<path d="M10.5 10C9.94772 10 9.5 10.4477 9.5 11C9.5 11.5523 9.94772 12 10.5 12H14C14.5523 12 15 11.5523 15 11C15 10.4477 14.5523 10 14 10H10.5Z" fill="#D5222F"/>
</g>
</svg>
